<?xml version="1.0" encoding="UTF-8"?><svg id="Layer_1" xmlns="http://www.w3.org/2000/svg" viewBox="0 0 130 150"><defs><style>.cls-1{fill:#006837;}.cls-2{fill:red;}.cls-3{fill:#534741;}.cls-4{fill:#e5e5e5;opacity:.85;}</style></defs><path class="cls-2" d="M124.25,86.27c-.45,3.75-1.24,7.13-2.26,10.19-.7,2.11-3.48,10.37-10.73,19.39-3.76,4.69-8.74,10.88-17.56,15.5-9.99,5.23-19.24,5.46-26.13,5.64-7.42,.19-21.42,.54-34.76-7.75-7.92-4.92-12.51-10.97-15.42-14.79-6.31-8.31-8.84-15.69-9.44-17.51-1.06-3.17-1.9-6.72-2.36-10.67-.15-1.27-2.34-22.5,9.82-39.11,1.94-2.66,6.08-8.19,13.21-11.61,.68-.33,1.21-.56,1.38-.63,7.64-3.21,14.59-1.81,16.94-1.31,10.94,2.35,10.55,8.48,17.82,8.62,6.99,.13,7.69-5.51,17.79-8.29,2.86-.79,10.88-2.91,19.28,.9,9.42,4.28,14.1,13.52,16.53,18.32,2.63,5.19,7.79,17.5,5.9,33.11Z"/><path class="cls-3" d="M71.04,54.31h-7.87c-1.71-14.66-3.41-29.33-5.12-43.99,4.33-3.44,8.66-6.87,12.99-10.31V54.31Z"/><path class="cls-4" d="M21.83,64.57c-5.11,.76-4.4-5.75,3.3-12.47,12.17-10.62,21.93-9.81,24.12-6.43,2.65,4.09-4.32,14.43-13.51,11.31-4.06-1.38-9.7,6.96-13.91,7.59Z"/><g><path class="cls-1" d="M110.1,2.99c-3.05-.12-5.69,.19-7.69,.55-3.13,.56-5.64,1.42-7.73,2.14-1.86,.65-3.44,1.28-4.6,1.78,2.2-.9,4.59-1.86,4.6-1.78,.01,.14-6.35,2.27-11.45,5.94-4.56,3.28-10.31,9.37-15.59,21.72,6.77-4.14,14.01-8.89,21.61-14.33,7.54-5.4,14.49-10.8,20.85-16.03Z"/><path class="cls-1" d="M67.73,32.95c3.05,.12,5.69-.19,7.69-.55,3.13-.56,5.64-1.42,7.73-2.14,1.86-.65,3.44-1.28,4.6-1.78-2.2,.9-4.59,1.86-4.6,1.78-.01-.14,6.35-2.27,11.45-5.94,4.56-3.28,10.31-9.37,15.59-21.73-6.77,4.14-14.01,8.89-21.61,14.33-7.54,5.4-14.49,10.8-20.85,16.03Z"/></g></svg>