<?xml version="1.0" encoding="UTF-8"?><svg id="Layer_1" xmlns="http://www.w3.org/2000/svg" viewBox="0 0 965 1100"><defs><style>.cls-1{fill:#006837;}.cls-2{fill:#009145;}.cls-3{fill:red;}.cls-4{fill:#8b6239;}.cls-5{fill:#534741;}.cls-6{fill:#754c24;}.cls-7{fill:#e5e5e5;opacity:.85;}</style></defs><g><g><ellipse class="cls-1" cx="282.95" cy="593.41" rx="133.59" ry="131.86"/><ellipse class="cls-1" cx="223.02" cy="502.04" rx="133.59" ry="131.86"/><ellipse class="cls-1" cx="223.02" cy="371.21" rx="133.59" ry="131.86"/><ellipse class="cls-1" cx="417.79" cy="674.4" rx="133.59" ry="131.86"/><ellipse class="cls-1" cx="417.79" cy="209.24" rx="133.59" ry="131.86"/><ellipse class="cls-1" cx="282.95" cy="292.3" rx="133.59" ry="131.86"/><ellipse class="cls-1" cx="709.94" cy="292.3" rx="133.59" ry="131.86"/><ellipse class="cls-1" cx="575.1" cy="209.24" rx="133.59" ry="131.86"/><ellipse class="cls-1" cx="737.41" cy="541.49" rx="133.59" ry="131.86"/><ellipse class="cls-1" cx="769.87" cy="371.21" rx="133.59" ry="131.86"/><ellipse class="cls-1" cx="679.97" cy="161.48" rx="133.59" ry="131.86"/><ellipse class="cls-1" cx="812.32" cy="462.58" rx="133.59" ry="131.86"/><ellipse class="cls-1" cx="577.6" cy="639.09" rx="133.59" ry="131.86"/><ellipse class="cls-1" cx="375.34" cy="425.2" rx="133.59" ry="131.86"/><ellipse class="cls-1" cx="205.54" cy="599.64" rx="133.59" ry="131.86"/><ellipse class="cls-1" cx="225.52" cy="230" rx="133.59" ry="131.86"/><ellipse class="cls-1" cx="146.69" cy="415.79" rx="133.59" ry="131.86"/><ellipse class="cls-1" cx="605.06" cy="425.2" rx="133.59" ry="131.86"/><ellipse class="cls-1" cx="442.76" cy="475.04" rx="133.59" ry="131.86"/><ellipse class="cls-1" cx="472.72" cy="342.14" rx="133.59" ry="131.86"/><ellipse class="cls-1" cx="819.81" cy="315.14" rx="133.59" ry="131.86"/><ellipse class="cls-1" cx="712.44" cy="639.09" rx="133.59" ry="131.86"/></g><g><path class="cls-6" d="M573.74,743.26c0-.05,0-.1,0-.15,0-7.39-.06-14.76-.72-22.07h-110.65c1.38,23.47,2.39,46.97,2.49,70.48,.16,37.67-1.6,76.03-8.38,113.39v137.3h128.83v-146.5c-1.38-7.42-2.58-14.82-3.66-22.15-6.32-43.18-7.83-86.74-7.91-130.29Z"/><path class="cls-6" d="M663.18,1053.05c-.36-.52-.71-1.04-1.06-1.57-13.11-8.2-21.84-20.42-27.7-34.15-3.67-4.12-6.43-8.78-8.66-14.11-23.75-34.46-35.3-76.27-42.11-116.94-19.06-13.06-40.5-20.41-63.19-20.41s-42.34,6.75-60.78,18.8c-3.06,22.72-7.73,45.19-14.71,67.03-12.51,39.12-33.78,76.38-67.24,101.43-.15,3.73-.23,7.49-.23,11.28h285.94c0-3.81-.09-7.59-.25-11.35Z"/></g><path class="cls-4" d="M602.19,742.81c0-.05,0-.1,0-.15,0-7.39-.06-14.76-.72-22.07h-110.65c1.38,23.47,2.39,46.97,2.49,70.48,.16,37.67-1.6,76.03-8.38,113.39v137.3h128.83v-146.5c-1.38-7.42-2.58-14.82-3.66-22.15-6.32-43.18-7.83-86.74-7.91-130.29Z"/><path class="cls-4" d="M691.63,1052.59c-.36-.52-.71-1.04-1.06-1.57-13.11-8.2-21.84-20.42-27.7-34.15-3.67-4.12-6.43-8.78-8.66-14.11-23.75-34.46-35.3-76.27-42.11-116.94-19.06-13.06-40.5-20.41-63.19-20.41s-42.34,6.75-60.78,18.8c-3.06,22.72-7.73,45.19-14.71,67.03-12.51,39.12-33.78,76.38-67.24,101.43-.15,3.73-.23,7.49-.23,11.28h285.94c0-3.81-.09-7.59-.25-11.35Z"/><g><ellipse class="cls-2" cx="294.55" cy="563.8" rx="133.59" ry="131.86"/><ellipse class="cls-2" cx="234.62" cy="472.42" rx="133.59" ry="131.86"/><ellipse class="cls-2" cx="234.62" cy="341.6" rx="133.59" ry="131.86"/><ellipse class="cls-2" cx="429.39" cy="644.78" rx="133.59" ry="131.86"/><ellipse class="cls-2" cx="429.39" cy="179.63" rx="133.59" ry="131.86"/><ellipse class="cls-2" cx="294.55" cy="262.69" rx="133.59" ry="131.86"/><ellipse class="cls-2" cx="721.54" cy="262.69" rx="133.59" ry="131.86"/><ellipse class="cls-2" cx="586.7" cy="179.63" rx="133.59" ry="131.86"/><ellipse class="cls-2" cx="749.01" cy="511.88" rx="133.59" ry="131.86"/><ellipse class="cls-2" cx="781.47" cy="341.6" rx="133.59" ry="131.86"/><ellipse class="cls-2" cx="691.58" cy="131.86" rx="133.59" ry="131.86"/><ellipse class="cls-2" cx="823.92" cy="432.97" rx="133.59" ry="131.86"/><ellipse class="cls-2" cx="589.2" cy="609.48" rx="133.59" ry="131.86"/><ellipse class="cls-2" cx="386.94" cy="395.59" rx="133.59" ry="131.86"/><ellipse class="cls-2" cx="217.14" cy="570.02" rx="133.59" ry="131.86"/><ellipse class="cls-2" cx="237.12" cy="200.39" rx="133.59" ry="131.86"/><ellipse class="cls-2" cx="158.29" cy="386.17" rx="133.59" ry="131.86"/><ellipse class="cls-2" cx="616.67" cy="395.59" rx="133.59" ry="131.86"/><ellipse class="cls-2" cx="454.36" cy="445.43" rx="133.59" ry="131.86"/><ellipse class="cls-2" cx="484.32" cy="312.53" rx="133.59" ry="131.86"/><ellipse class="cls-2" cx="831.41" cy="285.53" rx="133.59" ry="131.86"/><ellipse class="cls-2" cx="724.04" cy="609.48" rx="133.59" ry="131.86"/></g><path class="cls-4" d="M534.15,934.85c-.93-4.01-1.85-8.02-2.78-12.03,53.52-14.15,107.04-28.31,160.57-42.46,14.21,3.91,28.43,7.82,42.64,11.72l-200.43,42.76Z"/><path class="cls-4" d="M641.1,902.72c-3.18-1.35-6.37-2.69-9.55-4.04,5.32-17.01,10.63-34.01,15.95-51.02,6.98-1.56,13.96-3.12,20.95-4.68l-27.35,59.74Z"/><ellipse class="cls-1" cx="734.69" cy="880" rx="41.93" ry="40.29"/><ellipse class="cls-1" cx="752.92" cy="863.65" rx="41.93" ry="40.29"/><ellipse class="cls-1" cx="776.01" cy="901.03" rx="41.93" ry="40.29"/><ellipse class="cls-2" cx="649.98" cy="840.19" rx="20.91" ry="40.4"/><ellipse class="cls-2" cx="638.25" cy="840.24" rx="20.84" ry="20.39"/><ellipse class="cls-2" cx="643.05" cy="861.11" rx="20.84" ry="20.39"/><ellipse class="cls-2" cx="667.35" cy="845.93" rx="20.84" ry="20.39"/><ellipse class="cls-1" cx="791.81" cy="879.9" rx="15.19" ry="29.89"/></g><g><path class="cls-3" d="M369.52,631.47c-.16,1.35-.43,2.56-.79,3.66-.24,.76-1.21,3.72-3.73,6.96-1.31,1.68-3.04,3.9-6.11,5.56-3.48,1.88-6.7,1.96-9.09,2.02-2.58,.07-7.45,.19-12.1-2.78-2.75-1.76-4.35-3.93-5.37-5.31-2.2-2.98-3.07-5.63-3.29-6.28-.37-1.14-.66-2.41-.82-3.83-.05-.46-.81-8.07,3.42-14.03,.68-.95,2.12-2.94,4.59-4.16,.24-.12,.42-.2,.48-.22,2.66-1.15,5.08-.65,5.89-.47,3.8,.84,3.67,3.04,6.2,3.09,2.43,.05,2.68-1.98,6.19-2.97,.99-.28,3.79-1.05,6.71,.32,3.28,1.53,4.91,4.85,5.75,6.57,.91,1.86,2.71,6.28,2.05,11.88Z"/><path class="cls-5" d="M351,620h-2.74c-.59-5.26-1.19-10.52-1.78-15.78,1.51-1.23,3.01-2.47,4.52-3.7v19.48Z"/><path class="cls-7" d="M333.88,623.68c-1.78,.27-1.53-2.06,1.15-4.47,4.23-3.81,7.63-3.52,8.39-2.31,.92,1.47-1.5,5.18-4.7,4.06-1.41-.5-3.38,2.5-4.84,2.72Z"/><g><path class="cls-1" d="M364.59,601.59c-1.06-.04-1.98,.07-2.68,.2-1.09,.2-1.96,.51-2.69,.77-.65,.23-1.2,.46-1.6,.64,.77-.32,1.6-.67,1.6-.64,0,.05-2.21,.82-3.98,2.13-1.59,1.18-3.59,3.36-5.42,7.79,2.36-1.49,4.87-3.19,7.52-5.14,2.62-1.94,5.04-3.87,7.25-5.75Z"/><path class="cls-1" d="M349.85,612.34c1.06,.04,1.98-.07,2.68-.2,1.09-.2,1.96-.51,2.69-.77,.65-.23,1.2-.46,1.6-.64-.77,.32-1.6,.67-1.6,.64,0-.05,2.21-.82,3.98-2.13,1.59-1.18,3.59-3.36,5.42-7.79-2.36,1.49-4.87,3.19-7.52,5.14-2.62,1.94-5.04,3.87-7.25,5.75Z"/></g></g><g><path class="cls-3" d="M276.31,250.83c-.16,1.15-.43,2.19-.78,3.14-.24,.65-1.2,3.19-3.69,5.97-1.29,1.44-3.01,3.35-6.04,4.77-3.44,1.61-6.62,1.68-8.99,1.73-2.55,.06-7.37,.17-11.96-2.38-2.72-1.51-4.3-3.37-5.31-4.55-2.17-2.56-3.04-4.83-3.25-5.39-.36-.98-.65-2.07-.81-3.28-.05-.39-.8-6.92,3.38-12.03,.67-.82,2.09-2.52,4.54-3.57,.24-.1,.42-.17,.47-.19,2.63-.99,5.02-.56,5.83-.4,3.76,.72,3.63,2.61,6.13,2.65,2.4,.04,2.65-1.7,6.12-2.55,.98-.24,3.74-.9,6.63,.28,3.24,1.32,4.85,4.16,5.69,5.63,.9,1.6,2.68,5.38,2.03,10.18Z"/><path class="cls-5" d="M258,241h-2.71c-.59-4.51-1.17-9.02-1.76-13.53,1.49-1.06,2.98-2.11,4.47-3.17v16.71Z"/><path class="cls-7" d="M241.07,244.16c-1.76,.24-1.51-1.77,1.14-3.84,4.19-3.27,7.54-3.02,8.3-1.98,.91,1.26-1.49,4.44-4.65,3.48-1.4-.42-3.34,2.14-4.79,2.34Z"/><g><path class="cls-1" d="M271.44,225.21c-1.05-.04-1.96,.06-2.64,.17-1.08,.17-1.94,.44-2.66,.66-.64,.2-1.18,.39-1.58,.55,.76-.28,1.58-.57,1.58-.55,0,.04-2.19,.7-3.94,1.83-1.57,1.01-3.55,2.88-5.36,6.68,2.33-1.27,4.82-2.74,7.43-4.41,2.59-1.66,4.99-3.32,7.17-4.93Z"/><path class="cls-1" d="M256.86,234.43c1.05,.04,1.96-.06,2.64-.17,1.08-.17,1.94-.44,2.66-.66,.64-.2,1.18-.39,1.58-.55-.76,.28-1.58,.57-1.58,.55,0-.04,2.19-.7,3.94-1.83,1.57-1.01,3.55-2.88,5.36-6.68-2.33,1.27-4.82,2.74-7.43,4.41-2.59,1.66-4.99,3.32-7.17,4.93Z"/></g></g><g><path class="cls-3" d="M709.15,129.58c-.23,1.95-.63,3.7-1.15,5.29-.36,1.09-1.77,5.38-5.47,10.06-1.92,2.43-4.46,5.64-8.96,8.04-5.1,2.71-9.82,2.83-13.33,2.92-3.78,.1-10.93,.28-17.73-4.02-4.04-2.55-6.38-5.69-7.87-7.67-3.22-4.31-4.51-8.14-4.82-9.08-.54-1.65-.97-3.48-1.21-5.53-.08-.66-1.19-11.67,5.01-20.28,.99-1.38,3.1-4.24,6.74-6.02,.35-.17,.62-.29,.7-.32,3.9-1.66,7.44-.94,8.64-.68,5.58,1.22,5.38,4.4,9.09,4.47,3.57,.07,3.93-2.86,9.08-4.3,1.46-.41,5.55-1.51,9.84,.47,4.81,2.22,7.19,7.01,8.43,9.5,1.34,2.69,3.97,9.07,3.01,17.17Z"/><path class="cls-5" d="M682,113h-4.02c-.87-7.6-1.74-15.21-2.61-22.81,2.21-1.78,4.42-3.56,6.63-5.35v28.16Z"/><path class="cls-7" d="M656.89,118.32c-2.61,.4-2.25-2.98,1.68-6.47,6.21-5.51,11.19-5.09,12.3-3.33,1.35,2.12-2.2,7.48-6.89,5.86-2.07-.72-4.95,3.61-7.1,3.94Z"/><g><path class="cls-1" d="M701.93,86.39c-1.55-.06-2.9,.1-3.92,.29-1.6,.29-2.88,.74-3.94,1.11-.95,.33-1.75,.66-2.35,.92,1.12-.47,2.34-.97,2.35-.92,0,.07-3.24,1.18-5.84,3.08-2.32,1.7-5.26,4.86-7.95,11.27,3.45-2.15,7.15-4.61,11.02-7.43,3.85-2.8,7.39-5.6,10.64-8.31Z"/><path class="cls-1" d="M680.31,101.93c1.55,.06,2.9-.1,3.92-.29,1.6-.29,2.88-.74,3.94-1.11,.95-.33,1.75-.66,2.35-.92-1.12,.47-2.34,.97-2.35,.92,0-.07,3.24-1.18,5.84-3.08,2.32-1.7,5.26-4.86,7.95-11.27-3.45,2.15-7.15,4.61-11.02,7.43-3.85,2.8-7.39,5.6-10.63,8.32Z"/></g></g><g><path class="cls-3" d="M870.29,318.06c-.14,1.06-.38,2.02-.69,2.89-.21,.6-1.06,2.94-3.28,5.5-1.15,1.33-2.68,3.09-5.37,4.39-3.06,1.48-5.89,1.55-8,1.6-2.27,.05-6.56,.15-10.64-2.2-2.42-1.39-3.83-3.11-4.72-4.19-1.93-2.35-2.7-4.45-2.89-4.96-.32-.9-.58-1.9-.72-3.02-.05-.36-.72-6.38,3.01-11.09,.59-.75,1.86-2.32,4.04-3.29,.21-.09,.37-.16,.42-.18,2.34-.91,4.47-.51,5.18-.37,3.35,.67,3.23,2.4,5.45,2.44,2.14,.04,2.35-1.56,5.45-2.35,.87-.22,3.33-.83,5.9,.25,2.88,1.21,4.32,3.83,5.06,5.19,.8,1.47,2.38,4.96,1.81,9.39Z"/><path class="cls-5" d="M854,309h-2.41c-.52-4.16-1.04-8.32-1.57-12.47,1.33-.97,2.65-1.95,3.98-2.92v15.4Z"/><path class="cls-7" d="M838.94,311.91c-1.56,.22-1.35-1.63,1.01-3.54,3.72-3.01,6.71-2.78,7.38-1.82,.81,1.16-1.32,4.09-4.13,3.21-1.24-.39-2.97,1.97-4.26,2.15Z"/><g><path class="cls-1" d="M865.95,294.45c-.93-.03-1.74,.05-2.35,.16-.96,.16-1.73,.4-2.36,.61-.57,.18-1.05,.36-1.41,.5,.67-.26,1.41-.53,1.41-.5,0,.04-1.94,.64-3.5,1.68-1.39,.93-3.16,2.66-4.77,6.16,2.07-1.18,4.29-2.52,6.61-4.06,2.31-1.53,4.44-3.06,6.38-4.55Z"/><path class="cls-1" d="M852.99,302.95c.93,.03,1.74-.05,2.35-.16,.96-.16,1.73-.4,2.36-.61,.57-.18,1.05-.36,1.41-.5-.67,.26-1.41,.53-1.41,.5,0-.04,1.94-.64,3.5-1.68,1.39-.93,3.16-2.66,4.77-6.16-2.07,1.18-4.29,2.52-6.61,4.06-2.31,1.53-4.44,3.06-6.38,4.55Z"/></g></g><g><path class="cls-3" d="M441.15,380.58c-.23,1.95-.63,3.7-1.15,5.29-.36,1.09-1.77,5.38-5.47,10.06-1.92,2.43-4.46,5.64-8.96,8.04-5.1,2.71-9.82,2.83-13.33,2.92-3.78,.1-10.93,.28-17.73-4.02-4.04-2.55-6.38-5.69-7.87-7.67-3.22-4.31-4.51-8.14-4.82-9.08-.54-1.65-.97-3.48-1.21-5.53-.08-.66-1.19-11.67,5.01-20.28,.99-1.38,3.1-4.24,6.74-6.02,.35-.17,.62-.29,.7-.32,3.9-1.66,7.44-.94,8.64-.68,5.58,1.22,5.38,4.4,9.09,4.47,3.57,.07,3.93-2.86,9.08-4.3,1.46-.41,5.55-1.51,9.84,.47,4.81,2.22,7.19,7.01,8.43,9.5,1.34,2.69,3.97,9.07,3.01,17.17Z"/><path class="cls-5" d="M414,364h-4.02c-.87-7.6-1.74-15.21-2.61-22.81l6.63-5.35v28.16Z"/><path class="cls-7" d="M388.89,369.32c-2.61,.4-2.25-2.98,1.68-6.47,6.21-5.51,11.19-5.09,12.3-3.33,1.35,2.12-2.2,7.48-6.89,5.86-2.07-.72-4.95,3.61-7.1,3.94Z"/><g><path class="cls-1" d="M433.93,337.39c-1.55-.06-2.9,.1-3.92,.29-1.6,.29-2.88,.74-3.94,1.11-.95,.33-1.75,.66-2.35,.92,1.12-.47,2.34-.97,2.35-.92,0,.07-3.24,1.18-5.84,3.08-2.32,1.7-5.26,4.86-7.95,11.27,3.45-2.15,7.15-4.61,11.02-7.43,3.85-2.8,7.39-5.6,10.64-8.31Z"/><path class="cls-1" d="M412.31,352.93c1.55,.06,2.9-.1,3.92-.29,1.6-.29,2.88-.74,3.94-1.11,.95-.33,1.75-.66,2.35-.92-1.12,.47-2.34,.97-2.35,.92,0-.07,3.24-1.18,5.84-3.08,2.32-1.7,5.26-4.86,7.95-11.27-3.45,2.15-7.15,4.61-11.02,7.43-3.85,2.8-7.39,5.6-10.63,8.32Z"/></g></g><g><path class="cls-3" d="M527.3,243.47c-.17,1.35-.47,2.56-.86,3.66-.27,.76-1.33,3.72-4.09,6.96-1.44,1.68-3.34,3.9-6.7,5.56-3.81,1.88-7.34,1.96-9.97,2.02-2.83,.07-8.17,.19-13.26-2.78-3.02-1.76-4.77-3.93-5.88-5.31-2.41-2.98-3.37-5.63-3.6-6.28-.4-1.14-.73-2.41-.9-3.83-.06-.46-.89-8.07,3.75-14.03,.74-.95,2.32-2.94,5.04-4.16,.26-.12,.46-.2,.53-.22,2.91-1.15,5.57-.65,6.46-.47,4.17,.84,4.02,3.04,6.8,3.09,2.67,.05,2.94-1.98,6.79-2.97,1.09-.28,4.15-1.05,7.36,.32,3.6,1.53,5.38,4.85,6.31,6.57,1,1.86,2.97,6.28,2.25,11.88Z"/><path class="cls-5" d="M507,232h-3c-.65-5.26-1.3-10.52-1.95-15.78,1.65-1.23,3.3-2.47,4.96-3.7v19.48Z"/><path class="cls-7" d="M488.23,235.68c-1.95,.27-1.68-2.06,1.26-4.47,4.64-3.81,8.36-3.52,9.2-2.31,1.01,1.47-1.65,5.18-5.15,4.06-1.55-.5-3.7,2.5-5.31,2.72Z"/><g><path class="cls-1" d="M521.9,213.59c-1.16-.04-2.17,.07-2.93,.2-1.19,.2-2.15,.51-2.95,.77-.71,.23-1.31,.46-1.75,.64,.84-.32,1.75-.67,1.75-.64,0,.05-2.42,.82-4.37,2.13-1.74,1.18-3.93,3.36-5.95,7.79,2.58-1.49,5.34-3.19,8.24-5.14,2.88-1.94,5.53-3.87,7.95-5.75Z"/><path class="cls-1" d="M505.74,224.34c1.16,.04,2.17-.07,2.93-.2,1.19-.2,2.15-.51,2.95-.77,.71-.23,1.31-.46,1.75-.64-.84,.32-1.75,.67-1.75,.64,0-.05,2.42-.82,4.37-2.13,1.74-1.18,3.93-3.36,5.95-7.79-2.58,1.49-5.34,3.19-8.24,5.14-2.88,1.94-5.53,3.87-7.95,5.75Z"/></g></g><g><path class="cls-3" d="M753.31,381.83c-.16,1.15-.43,2.19-.78,3.14-.24,.65-1.2,3.19-3.69,5.97-1.29,1.44-3.01,3.35-6.04,4.77-3.44,1.61-6.62,1.68-8.99,1.73-2.55,.06-7.37,.17-11.96-2.38-2.72-1.51-4.3-3.37-5.31-4.55-2.17-2.56-3.04-4.83-3.25-5.39-.36-.98-.65-2.07-.81-3.28-.05-.39-.8-6.92,3.38-12.03,.67-.82,2.09-2.52,4.54-3.57,.24-.1,.42-.17,.47-.19,2.63-.99,5.02-.56,5.83-.4,3.76,.72,3.63,2.61,6.13,2.65,2.4,.04,2.65-1.7,6.12-2.55,.98-.24,3.74-.9,6.63,.28,3.24,1.32,4.85,4.16,5.69,5.63,.9,1.6,2.68,5.38,2.03,10.18Z"/><path class="cls-5" d="M735,372h-2.71c-.59-4.51-1.17-9.02-1.76-13.53,1.49-1.06,2.98-2.11,4.47-3.17v16.71Z"/><path class="cls-7" d="M718.07,375.16c-1.76,.24-1.51-1.77,1.14-3.84,4.19-3.27,7.54-3.02,8.3-1.98,.91,1.26-1.49,4.44-4.65,3.48-1.4-.42-3.34,2.14-4.79,2.34Z"/><g><path class="cls-1" d="M748.44,356.21c-1.05-.04-1.96,.06-2.64,.17-1.08,.17-1.94,.44-2.66,.66-.64,.2-1.18,.39-1.58,.55,.76-.28,1.58-.57,1.58-.55,0,.04-2.19,.7-3.94,1.83-1.57,1.01-3.55,2.88-5.36,6.68,2.33-1.27,4.82-2.74,7.43-4.41,2.59-1.66,4.99-3.32,7.17-4.93Z"/><path class="cls-1" d="M733.86,365.43c1.05,.04,1.96-.06,2.64-.17,1.08-.17,1.94-.44,2.66-.66,.64-.2,1.18-.39,1.58-.55-.76,.28-1.58,.57-1.58,.55,0-.04,2.19-.7,3.94-1.83,1.57-1.01,3.55-2.88,5.36-6.68-2.33,1.27-4.82,2.74-7.43,4.41-2.59,1.66-4.99,3.32-7.17,4.93Z"/></g></g><g><path class="cls-3" d="M753.15,637.58c-.23,1.95-.63,3.7-1.15,5.29-.36,1.09-1.77,5.38-5.47,10.06-1.92,2.43-4.46,5.64-8.96,8.04-5.1,2.71-9.82,2.83-13.33,2.92-3.78,.1-10.93,.28-17.73-4.02-4.04-2.55-6.38-5.69-7.87-7.67-3.22-4.31-4.51-8.14-4.82-9.08-.54-1.65-.97-3.48-1.21-5.53-.08-.66-1.19-11.67,5.01-20.28,.99-1.38,3.1-4.24,6.74-6.02,.35-.17,.62-.29,.7-.32,3.9-1.66,7.44-.94,8.64-.68,5.58,1.22,5.38,4.4,9.09,4.47,3.57,.07,3.93-2.86,9.08-4.3,1.46-.41,5.55-1.51,9.84,.47,4.81,2.22,7.19,7.01,8.43,9.5,1.34,2.69,3.97,9.07,3.01,17.17Z"/><path class="cls-5" d="M726,621h-4.02c-.87-7.6-1.74-15.21-2.61-22.81l6.63-5.35v28.16Z"/><path class="cls-7" d="M700.89,626.32c-2.61,.4-2.25-2.98,1.68-6.47,6.21-5.51,11.19-5.09,12.3-3.33,1.35,2.12-2.2,7.48-6.89,5.86-2.07-.72-4.95,3.61-7.1,3.94Z"/><g><path class="cls-1" d="M745.93,594.39c-1.55-.06-2.9,.1-3.92,.29-1.6,.29-2.88,.74-3.94,1.11-.95,.33-1.75,.66-2.35,.92,1.12-.47,2.34-.97,2.35-.92,0,.07-3.24,1.18-5.84,3.08-2.32,1.7-5.26,4.86-7.95,11.27,3.45-2.15,7.15-4.61,11.02-7.43,3.85-2.8,7.39-5.6,10.64-8.31Z"/><path class="cls-1" d="M724.31,609.93c1.55,.06,2.9-.1,3.92-.29,1.6-.29,2.88-.74,3.94-1.11,.95-.33,1.75-.66,2.35-.92-1.12,.47-2.34,.97-2.35,.92,0-.07,3.24-1.18,5.84-3.08,2.32-1.7,5.26-4.86,7.95-11.27-3.45,2.15-7.15,4.61-11.02,7.43-3.85,2.8-7.39,5.6-10.63,8.32Z"/></g></g><g><path class="cls-3" d="M251.15,482.58c-.23,1.95-.63,3.7-1.15,5.29-.36,1.09-1.77,5.38-5.47,10.06-1.92,2.43-4.46,5.64-8.96,8.04-5.1,2.71-9.82,2.83-13.33,2.92-3.78,.1-10.93,.28-17.73-4.02-4.04-2.55-6.38-5.69-7.87-7.67-3.22-4.31-4.51-8.14-4.82-9.08-.54-1.65-.97-3.48-1.21-5.53-.08-.66-1.19-11.67,5.01-20.28,.99-1.38,3.1-4.24,6.74-6.02,.35-.17,.62-.29,.7-.32,3.9-1.66,7.44-.94,8.64-.68,5.58,1.22,5.38,4.4,9.09,4.47,3.57,.07,3.93-2.86,9.08-4.3,1.46-.41,5.55-1.51,9.84,.47,4.81,2.22,7.19,7.01,8.43,9.5,1.34,2.69,3.97,9.07,3.01,17.17Z"/><path class="cls-5" d="M224,466h-4.02c-.87-7.6-1.74-15.21-2.61-22.81l6.63-5.35v28.16Z"/><path class="cls-7" d="M198.89,471.32c-2.61,.4-2.25-2.98,1.68-6.47,6.21-5.51,11.19-5.09,12.3-3.33,1.35,2.12-2.2,7.48-6.89,5.86-2.07-.72-4.95,3.61-7.1,3.94Z"/><g><path class="cls-1" d="M243.93,439.39c-1.55-.06-2.9,.1-3.92,.29-1.6,.29-2.88,.74-3.94,1.11-.95,.33-1.75,.66-2.35,.92,1.12-.47,2.34-.97,2.35-.92,0,.07-3.24,1.18-5.84,3.08-2.32,1.7-5.26,4.86-7.95,11.27,3.45-2.15,7.15-4.61,11.02-7.43,3.85-2.8,7.39-5.6,10.64-8.31Z"/><path class="cls-1" d="M222.31,454.93c1.55,.06,2.9-.1,3.92-.29,1.6-.29,2.88-.74,3.94-1.11,.95-.33,1.75-.66,2.35-.92-1.12,.47-2.34,.97-2.35,.92,0-.07,3.24-1.18,5.84-3.08,2.32-1.7,5.26-4.86,7.95-11.27-3.45,2.15-7.15,4.61-11.02,7.43-3.85,2.8-7.39,5.6-10.63,8.32Z"/></g></g><g><path class="cls-3" d="M537.29,553.06c-.14,1.06-.38,2.02-.69,2.89-.21,.6-1.06,2.94-3.28,5.5-1.15,1.33-2.68,3.09-5.37,4.39-3.06,1.48-5.89,1.55-8,1.6-2.27,.05-6.56,.15-10.64-2.2-2.42-1.39-3.83-3.11-4.72-4.19-1.93-2.35-2.7-4.45-2.89-4.96-.32-.9-.58-1.9-.72-3.02-.05-.36-.72-6.38,3.01-11.09,.59-.75,1.86-2.32,4.04-3.29,.21-.09,.37-.16,.42-.18,2.34-.91,4.47-.51,5.18-.37,3.35,.67,3.23,2.4,5.45,2.44,2.14,.04,2.35-1.56,5.45-2.35,.87-.22,3.33-.83,5.9,.25,2.88,1.21,4.32,3.83,5.06,5.19,.8,1.47,2.38,4.96,1.81,9.39Z"/><path class="cls-5" d="M521,544h-2.41c-.52-4.16-1.04-8.32-1.57-12.47,1.33-.97,2.65-1.95,3.98-2.92v15.4Z"/><path class="cls-7" d="M505.94,546.91c-1.56,.22-1.35-1.63,1.01-3.54,3.72-3.01,6.71-2.78,7.38-1.82,.81,1.16-1.32,4.09-4.13,3.21-1.24-.39-2.97,1.97-4.26,2.15Z"/><g><path class="cls-1" d="M532.95,529.45c-.93-.03-1.74,.05-2.35,.16-.96,.16-1.73,.4-2.36,.61-.57,.18-1.05,.36-1.41,.5,.67-.26,1.41-.53,1.41-.5,0,.04-1.94,.64-3.5,1.68-1.39,.93-3.16,2.66-4.77,6.16,2.07-1.18,4.29-2.52,6.61-4.06,2.31-1.53,4.44-3.06,6.38-4.55Z"/><path class="cls-1" d="M519.99,537.95c.93,.03,1.74-.05,2.35-.16,.96-.16,1.73-.4,2.36-.61,.57-.18,1.05-.36,1.41-.5-.67,.26-1.41,.53-1.41,.5,0-.04,1.94-.64,3.5-1.68,1.39-.93,3.16-2.66,4.77-6.16-2.07,1.18-4.29,2.52-6.61,4.06-2.31,1.53-4.44,3.06-6.38,4.55Z"/></g></g></svg>