<?xml version="1.0" encoding="UTF-8"?><svg id="Layer_1" xmlns="http://www.w3.org/2000/svg" viewBox="0 0 610 700"><defs><style>.cls-1{fill:#006837;}.cls-2{fill:#009145;}.cls-3{fill:#8b6239;}.cls-4{fill:#754c24;}</style></defs><g><ellipse class="cls-1" cx="162.56" cy="387.76" rx="78.29" ry="86.17"/><ellipse class="cls-1" cx="127.44" cy="328.05" rx="78.29" ry="86.17"/><ellipse class="cls-1" cx="127.44" cy="242.57" rx="78.29" ry="86.17"/><ellipse class="cls-1" cx="241.58" cy="440.68" rx="78.29" ry="86.17"/><ellipse class="cls-1" cx="241.58" cy="136.72" rx="78.29" ry="86.17"/><ellipse class="cls-1" cx="162.56" cy="191" rx="78.29" ry="86.17"/><ellipse class="cls-1" cx="412.78" cy="191" rx="78.29" ry="86.17"/><ellipse class="cls-1" cx="333.76" cy="136.72" rx="78.29" ry="86.17"/><ellipse class="cls-1" cx="428.88" cy="353.83" rx="78.29" ry="86.17"/><ellipse class="cls-1" cx="447.9" cy="242.57" rx="78.29" ry="86.17"/><ellipse class="cls-1" cx="395.22" cy="105.52" rx="78.29" ry="86.17"/><ellipse class="cls-1" cx="472.78" cy="302.27" rx="78.29" ry="86.17"/><ellipse class="cls-1" cx="335.23" cy="417.61" rx="78.29" ry="86.17"/><ellipse class="cls-1" cx="216.7" cy="277.85" rx="78.29" ry="86.17"/><ellipse class="cls-1" cx="117.2" cy="391.83" rx="78.29" ry="86.17"/><ellipse class="cls-1" cx="128.9" cy="150.29" rx="78.29" ry="86.17"/><ellipse class="cls-1" cx="82.71" cy="271.69" rx="78.29" ry="86.17"/><ellipse class="cls-1" cx="351.32" cy="277.85" rx="78.29" ry="86.17"/><ellipse class="cls-1" cx="256.21" cy="310.41" rx="78.29" ry="86.17"/><ellipse class="cls-1" cx="273.77" cy="223.57" rx="78.29" ry="86.17"/><ellipse class="cls-1" cx="477.17" cy="205.93" rx="78.29" ry="86.17"/><ellipse class="cls-1" cx="414.24" cy="417.61" rx="78.29" ry="86.17"/></g><g><path class="cls-4" d="M332.97,485.68s0-.06,0-.1c0-4.83-.04-9.64-.42-14.42h-64.84c.81,15.34,1.4,30.69,1.46,46.06,.09,24.62-.94,49.68-4.91,74.09v89.72h75.49v-95.73c-.81-4.85-1.51-9.68-2.14-14.48-3.7-28.21-4.59-56.68-4.64-85.14Z"/><path class="cls-4" d="M385.38,688.1c-.21-.34-.42-.68-.62-1.02-7.68-5.36-12.8-13.35-16.23-22.32-2.15-2.69-3.77-5.73-5.07-9.22-13.92-22.52-20.69-49.84-24.68-76.41-11.17-8.54-23.74-13.34-37.03-13.34s-24.81,4.41-35.62,12.28c-1.79,14.85-4.53,29.53-8.62,43.8-7.33,25.56-19.8,49.91-39.4,66.28-.09,2.44-.14,4.9-.14,7.37h167.56c0-2.49-.05-4.96-.14-7.42Z"/></g><path class="cls-3" d="M349.64,485.38s0-.06,0-.1c0-4.83-.04-9.64-.42-14.42h-64.84c.81,15.34,1.4,30.69,1.46,46.06,.09,24.62-.94,49.68-4.91,74.09v89.72h75.49v-95.73c-.81-4.85-1.51-9.68-2.14-14.48-3.7-28.21-4.59-56.68-4.64-85.14Z"/><path class="cls-3" d="M402.05,687.81c-.21-.34-.42-.68-.62-1.02-7.68-5.36-12.8-13.35-16.23-22.32-2.15-2.69-3.77-5.73-5.07-9.22-13.92-22.52-20.69-49.84-24.68-76.41-11.17-8.54-23.74-13.34-37.03-13.34s-24.81,4.41-35.62,12.28c-1.79,14.85-4.53,29.53-8.62,43.8-7.33,25.56-19.8,49.91-39.4,66.28-.09,2.44-.14,4.9-.14,7.37h167.56c0-2.49-.05-4.96-.14-7.42Z"/><g><ellipse class="cls-2" cx="169.36" cy="368.41" rx="78.29" ry="86.17"/><ellipse class="cls-2" cx="134.24" cy="308.7" rx="78.29" ry="86.17"/><ellipse class="cls-2" cx="134.24" cy="223.22" rx="78.29" ry="86.17"/><ellipse class="cls-2" cx="248.38" cy="421.33" rx="78.29" ry="86.17"/><ellipse class="cls-2" cx="248.38" cy="117.37" rx="78.29" ry="86.17"/><ellipse class="cls-2" cx="169.36" cy="171.65" rx="78.29" ry="86.17"/><ellipse class="cls-2" cx="419.58" cy="171.65" rx="78.29" ry="86.17"/><ellipse class="cls-2" cx="340.56" cy="117.37" rx="78.29" ry="86.17"/><ellipse class="cls-2" cx="435.68" cy="334.48" rx="78.29" ry="86.17"/><ellipse class="cls-2" cx="454.7" cy="223.22" rx="78.29" ry="86.17"/><ellipse class="cls-2" cx="402.02" cy="86.17" rx="78.29" ry="86.17"/><ellipse class="cls-2" cx="479.57" cy="282.92" rx="78.29" ry="86.17"/><ellipse class="cls-2" cx="342.03" cy="398.26" rx="78.29" ry="86.17"/><ellipse class="cls-2" cx="223.5" cy="258.5" rx="78.29" ry="86.17"/><ellipse class="cls-2" cx="124" cy="372.48" rx="78.29" ry="86.17"/><ellipse class="cls-2" cx="135.7" cy="130.94" rx="78.29" ry="86.17"/><ellipse class="cls-2" cx="89.51" cy="252.34" rx="78.29" ry="86.17"/><ellipse class="cls-2" cx="358.12" cy="258.5" rx="78.29" ry="86.17"/><ellipse class="cls-2" cx="263.01" cy="291.06" rx="78.29" ry="86.17"/><ellipse class="cls-2" cx="280.57" cy="204.22" rx="78.29" ry="86.17"/><ellipse class="cls-2" cx="483.96" cy="186.58" rx="78.29" ry="86.17"/><ellipse class="cls-2" cx="421.04" cy="398.26" rx="78.29" ry="86.17"/></g><path class="cls-3" d="M309.77,610.87c-.54-2.62-1.09-5.24-1.63-7.86,31.36-9.25,62.73-18.5,94.09-27.75,8.33,2.55,16.66,5.11,24.99,7.66l-117.45,27.94Z"/><path class="cls-3" d="M372.44,589.87l-5.6-2.64c3.12-11.11,6.23-22.23,9.35-33.34,4.09-1.02,8.18-2.04,12.28-3.06l-16.03,39.04Z"/><ellipse class="cls-1" cx="427.29" cy="575.03" rx="24.57" ry="26.33"/><ellipse class="cls-1" cx="437.97" cy="564.35" rx="24.57" ry="26.33"/><ellipse class="cls-1" cx="451.5" cy="588.77" rx="24.57" ry="26.33"/><ellipse class="cls-2" cx="377.64" cy="549.02" rx="12.25" ry="26.4"/><ellipse class="cls-2" cx="370.77" cy="549.05" rx="12.21" ry="13.32"/><ellipse class="cls-2" cx="373.58" cy="562.68" rx="12.21" ry="13.32"/><ellipse class="cls-2" cx="387.83" cy="552.76" rx="12.21" ry="13.32"/><ellipse class="cls-1" cx="460.76" cy="574.96" rx="8.9" ry="19.53"/></svg>