<?xml version="1.0" encoding="UTF-8"?><svg id="Layer_1" xmlns="http://www.w3.org/2000/svg" viewBox="0 0 500 711"><defs><style>.cls-1{fill:#0041ba;}.cls-2{fill:#0071ba;}.cls-3{fill:#ef5a24;}.cls-4{fill:#eddcb4;}.cls-5{fill:#666;}.cls-6{fill:#736357;}.cls-7{fill:#bf272d;}.cls-8{fill:#a4272d;}.cls-9{fill:#8a6239;}.cls-10{fill:gray;}</style></defs><path class="cls-4" d="M218.43,257.74c-.15,.04-.31,.07-.48,.08-4.44,.21-8.89-.11-13.32,.01-18.95,7.68-48.86,13.38-81.01-7.11-16.03-10.21-28.44-24.28-37.4-36.69-5.59,6.96-11.17,13.92-16.76,20.88,10.61,16.21,28.54,39.23,53.9,53.57,43.62,24.67,81.42,7.94,96.03,0v-30.7c-.06,0-.11,.01-.17,.01-.27,0-.53-.02-.8-.05Z"/><path class="cls-4" d="M429.4,443.97c2.48-16.12,3.86-36.48,.47-57.79-9.02-56.7-45.65-80.84-60.21-88.92,8.25-7.94,16.51-15.88,24.76-23.81,14.34,8.6,48.97,33.25,60.24,89.28,6.55,32.57,2.79,63.68-1.13,83.72-8.04-.83-16.09-1.65-24.13-2.48Z"/><rect class="cls-2" x="227.12" y="249.47" width="156.48" height="247.23" rx="34.92" ry="34.92"/><path class="cls-6" d="M261.06,319.36c25.02-.25,50.02-1.7,75.04-.96,11.68,.35,23.37,.84,35.06,.44,4.14-.14,8.31-.39,12.45-.86v-36.94c0-21.12-17.26-38.4-38.36-38.4h-79.77c-21.1,0-38.36,17.28-38.36,38.4v37.29c11.28,.99,22.63,1.15,33.94,1.04Z"/><rect class="cls-2" x="262.15" y="230.33" width="19.11" height="101.01"/><rect class="cls-2" x="329.02" y="230.33" width="19.11" height="101.01"/><ellipse class="cls-4" cx="305.59" cy="146.7" rx="84.84" ry="115.67"/><path class="cls-5" d="M222.78,65.54c2.88-22.85-4.51-65.95,74.55-51.72,85.11,15.31,113.74,62.23,110.86,85.08-2.88,22.85-92.21,25.72-127.23,19.42-35.02-6.3-61.07-29.93-58.19-52.78Z"/><path class="cls-5" d="M386.02,127.06c.81,16.76-.09,28.13-1.55,35.81,3.24-.19,6.47-.5,9.72-.33,3.99-9.46,6.12-22.35,5.44-36.38-1.35-27.9-13.28-49.77-26.65-48.85,0,0,10.84,4.34,13.03,49.76Z"/><path class="cls-5" d="M233.52,108.07c-1.67,14.74-.55,25.02,1.51,32.11-5.01-.78-10.01-1.66-15.04-2.12-5.94-9.16-8.93-21.01-7.53-33.36,2.77-24.54,21.79-41.74,42.48-38.4,0,0-16.9,1.82-21.42,41.77Z"/><ellipse cx="282.17" cy="146.43" rx="5.46" ry="13.3"/><ellipse cx="326.29" cy="146.43" rx="5.46" ry="13.3"/><path class="cls-4" d="M236.68,184.17v-24.62s0-24.65,0-24.65c-17.75,0-32.15,11.03-32.15,24.64,0,13.61,14.39,24.64,32.15,24.64Z"/><path class="cls-4" d="M375.87,136.7v24.62s0,24.65,0,24.65c17.75,0,32.15-11.03,32.15-24.64,0-13.61-14.39-24.64-32.15-24.64Z"/><path class="cls-3" d="M326.29,198.29h-20.62s-20.64,0-20.64,0c0,18.24,9.24,33.03,20.63,33.03s20.63-14.79,20.63-33.03Z"/><path class="cls-1" d="M348.13,373.13s-13.67,12.61-42.74,12.61c-29.07,0-42.78-12.61-42.78-12.61,0,31.81,19.14,57.59,42.76,57.59,23.62,0,42.76-25.78,42.76-57.59Z"/><rect class="cls-2" x="240.32" y="440.49" width="44.58" height="177.04"/><rect class="cls-2" x="325.84" y="440.49" width="44.58" height="177.04"/><g><g><path class="cls-7" d="M319.92,581.15l6.73,62.59c.39,1.26,.66,2.53,.85,3.81h43.12l7.14-66.41h-57.84Z"/><path class="cls-7" d="M417.77,675.64c-.14-5.11-.53-10.35-1.32-15.37-.1-.48-.19-.96-.29-1.44-.2-.95-.42-1.94-.65-2.96-8.68-14.98-26.92-25.3-48.01-25.3-16.06,0-30.47,5.99-40.26,15.46,.77,3.78,.72,7.67,1.03,11.53,.44,5.55,1.25,11.12,2.2,16.6,.1,.55,.04,1.05-.11,1.48h87.41Z"/></g><path class="cls-8" d="M417.44,669.12h-88.42v7.6h88.77c-.05-2.51-.17-5.06-.35-7.6Z"/></g><g><g><path class="cls-7" d="M288.33,582.65l-6.41,62.59c-.37,1.26-.63,2.53-.81,3.81h-41.09l-6.8-66.41h55.12Z"/><path class="cls-7" d="M280.38,659.06c.29-3.86,.25-7.75,.98-11.53-9.33-9.47-23.06-15.46-38.37-15.46-17.7,0-33.29,8-42.41,20.15-.2,.56-.37,1.1-.53,1.58-.88,2.7-1.63,5.53-2,8.4-.62,4.93-1.39,9.96-2.09,14.95h82.41c-.15-.44-.2-.93-.11-1.48,.91-5.48,1.68-11.05,2.1-16.6Z"/></g><path class="cls-8" d="M196.9,670.63c-.37,2.53-.74,5.07-1.08,7.6h83.83v-7.6h-82.75Z"/></g><path class="cls-6" d="M406.27,336.81l-49.6-37.28c-2.96-2.23-3.86-6.95-2-10.48l14.68-27.84c1.87-3.54,5.82-4.61,8.78-2.38l49.6,37.28c2.96,2.23,3.86,6.95,2,10.48l-14.68,27.84c-1.87,3.54-5.82,4.61-8.78,2.38Z"/><rect class="cls-6" x="180.98" y="257.92" width="71.35" height="48.11" rx="10.82" ry="10.82"/><ellipse class="cls-4" cx="437.97" cy="458.41" rx="20.24" ry="17.92"/><ellipse class="cls-4" cx="73.6" cy="214.58" rx="21.09" ry="17.2" transform="translate(-117.58 92.46) rotate(-38.5)"/><rect class="cls-9" x="66.09" y="162.99" width="15.01" height="516.99"/><rect class="cls-10" x="3.77" y="150.91" width="140.11" height="23.98" rx="5.4" ry="5.4"/><rect class="cls-10" x="-26.75" y="110.96" width="89.69" height="14.1" rx="3.15" ry="3.15" transform="translate(-99.92 136.11) rotate(-90)"/><rect class="cls-10" x="11.01" y="112.59" width="89.69" height="14.1" rx="3.15" ry="3.15" transform="translate(-63.79 175.5) rotate(-90)"/><rect class="cls-10" x="85.16" y="112.59" width="89.69" height="14.1" rx="3.15" ry="3.15" transform="translate(10.36 249.65) rotate(-90)"/><rect class="cls-10" x="49.22" y="111.51" width="89.69" height="14.1" rx="3.15" ry="3.15" transform="translate(-24.49 212.62) rotate(-90)"/><rect class="cls-10" x="51.3" y="172.09" width="44.98" height="23.71" rx="5.29" ry="5.29" transform="translate(-110.15 257.74) rotate(-90)"/></svg>