<?xml version="1.0" encoding="UTF-8"?><svg id="Layer_1" xmlns="http://www.w3.org/2000/svg" viewBox="0 0 200 250"><defs><style>.cls-1{fill:#faaf3b;}.cls-2{fill:#fff;}.cls-3{fill:#4d4d4d;}</style></defs><g><polygon class="cls-1" points="102.59 161.88 132.79 232.95 137.3 230.68 107.09 159.61 102.59 161.88"/><polygon class="cls-1" points="83.64 164 113.85 235.07 118.36 232.8 88.15 161.72 83.64 164"/></g><polygon class="cls-1" points="168.09 67.59 164.88 83.29 161.66 99 174.33 94.57 187 90.14 177.55 78.86 168.09 67.59"/><path class="cls-3" d="M59.68,132.83c3.96-10.75,12.23-25.78,22.25-40.15,1.14-1.03,2.2-2.21,2.83-3.77,.06-.14,.1-.28,.15-.42,3.71-5.09,7.6-10.03,11.58-14.59,.29-.18,.57-.45,.83-.85,.07-.11,.14-.23,.22-.34,14.98-16.91,30.88-28.24,41.43-21.89,22.2,13.35,12.33,99.87,1.11,130.35-11.22,30.48-38.31,44.37-60.52,31.02s-31.1-48.88-19.88-79.36Z"/><path class="cls-3" d="M85.37,85.47c-.02-.92-.17-1.84-.4-2.74,.05-1.46,.05-2.91-.07-4.37,.1-3.21,.37-6.42,.49-9.63,.25-6.63,.91-13.16,1.58-19.73,2.97-11.69,4.56-17.92,4.56-17.92,8.96-21.12,13.12-26.81,14.96-26.01,2.7,1.17-1.05,15.64,4.13,20.3,3.85,3.46,10.99,.03,18.06-5.07,3.21,.75,29.8,7.49,37.61,33.89,.64,2.15,1.98,8.14,1.98,15.9,0,29.25-19.26,52.97-43.01,52.97-18.51,0-34.25-14.41-40.31-34.61,.2-.6,.33-1.21,.39-1.82,.05-.38,.06-.76,.04-1.15Z"/><path class="cls-3" d="M26,192.2l27.98-12.43,28.01-12.44c4.73,16.09-3.97,34.7-19.43,41.57-15.46,6.87-31.82-.61-36.55-16.7Z"/><ellipse cx="150.33" cy="60.26" rx="7.74" ry="9.51"/><path class="cls-1" d="M146.17,240.07s-3.29-2.35-8.56-.93-6.95,5.1-6.95,5.1c-2.04-7.61-.23-14.71,4.05-15.86,4.28-1.15,9.41,4.08,11.46,11.69Z"/><path class="cls-1" d="M126.43,242.81s-2.57-3.12-8.03-3.12-8.03,3.12-8.03,3.12c0-7.88,3.59-14.26,8.03-14.26,4.43,0,8.03,6.39,8.03,14.26Z"/><path class="cls-2" d="M130.44,116.87s-26.58-19.66-14.42-55.14c12.16-35.48,42.18-25.85,42.18-25.85-19.69-10.21-41.87-.35-49.54,22.02s2.08,48.77,21.77,58.97Z"/></svg>