<?xml version="1.0" encoding="UTF-8"?><svg id="Layer_1" xmlns="http://www.w3.org/2000/svg" viewBox="0 0 500 310"><defs><style>.cls-1{fill:#006837;}.cls-2{fill:none;stroke:#006837;stroke-miterlimit:10;stroke-width:4px;}</style></defs><g><path class="cls-1" d="M170.91,172.27c.57,.64,1.14,1.34,1.14,2.23,0,1.53-2.13,3.13-5.15,3.13s-4.99-1.28-4.99-3.32c0-.83,.49-1.66,1.15-2.3v-30.25c-.82-.45-.98-1.21-.98-1.85,0-2.3,2.62-3.77,5.72-3.77s4.42,1.79,4.42,3.45c0,.83-.49,1.85-1.31,2.55v30.13Z"/><path class="cls-1" d="M182.69,141.25c-.41-.51-.65-1.28-.65-1.92,0-1.6,1.39-3.19,4.5-3.19,3.43,0,4.42,.83,4.42,2.43,0,1.34,1.39,3.89,3.03,6.25,2.29,3.19,6.87,7.85,11.29,11.49,3.93,3.25,7.61,6.83,8.83,8.81h.16c-.25-8.23-.25-16.53-.25-25.08-.16-.38-.82-1.02-.82-1.72,0-2.11,1.96-2.87,3.93-2.87,2.29,0,4.83,.83,4.83,2.43,0,1.02-.41,1.6-.65,2.04v33.83c.41,.38,.98,.89,.98,1.72,0,1.6-1.15,2.17-4.5,2.17-2.54,0-3.6-1.6-4.58-3.45-1.96-3.32-7.93-9.51-11.86-12.77-4.99-4.15-9.65-8.94-11.45-12.06h-.16c.16,7.66,.25,15.57,.25,23.49,.33,.38,.82,1.08,.82,1.92,0,1.92-1.23,2.87-4.01,2.87s-5.07-.77-5.07-3.06c0-.57,.57-1.4,.98-1.72v-31.59Z"/><path class="cls-1" d="M241.01,172.4c.49,.45,1.06,1.28,1.06,2.42,0,1.92-2.62,2.94-5.56,2.94-3.19-.06-4.74-.89-4.74-2.81,0-1.4,.57-2.43,1.39-3.13v-11.55c-.9-.7-1.39-1.91-1.39-2.94,0-.96,.65-2.49,1.39-3.13v-9.51c-.65-.19-1.64-1.66-1.64-2.81,0-1.21,.49-2.3,1.64-2.43-.16-2.11,2.7-3.13,5.15-3.13,2.04,0,3.44,.89,2.78,2.17l18.73-2.11c1.23-.13,1.88-.7,3.03-.7,2.54,0,4.58,1.02,4.5,2.74,0,2.94-1.23,3.89-4.42,3.89-1.15,0-2.04-.19-3.03-.57l-18.89,2.17v10.08l17.5-1.98c.65-.45,1.8-.83,3.52-.83,1.55,0,3.03,1.85,3.03,3.13,0,2.74-1.23,3.57-3.93,3.57-.98,0-1.88-.06-2.86-.38l-17.26,1.92v12.96Z"/><path class="cls-1" d="M316.91,154.08c0,13.98-12.51,24.38-27.81,24.38-13.25,0-17.5-9.64-17.5-16.72,0-12.77,12.68-27.45,27.07-27.45,9.41,0,18.24,5.36,18.24,19.79Zm-37.13,6.89c0,5.87,2.94,12.38,10.8,12.38,8.91,0,18.16-8.04,18.16-19.08,0-9.96-4.17-14.87-10.96-14.87-8.51,0-17.99,11.62-17.99,21.57Z"/></g><path class="cls-2" d="M341.25,99.72c23.74,16.84,113.2-20.13,116.53-15.51,3.3,4.58-89.38,34.41-83.55,52.73,6.14,19.28,118.94,18.24,118.73,21.71-.19,3.23-97.43-5.57-109.94,15.51-13.01,21.93,71.17,67.09,65.96,71.34-4.7,3.84-66.45-38.62-92.35-27.92-27.72,11.46,3.37,76.52-13.19,80.65-15.66,3.9-52.32-52.08-68.16-48.08-14.45,3.65,.85,54.09-8.79,55.83-10.91,1.97-32.19-62.2-61.56-62.03-25.82,.15-44.09,49.92-52.77,48.08-8.75-1.86,16.8-51.05-6.6-63.59-26.53-14.22-100.1,27.24-107.74,20.16-7.58-7.02,67.21-45.5,54.97-66.69-10.94-18.93-85.11-13.19-85.75-20.16-.7-7.7,90.07-12.24,92.35-27.92,2.17-14.93-77.21-31.65-74.76-37.22,2.65-6,92.81,17.61,112.14-1.55,17.7-17.55-33.17-61.94-24.19-66.69,9.09-4.8,54.81,43.9,90.15,37.22C237.96,58.94,242.62,1.06,255.5,2.01c12.15,.9,5.36,52.16,28.58,57.38,23.33,5.25,60.05-39.76,70.36-35.67,11.51,4.56-35.54,60.14-13.19,75.99Z"/></svg>