<?xml version="1.0" encoding="UTF-8"?><svg id="Layer_1" xmlns="http://www.w3.org/2000/svg" viewBox="0 0 170 50"><path d="M8.81,33.03V16.89c-.93-.09-1.68-.7-1.68-1.89s.75-1.89,1.68-2.33v-1.58c-.23-.26-.35-.75-.35-1.18,0-1.1,1.86-1.89,3.02-1.89,2.15,0,3.25,.88,2.84,2.24v.48c3.25-1.23,7.2-2.9,13.69-2.9,5.4,0,8.12,1.8,8.12,4.65,0,4.83-8.82,10.27-21.76,11.8v8.95c.23,.26,.64,.7,.64,1.14,0,1.58-.7,1.93-3.95,1.93-1.97,0-2.96-.88-2.96-1.89,0-.57,.17-.92,.7-1.4Zm5.57-12.37c10.16-1.14,16.02-4.65,15.96-7.19,0-.96-1.33-1.84-4.12-1.84-3.66,0-7.37,.92-11.84,2.98v6.05Z"/><path d="M71.19,20.13c0,9.61-8.88,16.76-19.73,16.76-9.4,0-12.42-6.62-12.42-11.49,0-8.77,9-18.86,19.21-18.86,6.67,0,12.94,3.68,12.94,13.6Zm-26.35,4.74c0,4.04,2.09,8.51,7.66,8.51,6.33,0,12.88-5.53,12.88-13.12,0-6.84-2.96-10.22-7.78-10.22-6.04,0-12.77,7.98-12.77,14.83Z"/><path d="M83.2,32.64c.41,.44,.81,.92,.81,1.54,0,1.05-1.51,2.15-3.66,2.15s-3.54-.88-3.54-2.28c0-.57,.35-1.14,.81-1.58V11.67c-.58-.31-.7-.83-.7-1.27,0-1.58,1.86-2.59,4.06-2.59s3.13,1.23,3.13,2.37c0,.57-.35,1.27-.93,1.75v20.71Z"/><path d="M91.56,11.32c-.29-.35-.46-.88-.46-1.32,0-1.1,.99-2.19,3.19-2.19,2.44,0,3.13,.57,3.13,1.67,0,.92,.99,2.68,2.15,4.3,1.62,2.19,4.87,5.4,8.01,7.9,2.79,2.24,5.4,4.69,6.27,6.05h.12c-.17-5.66-.17-11.36-.17-17.24-.12-.26-.58-.7-.58-1.18,0-1.45,1.39-1.97,2.79-1.97,1.62,0,3.42,.57,3.42,1.67,0,.7-.29,1.1-.46,1.4v23.25c.29,.26,.7,.61,.7,1.18,0,1.1-.81,1.49-3.19,1.49-1.8,0-2.55-1.1-3.25-2.37-1.39-2.28-5.63-6.54-8.41-8.77-3.54-2.85-6.85-6.14-8.12-8.29h-.12c.12,5.26,.17,10.7,.17,16.14,.23,.26,.58,.75,.58,1.32,0,1.32-.87,1.97-2.84,1.97s-3.6-.53-3.6-2.11c0-.39,.41-.96,.7-1.18V11.32Z"/><path d="M140.42,33.12c.17,.22,.52,.61,.52,1.1,0,1.18-1.04,2.11-3.83,2.11-1.74,0-2.61-.57-2.61-1.84,0-.61,.12-1.18,.35-1.54V12.68l-6.79,1.01c-.46,.22-1.1,.44-1.8,.44-1.62,0-2.67-.75-2.67-1.93,0-1.27,1.1-2.24,2.38-2.24,.99,0,1.28,.13,1.68,.31l7.72-1.14c.81-.75,3.19-1.01,4.18-.57l8.76-1.18c.64-.22,1.1-.31,1.8-.31,1.51,0,2.55,.75,2.55,2.06,0,1.1-.93,2.11-2.5,2.11-.81,0-1.33-.17-1.8-.35l-7.95,1.14v21.1Z"/><path d="M161.54,20.97c0,1.58-1.39,2.98-3.42,2.98-2.21,0-2.96-1.75-2.96-2.59,0-1.4,1.1-3.16,3.77-3.16,1.86,0,2.61,1.62,2.61,2.76Zm-6.33,13.2c0-2.11,1.92-3.38,3.95-3.38,.81,0,2.44,.48,2.44,2.11,0,2.02-1.92,3.55-3.66,3.55s-2.73-.75-2.73-2.28Z"/></svg>