<?xml version="1.0" encoding="UTF-8"?><svg id="Layer_1" xmlns="http://www.w3.org/2000/svg" viewBox="0 0 1220 200"><defs><style>.cls-1{fill:#faaf3b;}.cls-2{fill:#006837;}.cls-3{fill:#ec1c24;}.cls-4{fill:red;}.cls-5{fill:#d8df21;}.cls-6{fill:#c0272d;}.cls-7{fill:#534741;}.cls-8{fill:#7ac843;}.cls-9{fill:#e5e5e5;opacity:.85;}</style></defs><g><path class="cls-4" d="M1081.51,168.25c-.2,.88-.54,1.67-.98,2.39-.3,.49-1.51,2.43-4.66,4.55-1.64,1.1-3.8,2.55-7.63,3.64-4.34,1.23-8.36,1.28-11.35,1.32-3.22,.04-9.31,.13-15.1-1.82-3.44-1.15-5.44-2.57-6.7-3.47-2.74-1.95-3.84-3.68-4.1-4.11-.46-.75-.83-1.58-1.03-2.5-.06-.3-1.02-5.28,4.27-9.18,.84-.62,2.64-1.92,5.74-2.72,.3-.08,.53-.13,.6-.15,3.32-.75,6.34-.42,7.36-.31,4.75,.55,4.58,1.99,7.74,2.02,3.04,.03,3.34-1.29,7.73-1.95,1.24-.18,4.73-.68,8.38,.21,4.09,1,6.13,3.17,7.18,4.3,1.14,1.22,3.38,4.11,2.57,7.77Z"/><path class="cls-7" d="M1058.56,160.75h-3.42c-.74-3.44-1.48-6.89-2.22-10.33l5.65-2.42v12.75Z"/><path class="cls-9" d="M1037.17,163.16c-2.22,.18-1.91-1.35,1.43-2.93,5.29-2.49,9.53-2.3,10.48-1.51,1.15,.96-1.88,3.39-5.87,2.65-1.76-.32-4.21,1.63-6.04,1.78Z"/><g><path class="cls-2" d="M1075.53,148.7c-1.32-.03-2.47,.05-3.34,.13-1.36,.13-2.45,.33-3.36,.5-.81,.15-1.49,.3-2,.42,.96-.21,1.99-.44,2-.42,0,.03-2.76,.53-4.98,1.39-1.98,.77-4.48,2.2-6.77,5.1,2.94-.97,6.09-2.09,9.39-3.36,3.28-1.27,6.3-2.53,9.06-3.76Z"/><path class="cls-2" d="M1057.12,155.73c1.32,.03,2.47-.05,3.34-.13,1.36-.13,2.45-.33,3.36-.5,.81-.15,1.49-.3,2-.42-.96,.21-1.99,.44-2,.42,0-.03,2.76-.53,4.98-1.39,1.98-.77,4.48-2.2,6.77-5.1-2.94,.97-6.09,2.09-9.39,3.36-3.28,1.27-6.3,2.53-9.06,3.76Z"/></g></g><g><path class="cls-6" d="M918.72,33.71c-.19,.99-.52,1.88-.95,2.68-.29,.55-1.46,2.73-4.49,5.11-1.58,1.23-3.66,2.87-7.35,4.08-4.18,1.38-8.05,1.44-10.93,1.48-3.1,.05-8.97,.14-14.55-2.04-3.31-1.3-5.24-2.89-6.45-3.89-2.64-2.19-3.7-4.13-3.95-4.61-.44-.84-.8-1.77-.99-2.81-.06-.33-.98-5.92,4.11-10.3,.81-.7,2.55-2.16,5.53-3.06,.29-.09,.51-.15,.58-.16,3.2-.84,6.11-.48,7.09-.34,4.58,.62,4.41,2.23,7.46,2.27,2.92,.04,3.22-1.45,7.45-2.18,1.2-.21,4.55-.77,8.07,.24,3.94,1.13,5.9,3.56,6.92,4.82,1.1,1.37,3.26,4.61,2.47,8.72Z"/><path class="cls-7" d="M896.62,25.3h-3.3c-.71-3.86-1.43-7.72-2.14-11.58l5.44-2.71v14.3Z"/><path class="cls-9" d="M876.02,28c-2.14,.2-1.84-1.51,1.38-3.28,5.09-2.8,9.18-2.58,10.09-1.69,1.11,1.08-1.81,3.8-5.65,2.98-1.7-.36-4.06,1.83-5.82,2Z"/><g><path class="cls-2" d="M912.96,11.79c-1.28-.03-2.38,.05-3.22,.15-1.31,.15-2.36,.37-3.23,.56-.78,.17-1.44,.34-1.93,.47,.92-.24,1.92-.49,1.93-.47,0,.04-2.66,.6-4.79,1.56-1.91,.86-4.31,2.47-6.52,5.72,2.83-1.09,5.86-2.34,9.04-3.77,3.15-1.42,6.07-2.84,8.72-4.22Z"/><path class="cls-2" d="M895.23,19.68c1.28,.03,2.38-.05,3.22-.15,1.31-.15,2.36-.37,3.23-.56,.78-.17,1.44-.34,1.93-.47-.92,.24-1.92,.49-1.93,.47,0-.04,2.66-.6,4.79-1.56,1.91-.86,4.31-2.47,6.52-5.72-2.83,1.09-5.86,2.34-9.04,3.77-3.15,1.42-6.07,2.84-8.72,4.22Z"/></g></g><g><path class="cls-5" d="M1210.02,39.88c-.17,.83-.46,1.58-.84,2.26-.26,.47-1.29,2.3-3.98,4.31-1.39,1.04-3.24,2.42-6.51,3.44-3.7,1.16-7.13,1.21-9.68,1.25-2.75,.04-7.94,.12-12.88-1.72-2.93-1.09-4.64-2.44-5.72-3.29-2.34-1.84-3.27-3.48-3.5-3.89-.39-.71-.7-1.49-.88-2.37-.05-.28-.87-5,3.64-8.69,.72-.59,2.25-1.82,4.89-2.58,.25-.07,.45-.12,.51-.14,2.83-.71,5.41-.4,6.28-.29,4.05,.52,3.91,1.88,6.6,1.91,2.59,.03,2.85-1.22,6.59-1.84,1.06-.17,4.03-.65,7.15,.2,3.49,.95,5.23,3,6.13,4.07,.97,1.15,2.89,3.89,2.19,7.35Z"/><path class="cls-7" d="M1190.44,32.78h-2.92c-.63-3.26-1.26-6.51-1.9-9.77l4.81-2.29v12.06Z"/><path class="cls-9" d="M1172.2,35.06c-1.89,.17-1.63-1.28,1.22-2.77,4.51-2.36,8.13-2.18,8.94-1.43,.98,.91-1.6,3.21-5.01,2.51-1.51-.31-3.59,1.55-5.16,1.69Z"/><g><path class="cls-2" d="M1204.91,21.38c-1.13-.03-2.11,.04-2.85,.12-1.16,.13-2.09,.32-2.86,.48-.69,.14-1.27,.28-1.7,.39,.82-.2,1.7-.41,1.7-.39,0,.03-2.35,.5-4.24,1.32-1.69,.73-3.82,2.08-5.78,4.83,2.51-.92,5.19-1.98,8.01-3.18,2.79-1.2,5.37-2.4,7.73-3.56Z"/><path class="cls-2" d="M1189.21,28.04c1.13,.03,2.11-.04,2.85-.12,1.16-.13,2.09-.32,2.86-.48,.69-.14,1.27-.28,1.7-.39-.82,.2-1.7,.41-1.7,.39,0-.03,2.35-.5,4.24-1.32,1.69-.73,3.82-2.08,5.78-4.83-2.51,.92-5.19,1.98-8.01,3.18-2.79,1.2-5.37,2.4-7.73,3.56Z"/></g></g><g><path class="cls-1" d="M64.03,37.68c-.21,.95-.59,1.8-1.07,2.57-.33,.53-1.64,2.61-5.07,4.89-1.78,1.18-4.13,2.74-8.3,3.91-4.72,1.32-9.09,1.38-12.35,1.42-3.51,.05-10.12,.14-16.43-1.95-3.74-1.24-5.91-2.76-7.29-3.73-2.98-2.09-4.18-3.95-4.46-4.41-.5-.8-.9-1.69-1.12-2.69-.07-.32-1.1-5.67,4.64-9.86,.92-.67,2.87-2.06,6.24-2.93,.32-.08,.57-.14,.65-.16,3.61-.81,6.9-.46,8-.33,5.17,.59,4.98,2.14,8.42,2.17,3.3,.03,3.64-1.39,8.41-2.09,1.35-.2,5.14-.73,9.11,.23,4.45,1.08,6.66,3.41,7.81,4.62,1.24,1.31,3.68,4.41,2.79,8.34Z"/><path class="cls-7" d="M39.07,29.63h-3.72c-.81-3.7-1.61-7.39-2.42-11.09,2.05-.87,4.09-1.73,6.14-2.6v13.68Z"/><path class="cls-9" d="M15.81,32.22c-2.42,.19-2.08-1.45,1.56-3.14,5.75-2.68,10.36-2.47,11.4-1.62,1.25,1.03-2.04,3.64-6.38,2.85-1.92-.35-4.58,1.75-6.57,1.91Z"/><g><path class="cls-2" d="M57.53,16.7c-1.44-.03-2.69,.05-3.63,.14-1.48,.14-2.66,.36-3.65,.54-.88,.16-1.62,.32-2.17,.45,1.04-.23,2.17-.47,2.17-.45,0,.04-3,.57-5.41,1.5-2.15,.83-4.87,2.36-7.37,5.47,3.2-1.04,6.62-2.24,10.21-3.61,3.56-1.36,6.85-2.72,9.85-4.04Z"/><path class="cls-2" d="M37.5,24.25c1.44,.03,2.69-.05,3.63-.14,1.48-.14,2.66-.36,3.65-.54,.88-.16,1.62-.32,2.17-.45-1.04,.23-2.17,.47-2.17,.45,0-.04,3-.57,5.41-1.5,2.15-.83,4.87-2.36,7.37-5.47-3.2,1.04-6.62,2.24-10.21,3.61-3.56,1.36-6.85,2.72-9.85,4.04Z"/></g></g><path class="cls-4" d="M66.55,132.77c-4.51-1.3-8.1-3.14-10.77-5.52-2.67-2.38-4-5.1-4-8.15,0-2.15,.63-3.99,1.88-5.52,1.25-1.53,2.86-2.29,4.81-2.29,1.3,0,2.66,.4,4.08,1.21,2.83,2.15,6.42,3.93,10.77,5.32,4.35,1.39,8.86,2.09,13.54,2.09,6.52,0,11.8-1.08,15.82-3.23,4.02-2.16,6.03-4.98,6.03-8.49,0-3.14-1.66-5.5-4.97-7.07-3.32-1.57-8.84-3.12-16.56-4.65-9.46-1.89-16.88-4.33-22.27-7.34-5.38-3.01-8.07-7.61-8.07-13.81,0-4.76,1.68-9.4,5.06-13.94,3.37-4.53,8.21-8.26,14.52-11.18,6.31-2.92,13.54-4.38,21.69-4.38,7.39,0,13.59,1.01,18.6,3.03,5,2.02,7.5,4.69,7.5,8.01,0,1.71-.57,3.23-1.71,4.58-1.14,1.35-2.53,2.42-4.16,3.23-1.63,.81-3.1,1.21-4.4,1.21-1.09,0-2.56-.4-4.4-1.21-3.05-1.35-6.42-2.4-10.11-3.17-3.7-.76-7.01-1.14-9.95-1.14-5.22,0-9.52,.94-12.89,2.83-3.37,1.89-5.06,4.17-5.06,6.87,0,2.88,2.09,5.28,6.28,7.21,4.18,1.93,11.72,3.97,22.59,6.13,7.94,1.8,13.84,4.15,17.7,7.07,3.86,2.92,5.79,7.25,5.79,13s-1.79,10.62-5.38,15.42c-3.59,4.8-8.59,8.64-15.01,11.52-6.42,2.87-13.76,4.31-22.02,4.31-5.44,0-10.41-.65-14.92-1.95Z"/><path class="cls-8" d="M216.18,148.37c-3.63-1.51-8.21-4.52-13.76-9.02-5.55-4.5-10.11-8.79-13.7-12.88-.14,2.01-.54,3.43-1.21,4.26-.67,.83-1.99,1.54-3.97,2.11-8.72,2.52-18.85,5.26-30.38,8.2,1.8,3.42,3.65,6.48,5.55,9.18,1.32,1.88,3.33,4.41,6.03,7.56,1.91,2.21,2.13,4.36,.68,6.45-1.45,2.09-4.06,3.69-7.83,4.78-1.69,.49-3.09,.57-4.2,.26s-2.11-1.09-2.97-2.32c-.98-1.39-2-3.61-3.06-6.65-1.61-4.16-2.96-7.02-4.06-8.58-1.61-2.29-3.54-3.6-5.8-3.93-1.85-.25-3.14-.91-3.89-1.98-1.03-1.47-1.73-3.49-2.1-6.04s-.16-4.39,.61-5.5c1.03-1.08,2.79-2.14,5.3-3.16-3.98-15.69-4.8-28.62-2.47-38.8,2.33-10.18,7.71-16.49,16.14-18.93,3.47-1,6.69-.75,9.65,.75,2.96,1.51,6,4.47,9.11,8.89l3.88,5.52c5.58,7.94,11.54,15.2,17.89,21.78,6.35,6.58,12.28,11.84,17.78,15.76,5.4,3.95,11.07,6.84,17,8.67,1.77,.48,3.05,.94,3.85,1.4,.8,.46,1.46,1.06,1.98,1.79,1.32,1.88,1.35,4.04,.08,6.48-1.27,2.44-3.3,4.06-6.07,4.86-3.07,.89-6.42,.58-10.05-.93Zm-45.95-28.36l10.41-3.01c-4.06-4.93-7.87-9.93-11.44-15.01l-5-7.12c-1.61-2.29-3.02-3.75-4.24-4.39-1.22-.63-2.72-.69-4.51-.17-4.86,1.41-7.88,5.43-9.05,12.08-1.18,6.64-.43,14.85,2.25,24.61,10.42-3.51,17.61-5.83,21.58-6.98Z"/><path class="cls-2" d="M218.31,127.3c-1.96-2.07-3.1-5.57-3.43-10.51-.55-11.31-2.18-21.5-4.89-30.57-2.07-7.27-4.68-13.6-7.83-18.99-3.16-5.39-7.29-9.79-12.4-13.2-.98-.72-1.71-1.37-2.2-1.95-.49-.58-.73-1.28-.73-2.09,0-1.97,1.25-3.86,3.75-5.66,2.5-1.8,5.33-2.69,8.48-2.69,3.59,0,6.77,1.26,9.54,3.77,2.77,2.51,5.3,6.2,7.58,11.04,3.48,7,6.12,14.97,7.91,23.91,1.79,8.94,2.8,17.98,3.02,27.14,.11,2.42,.54,4.09,1.3,4.98,.76,.9,2.06,1.35,3.91,1.35,5.11,0,10.14-2.18,15.09-6.53,4.95-4.35,9-10.08,12.15-17.17,3.15-7.09,4.73-14.5,4.73-22.22,0-6.02-.98-10.82-2.94-14.41-.98-1.71-1.47-3.14-1.47-4.31,0-1.89,1.52-3.66,4.57-5.32,3.04-1.66,5.87-2.49,8.48-2.49,2.83,0,4.73,1.19,5.71,3.57,.98,2.38,1.47,5.5,1.47,9.36,0,10.51-2.39,21.75-7.18,33.74-4.79,11.99-11.28,22.04-19.49,30.17-8.21,8.13-17.05,12.19-26.51,12.19-3.81,0-6.69-1.03-8.64-3.1Z"/><path class="cls-4" d="M292.46,159.72c-4.73-2.83-7.1-7.92-7.1-15.29,0-3.14,.54-7.59,1.63-13.33,.98-4.58,1.66-8.57,2.04-11.99,.38-3.41,.57-7.14,.57-11.18,0-5.66-.38-10.64-1.14-14.95l-3.26,.4c-.87,0-1.47-.16-1.79-.47-.33-.31-.49-.92-.49-1.82,0-1.89,.27-3.75,.82-5.59,.54-1.84,1.3-3.34,2.28-4.51,1.85-2.15,4.67-3.41,8.48-3.77,4.46-.45,10.3-.83,17.54-1.15,7.23-.31,13.46-.47,18.68-.47,10,0,15.93,.18,17.78,.54,1.52,.18,2.61,.56,3.26,1.14,.65,.59,.98,1.46,.98,2.63,0,2.69-1.14,5.16-3.42,7.41-1.3,1.44-2.56,2.42-3.75,2.96-1.2,.54-2.83,.76-4.89,.67-8.05-.45-14.74-.67-20.06-.67-5.77,0-11.04,.18-15.82,.54,0,6.11-.6,13.24-1.79,21.42,9.89-.54,21.15-.81,33.76-.81,2.28,0,3.81,.2,4.57,.61,.76,.4,1.14,1.33,1.14,2.76,0,1.53-.46,3.17-1.39,4.92-.93,1.75-2.15,3.21-3.67,4.38-.76,.63-1.52,1.08-2.28,1.35-.76,.27-1.74,.36-2.93,.27-7.07-.27-15.12-.4-24.14-.4h-7.34c-.87,4.49-1.3,7.9-1.3,10.24,0,4.85,1.52,8.28,4.57,10.3,3.04,2.02,8.05,3.03,15.01,3.03,4.46,0,8.65-.34,12.56-1.01,3.91-.67,7.88-1.82,11.91-3.43,1.52-.72,2.66-1.08,3.43-1.08,1.19,0,2.37,.7,3.51,2.09,1.14,1.39,1.71,2.9,1.71,4.51,0,1.98-.87,3.82-2.61,5.52-1.74,1.71-4.13,3.23-7.18,4.58-3.26,1.26-7.23,2.22-11.91,2.9-4.68,.67-9.57,1.01-14.68,1.01-10.77,0-18.51-1.41-23.24-4.24Z"/><path class="cls-8" d="M445.51,127.68c-1.45-1.28-1.99-3.79-1.6-7.56,.38-3.76,1.64-9.24,3.79-16.44,3.19-11.11,5.22-20.88,6.07-29.31,.81-7.97,.55-14.06-.77-18.25-8.48-.17-16.21,.32-23.2,1.46-2.64,.25-4.18,.37-4.61,.35-1.09-.05-1.8-.26-2.14-.63-.35-.37-.46-1.14-.34-2.31,.15-1.52,.61-3.1,1.38-4.73,.76-1.63,1.69-3.01,2.79-4.14,1.95-2.08,4.96-3.26,9.02-3.54,4.81-.16,10.92-.26,18.34-.32,7.41-.05,14.43,.06,21.05,.34,13.78,.57,21.74,1.09,23.87,1.54,1.5,.24,2.52,.67,3.06,1.27,.54,.61,.74,1.54,.62,2.79-.24,2.42-1.79,4.78-4.64,7.1-1.43,1.2-2.74,2.02-3.93,2.47-1.19,.45-2.7,.58-4.54,.42-4.74-.56-11.01-1-18.83-1.33-.64,5.28-2.31,13.09-4.98,23.41-2.5,9.61-4.06,17.47-4.67,23.56-.35,3.49-.26,6.38,.27,8.65,.53,2.27,1.75,4.26,3.65,5.95,1.39,1.32,2.02,2.69,1.87,4.13-.21,2.06-1.78,3.82-4.7,5.27-2.93,1.45-6.5,2.09-10.74,1.92-2.6-.11-4.63-.8-6.08-2.08Z"/><path class="cls-2" d="M491.39,147.96c0-.72,.16-1.66,.49-2.83,2.28-9.43,3.91-18.99,4.89-28.69-1.63,.36-2.94,.54-3.91,.54-1.09,0-1.63-.81-1.63-2.42,0-2.24,.65-4.69,1.96-7.34,1.3-2.65,2.83-4.6,4.57-5.86,0-7.45-.35-13.07-1.06-16.84-.71-3.77-2.2-7.27-4.49-10.51-.98-1.26-1.47-2.2-1.47-2.83,0-1.7,1.52-3.39,4.57-5.05,3.04-1.66,6.03-2.49,8.97-2.49,3.26,0,5.52,1.19,6.77,3.57,1.25,2.38,1.88,5.81,1.88,10.3-.22,4.58-.93,11.94-2.12,22.09,14.57-.72,27.51-1.08,38.82-1.08h12.07v-3.77c0-7.81-1.25-14.68-3.75-20.61-.76-1.53-1.14-2.6-1.14-3.23,0-1.8,1.36-3.46,4.08-4.98,2.72-1.53,5.65-2.29,8.81-2.29s5.35,.97,6.61,2.9c1.25,1.93,1.88,4.83,1.88,8.69,0,4.13-1.04,12.44-3.1,24.92-.87,5.75-1.61,10.87-2.2,15.35-.6,4.49-.9,8.17-.9,11.04,0,5.93,1.85,10.33,5.55,13.2,1.41,1.35,2.12,2.69,2.12,4.04,0,2.07-1.47,3.88-4.4,5.45-2.94,1.57-6.47,2.36-10.6,2.36-2.83,0-4.95-.65-6.36-1.95-1.41-1.3-2.12-3.75-2.12-7.34,0-2.96,.71-8.39,2.12-16.3l.49-3.23c.87-5.66,1.41-9.38,1.63-11.18-.98,.99-1.79,1.66-2.45,2.02-.65,.36-1.52,.49-2.61,.4-8.7-.45-16.42-.67-23.16-.67-7.94,0-15.5,.4-22.67,1.21-.22,1.8-.33,4.09-.33,6.87,0,6.73,.65,14.41,1.96,23.03,.33,2.07-.93,3.79-3.75,5.19-2.83,1.39-6.04,2.09-9.62,2.09-4.24,0-6.36-1.26-6.36-3.77Z"/><path class="cls-3" d="M617.07,107.37c-5.82-1.66-10.54-5.91-14.17-12.75-1.55-2.92-3.23-7.16-5.05-12.72-1.34-4.45-2.68-8.3-4.01-11.55-1.33-3.25-2.99-6.75-4.98-10.5-2.79-5.25-5.6-9.8-8.44-13.65l-2.85,1.04c-.81,.18-1.45,.16-1.91-.07-.46-.22-.91-.75-1.35-1.59-.93-1.75-1.6-3.54-1.99-5.36-.4-1.82-.43-3.37-.09-4.66,.66-2.38,2.69-4.12,6.07-5.24,3.95-1.33,9.22-2.88,15.82-4.65,6.6-1.77,12.35-3.19,17.22-4.26,9.35-2.05,14.98-3.09,16.88-3.14,1.51-.14,2.72-.01,3.61,.4,.9,.41,1.63,1.16,2.21,2.24,1.33,2.5,1.48,5.03,.45,7.58-.51,1.6-1.19,2.77-2.04,3.52-.85,.75-2.27,1.29-4.24,1.63-7.74,1.23-14.1,2.39-19.08,3.48-5.39,1.18-10.23,2.43-14.52,3.74,3.01,5.67,5.97,12.42,8.88,20.26,8.98-2.52,19.37-5.08,31.16-7.66,2.14-.47,3.66-.59,4.57-.37,.91,.22,1.72,1,2.43,2.33,.75,1.42,1.13,3.03,1.13,4.85,0,1.82-.42,3.42-1.27,4.82-.4,.74-.89,1.31-1.47,1.72-.58,.41-1.45,.69-2.61,.85-6.74,1.2-14.33,2.72-22.76,4.56l-6.86,1.5c1.4,4.35,2.68,7.61,3.83,9.77,2.39,4.5,5.51,7.38,9.35,8.63,3.84,1.25,9.02,1.17,15.52-.25,4.17-.91,7.91-2.08,11.24-3.51,3.33-1.43,6.47-3.3,9.44-5.62,1.07-.98,1.96-1.55,2.67-1.7,1.12-.24,2.55,.16,4.31,1.22,1.75,1.06,3.03,2.34,3.83,3.84,.97,1.84,1.07,3.72,.28,5.66-.78,1.94-2.27,3.85-4.45,5.72-2.43,1.84-5.66,3.54-9.7,5.12-4.04,1.58-8.45,2.89-13.22,3.94-10.06,2.2-18,2.47-23.82,.81Z"/><path class="cls-8" d="M813.86,128.07c-1.97-2.47-3.61-6.54-4.92-12.22-1.32-5.68-1.94-10.86-1.87-15.55-1.68,1.7-3.14,2.8-4.36,3.31-1.23,.51-2.92,.7-5.09,.56-9.52-.6-20.43-1.47-32.71-2.61-1.09,3.54-1.86,6.78-2.31,9.73-.32,2.06-.53,4.89-.65,8.48-.06,2.52-1.53,4.46-4.42,5.81-2.89,1.35-6.38,1.9-10.5,1.64-1.84-.12-3.12-.49-3.84-1.12s-.98-1.62-.78-2.96c.23-1.52,1.07-3.77,2.51-6.74,1.84-4.12,2.88-7.03,3.15-8.73,.38-2.5-.28-4.26-1.98-5.27-1.41-.81-2.02-1.8-1.84-2.96,.25-1.61,1.2-3.58,2.87-5.91,1.67-2.33,3.27-3.85,4.8-4.57,1.73-.61,4.08-.96,7.04-1.04,8.73-14.88,18.06-26.35,27.99-34.43,9.93-8.08,19.49-11.83,28.69-11.24,3.79,.24,6.38,1.49,7.78,3.74,1.4,2.25,1.73,5.79,.99,10.62l-.93,6.03c-1.33,8.67-1.8,16.87-1.4,24.61,.39,7.74,1.45,14.19,3.17,19.35,1.61,5.16,4.28,9.47,8.01,12.96,1.16,.98,1.91,1.79,2.25,2.44,.34,.65,.44,1.38,.32,2.19-.32,2.06-1.97,3.94-4.96,5.64-3,1.71-6.01,2.46-9.04,2.27-3.36-.21-6.02-1.56-7.99-4.02Zm-17.81-39.29l11.36,.72c.31-5.57,.89-11.13,1.74-16.67l1.19-7.78c.38-2.5,.29-4.22-.27-5.16-.57-.94-1.82-1.47-3.77-1.59-5.3-.34-11.05,2.19-17.23,7.57-6.18,5.38-11.9,12.74-17.16,22.06,11.76,.29,19.8,.58,24.13,.85Z"/><path class="cls-2" d="M838.48,150.22c-1.58-1.21-2.37-3.7-2.37-7.48s.87-10.24,2.61-19.66c1.74-9.61,2.61-18.41,2.61-26.4,0-4.67-.27-8.62-.82-11.85-1.74,.81-3.16,1.21-4.24,1.21-.98,0-1.69-.36-2.12-1.08-.44-.72-.65-1.84-.65-3.37,0-2.78,.76-5.1,2.28-6.94,1.52-1.84,4.19-3.57,7.99-5.19,4.02-1.79,8.62-3.23,13.78-4.31,5.16-1.08,10.3-1.62,15.41-1.62,10.55,0,19,2.29,25.36,6.87,6.36,4.58,9.54,10.69,9.54,18.32,0,6.02-1.93,11.49-5.79,16.43-3.86,4.94-8.73,8.82-14.6,11.65-5.87,2.83-11.64,4.24-17.29,4.24-3.81,0-6.47-.69-7.99-2.09-1.52-1.39-2.28-3.57-2.28-6.53,0-3.59,1.03-5.39,3.1-5.39,.54,0,1.68,.18,3.43,.54,2.17,.45,4.46,.67,6.85,.67,5.98,0,10.85-1.39,14.6-4.17,3.75-2.78,5.63-6.37,5.63-10.78s-2.04-8.06-6.12-10.71c-4.08-2.65-9.44-3.97-16.07-3.97-4.46,0-9.41,.59-14.84,1.75-.33,5.93-1.09,12.66-2.28,20.2-1.63,11.31-2.45,19.71-2.45,25.19,0,3.5,.38,6.38,1.14,8.62,.76,2.24,2.17,4.17,4.24,5.79,1.52,1.26,2.28,2.61,2.28,4.04,0,2.07-1.39,3.88-4.16,5.45-2.77,1.57-6.28,2.36-10.52,2.36-2.61,0-4.71-.61-6.28-1.82Z"/><path class="cls-3" d="M917.04,144.7c-1.58-1.21-2.37-3.7-2.37-7.48s.87-10.24,2.61-19.66c1.74-9.61,2.61-18.41,2.61-26.4,0-4.67-.27-8.62-.82-11.85-1.74,.81-3.16,1.21-4.24,1.21-.98,0-1.69-.36-2.12-1.08-.44-.72-.65-1.84-.65-3.37,0-2.78,.76-5.1,2.28-6.94,1.52-1.84,4.19-3.57,7.99-5.19,4.02-1.79,8.62-3.23,13.78-4.31,5.16-1.08,10.3-1.62,15.41-1.62,10.55,0,19,2.29,25.36,6.87,6.36,4.58,9.54,10.69,9.54,18.32,0,6.02-1.93,11.49-5.79,16.43-3.86,4.94-8.73,8.82-14.6,11.65-5.87,2.83-11.64,4.24-17.29,4.24-3.81,0-6.47-.69-7.99-2.09-1.52-1.39-2.28-3.57-2.28-6.53,0-3.59,1.03-5.39,3.1-5.39,.54,0,1.68,.18,3.43,.54,2.17,.45,4.46,.67,6.85,.67,5.98,0,10.85-1.39,14.6-4.17,3.75-2.78,5.63-6.37,5.63-10.78s-2.04-8.06-6.12-10.71c-4.08-2.65-9.44-3.97-16.07-3.97-4.46,0-9.41,.59-14.84,1.75-.33,5.93-1.09,12.66-2.28,20.2-1.63,11.31-2.45,19.71-2.45,25.19,0,3.5,.38,6.38,1.14,8.62,.76,2.24,2.17,4.17,4.24,5.79,1.52,1.26,2.28,2.61,2.28,4.04,0,2.07-1.39,3.88-4.16,5.45-2.77,1.57-6.28,2.36-10.52,2.36-2.61,0-4.71-.61-6.28-1.82Z"/><path class="cls-8" d="M997.22,126.28c-3.97-2.74-5.95-6.8-5.95-12.19,0-2.42,.54-6.55,1.63-12.39,1.96-9.88,2.94-18.63,2.94-26.26,0-5.84-.3-10.39-.9-13.67-.6-3.28-1.98-6.4-4.16-9.36-1.09-1.44-1.63-2.47-1.63-3.1,0-1.08,.73-2.2,2.2-3.37,1.47-1.17,3.32-2.15,5.55-2.96,2.23-.81,4.32-1.21,6.28-1.21,3.48,0,5.73,1.08,6.77,3.23,1.03,2.15,1.55,5.75,1.55,10.77,0,2.69-.87,10.15-2.61,22.36-1.74,10.87-2.61,18.9-2.61,24.11,0,3.68,.51,6.44,1.55,8.28,1.03,1.84,2.75,3.08,5.14,3.7,2.39,.72,5.76,1.08,10.11,1.08,9.68,0,18.27-1.39,25.77-4.17,1.3-.36,2.17-.54,2.61-.54,1.09,0,2.04,.52,2.86,1.55,.82,1.03,1.22,2.4,1.22,4.11,0,3.95-2.61,7.05-7.83,9.29-6.96,3.23-16.53,4.85-28.71,4.85-10.55,0-17.81-1.37-21.78-4.11Z"/><path class="cls-2" d="M1053.23,103.42c-4.73-2.83-7.1-7.92-7.1-15.29,0-3.14,.54-7.59,1.63-13.33,.98-4.58,1.66-8.57,2.04-11.99,.38-3.41,.57-7.14,.57-11.18,0-5.66-.38-10.64-1.14-14.95l-3.26,.4c-.87,0-1.47-.16-1.79-.47-.33-.31-.49-.92-.49-1.82,0-1.89,.27-3.75,.82-5.59,.54-1.84,1.3-3.34,2.28-4.51,1.85-2.15,4.67-3.41,8.48-3.77,4.46-.45,10.3-.83,17.54-1.15,7.23-.31,13.46-.47,18.68-.47,10,0,15.93,.18,17.78,.54,1.52,.18,2.61,.56,3.26,1.14,.65,.59,.98,1.46,.98,2.63,0,2.69-1.14,5.16-3.42,7.41-1.3,1.44-2.56,2.42-3.75,2.96-1.2,.54-2.83,.76-4.89,.67-8.05-.45-14.74-.67-20.06-.67-5.77,0-11.04,.18-15.82,.54,0,6.11-.6,13.24-1.79,21.42,9.89-.54,21.15-.81,33.76-.81,2.28,0,3.81,.2,4.57,.61,.76,.4,1.14,1.33,1.14,2.76,0,1.53-.46,3.17-1.39,4.92-.93,1.75-2.15,3.21-3.67,4.38-.76,.63-1.52,1.08-2.28,1.35-.76,.27-1.74,.36-2.93,.27-7.07-.27-15.12-.4-24.14-.4h-7.34c-.87,4.49-1.3,7.9-1.3,10.24,0,4.85,1.52,8.28,4.57,10.3,3.04,2.02,8.05,3.03,15.01,3.03,4.46,0,8.65-.34,12.56-1.01,3.91-.67,7.88-1.82,11.91-3.43,1.52-.72,2.66-1.08,3.43-1.08,1.19,0,2.37,.7,3.51,2.09,1.14,1.39,1.71,2.9,1.71,4.51,0,1.98-.87,3.82-2.61,5.52-1.74,1.71-4.13,3.23-7.18,4.58-3.26,1.26-7.23,2.22-11.91,2.9-4.68,.67-9.57,1.01-14.68,1.01-10.77,0-18.51-1.41-23.24-4.24Z"/><path class="cls-3" d="M1114.95,149.85c-4.2-1.68-7.38-3.81-9.52-6.39-2.15-2.59-2.9-5.39-2.27-8.42,.45-2.14,1.45-3.91,3.01-5.31,1.55-1.41,3.31-2.03,5.24-1.86,1.29,.11,2.56,.63,3.79,1.55,2.35,2.38,5.54,4.44,9.57,6.19,4.02,1.75,8.35,2.83,12.99,3.23,6.47,.56,11.92-.06,16.35-1.85,4.43-1.79,7.02-4.42,7.74-7.89,.65-3.11-.5-5.59-3.46-7.43-2.96-1.84-8.11-3.85-15.45-6.02-8.98-2.68-15.83-5.74-20.54-9.18-4.71-3.44-6.42-8.23-5.14-14.37,.99-4.72,3.62-9.18,7.9-13.38,4.28-4.2,9.85-7.48,16.71-9.84,6.85-2.35,14.33-3.18,22.41-2.48,7.33,.63,13.26,2.16,17.8,4.59,4.54,2.43,6.46,5.29,5.77,8.58-.35,1.69-1.24,3.15-2.65,4.39-1.41,1.24-3.01,2.19-4.79,2.85-1.78,.66-3.32,.94-4.62,.82-1.08-.09-2.45-.62-4.11-1.58-2.74-1.6-5.86-2.93-9.37-4-3.51-1.07-6.71-1.73-9.62-1.98-5.17-.45-9.63,.12-13.36,1.7-3.73,1.58-5.88,3.71-6.44,6.38-.6,2.85,.98,5.41,4.73,7.68,3.75,2.27,10.79,4.94,21.12,8.01,7.49,2.46,12.85,5.3,16.07,8.52,3.22,3.22,4.23,7.68,3.04,13.38-1.14,5.43-3.98,10.37-8.54,14.82-4.55,4.45-10.31,7.83-17.26,10.13-6.96,2.3-14.53,3.09-22.72,2.39-5.39-.47-10.19-1.54-14.39-3.21Z"/><g><path class="cls-1" d="M681.95,162.39c-.6,.88-1.31,1.63-2.09,2.29-.54,.46-2.66,2.24-6.91,3.85-2.2,.84-5.12,1.94-9.62,2.35-5.1,.47-9.34-.22-12.49-.74-3.4-.55-9.82-1.59-15.03-4.68-3.09-1.83-4.56-3.67-5.48-4.84-2.01-2.53-2.39-4.52-2.48-5.01-.15-.86-.17-1.78,.04-2.78,.06-.32,1.28-5.65,8.55-8.71,1.16-.49,3.62-1.5,7.23-1.76,.35-.02,.61-.04,.69-.04,3.81-.16,6.84,.74,7.85,1.05,4.74,1.45,3.92,2.91,7.22,3.53,3.17,.6,4.08-.72,8.97-.58,1.38,.04,5.26,.17,8.69,1.77,3.85,1.8,5.02,4.42,5.62,5.78,.66,1.47,1.72,4.88-.76,8.52Z"/><path class="cls-7" d="M661.21,150.37l-3.59-.63c.75-3.7,1.5-7.4,2.25-11.1l6.99-1.46-5.66,13.19Z"/><path class="cls-9" d="M637.72,148.9c-2.41-.23-1.41-1.75,2.8-2.76,6.65-1.6,11.01-.62,11.66,.38,.78,1.21-3.47,3.16-7.33,1.66-1.71-.66-5.15,.91-7.13,.72Z"/><g><path class="cls-2" d="M684.36,141.05c-1.38-.27-2.61-.41-3.56-.48-1.49-.12-2.72-.11-3.74-.1-.92,0-1.7,.03-2.28,.06,1.1-.04,2.29-.08,2.28-.06,0,.04-3.13,.04-5.84,.52-2.42,.43-5.67,1.45-9.37,4.02,3.52-.46,7.31-1.03,11.34-1.74,4-.7,7.73-1.46,11.17-2.22Z"/><path class="cls-2" d="M661.93,144.91c1.38,.27,2.61,.41,3.56,.48,1.49,.12,2.72,.11,3.74,.1,.92,0,1.7-.03,2.28-.06-1.1,.04-2.29,.08-2.28,.06,0-.04,3.13-.04,5.84-.52,2.42-.43,5.67-1.45,9.37-4.02-3.52,.46-7.31,1.03-11.34,1.74-4,.7-7.73,1.46-11.17,2.22Z"/></g></g><g><path class="cls-5" d="M361.05,47.75c-.17,.83-.46,1.58-.84,2.26-.26,.47-1.29,2.3-3.98,4.31-1.39,1.04-3.24,2.42-6.51,3.44-3.7,1.16-7.13,1.21-9.68,1.25-2.75,.04-7.94,.12-12.88-1.72-2.93-1.09-4.64-2.44-5.72-3.29-2.34-1.84-3.27-3.48-3.5-3.89-.39-.71-.7-1.49-.88-2.37-.05-.28-.87-5,3.64-8.69,.72-.59,2.25-1.82,4.89-2.58,.25-.07,.45-.12,.51-.14,2.83-.71,5.41-.4,6.28-.29,4.05,.52,3.91,1.88,6.6,1.91,2.59,.03,2.85-1.22,6.59-1.84,1.06-.17,4.03-.65,7.15,.2,3.49,.95,5.23,3,6.13,4.07,.97,1.15,2.89,3.89,2.19,7.35Z"/><path class="cls-7" d="M341.48,40.65h-2.92c-.63-3.26-1.26-6.51-1.9-9.77l4.81-2.29v12.06Z"/><path class="cls-9" d="M323.24,42.93c-1.89,.17-1.63-1.28,1.22-2.77,4.51-2.36,8.13-2.18,8.94-1.43,.98,.91-1.6,3.21-5.01,2.51-1.51-.31-3.59,1.55-5.16,1.69Z"/><g><path class="cls-2" d="M355.95,29.26c-1.13-.03-2.11,.04-2.85,.12-1.16,.13-2.09,.32-2.86,.48-.69,.14-1.27,.28-1.7,.39,.82-.2,1.7-.41,1.7-.39,0,.03-2.35,.5-4.24,1.32-1.69,.73-3.82,2.08-5.78,4.83,2.51-.92,5.19-1.98,8.01-3.18,2.79-1.2,5.37-2.4,7.73-3.56Z"/><path class="cls-2" d="M340.25,35.91c1.13,.03,2.11-.04,2.85-.12,1.16-.13,2.09-.32,2.86-.48,.69-.14,1.27-.28,1.7-.39-.82,.2-1.7,.41-1.7,.39,0-.03,2.35-.5,4.24-1.32,1.69-.73,3.82-2.08,5.78-4.83-2.51,.92-5.19,1.98-8.01,3.18-2.79,1.2-5.37,2.4-7.73,3.56Z"/></g></g><g><path class="cls-6" d="M279.55,180.58c-.19,.99-.52,1.88-.95,2.68-.29,.55-1.46,2.73-4.49,5.11-1.58,1.23-3.66,2.87-7.35,4.08-4.18,1.38-8.05,1.44-10.93,1.48-3.1,.05-8.97,.14-14.55-2.04-3.31-1.3-5.24-2.89-6.45-3.89-2.64-2.19-3.7-4.13-3.95-4.61-.44-.84-.8-1.77-.99-2.81-.06-.33-.98-5.92,4.11-10.3,.81-.7,2.55-2.16,5.53-3.06,.29-.09,.51-.15,.58-.16,3.2-.84,6.11-.48,7.09-.34,4.58,.62,4.41,2.23,7.46,2.27,2.92,.04,3.22-1.45,7.45-2.18,1.2-.21,4.55-.77,8.07,.24,3.94,1.13,5.9,3.56,6.92,4.82,1.1,1.37,3.26,4.61,2.47,8.72Z"/><path class="cls-7" d="M257.44,172.16h-3.3c-.71-3.86-1.43-7.72-2.14-11.58,1.81-.9,3.62-1.81,5.44-2.71v14.3Z"/><path class="cls-9" d="M236.85,174.87c-2.14,.2-1.84-1.51,1.38-3.28,5.09-2.8,9.18-2.58,10.09-1.69,1.11,1.08-1.81,3.8-5.65,2.98-1.7-.36-4.06,1.83-5.82,2Z"/><g><path class="cls-2" d="M273.79,158.65c-1.28-.03-2.38,.05-3.22,.15-1.31,.15-2.36,.37-3.23,.56-.78,.17-1.44,.34-1.93,.47,.92-.24,1.92-.49,1.93-.47,0,.04-2.66,.6-4.79,1.56-1.91,.86-4.31,2.47-6.52,5.72,2.83-1.09,5.86-2.34,9.04-3.77,3.15-1.42,6.07-2.84,8.72-4.22Z"/><path class="cls-2" d="M256.06,166.54c1.28,.03,2.38-.05,3.22-.15,1.31-.15,2.36-.37,3.23-.56,.78-.17,1.44-.34,1.93-.47-.92,.24-1.92,.49-1.93,.47,0-.04,2.66-.6,4.79-1.56,1.91-.86,4.31-2.47,6.52-5.72-2.83,1.09-5.86,2.34-9.04,3.77-3.15,1.42-6.07,2.84-8.72,4.22Z"/></g></g></svg>