<?xml version="1.0" encoding="UTF-8"?><svg id="Layer_1" xmlns="http://www.w3.org/2000/svg" viewBox="0 0 1920 1080"><defs><style>.cls-1{fill:#0041ba;}.cls-2{fill:#006837;}.cls-3{fill:#009145;}.cls-4{fill:#0071ba;}.cls-5{fill:#ef5a24;}.cls-6{fill:#eddcb4;}.cls-7{fill:#8b6239;}.cls-8{fill:#666;}.cls-9{fill:#736357;}.cls-10{fill:#8cc63f;}.cls-11{fill:#d7fdff;}.cls-12{fill:#bf272d;}.cls-13{fill:#22b573;}.cls-14{fill:#a4272d;}.cls-15{fill:#8a6239;}.cls-16{fill:gray;}.cls-17{fill:#398f4a;}.cls-18{fill:#39b54a;}.cls-19{fill:#754c24;}.cls-20{fill:#4eaa4a;}.cls-21,.cls-22{opacity:.8;}.cls-23{opacity:.7;}.cls-22{fill:#fff;}</style></defs><g><rect class="cls-11" x="-1.73" y=".22" width="1920" height="1080"/><g><path class="cls-20" d="M508.56,1148.03c-130.49-23.8-33.1-120.23,232.32-171.04,419.21-80.24,640.32,.45,650.38,68.37,12.15,82.05-280.63,194.4-459.53,81.63-79.09-49.85-315.68,40.64-423.17,21.03Z"/><path class="cls-17" d="M-1.67,1077.03c103.13,39.62,349.65-4.95,420.36,59.14,159.96,144.97,465.07,89.45,465.07,6.24,0-68.88-206.27-190.19-631.37-190.19-117.52,0-204.72,14.63-255.25,35.11v89.24"/><path class="cls-17" d="M1920.06,1097.44c0-6.03-.07-12.05-.17-18.08-1.08-1.72-.88-4.14-.12-6.61-.59-30.16-1.99-60.3-2.71-90.45-94.01-44.36-311.83-66.27-646.84,7.25-284.51,62.44-387.93,164.45-247.44,183.36,115.72,15.57,368.76-86.05,454.36-38.56,132.83,73.69,321.92,37.45,423-19.35,7.87-4.42,15.19-8.97,21.93-13.6-1.18-.79-2.02-2.1-2.02-3.96Z"/></g><path class="cls-10" d="M171.72,985.22c.28-3.93-1.73-6.43-2.95-9.89-1.34-3.79-1.81-7.78-3.48-11.47-2.42-5.35-5.61-10.63-8.82-15.44-6.73-10.08-20.29-17.66-25.22-28.49,2.44,2.16,4.02,4.94,6.22,7.28,2.23,2.38,4.6,3.21,7.13,5.09,5.27,3.92,7.97,11.79,11.25,17.52,2.92,5.11,4.77,10.85,6.44,16.45,1.38,4.61,7.42,15.13,6.67,19.54-3.94-4.14-.97-9.84-1.83-14.7-1.02-5.76-2.52-10.51-2.48-16.56,.03-4.68,.31-9.5,.05-14.16-.29-5.29-2.61-9.17-2.41-14.75-.02,4.39-.54,9.19,.19,13.48,.47,2.72,1.99,4.98,2.28,7.82,.25,2.4-.67,5.17-.24,7.54,1.68,9.37,4.79,18.15,4.85,27.72,0-10.77,.03-21.54,0-32.3-.02-6.03-.19-9.43,2.32-14.74,2.91-6.18,6.88-10.18,10.36-15.93,1.05,3.14-4.86,12.96-6.23,16.57-2.2,5.79-1.48,11.31-2.9,17.38-2.36,10.08-.7,20.89-1.3,31.33,2.36-3.44,1.44-6.93,2.89-10.5,1.74-4.3,5.28-8.16,7.32-12.5,1.36-2.9,2.67-6.79,4.5-9.37,3.11-4.38,7.39-3.92,11.39-7.02"/><path class="cls-2" d="M887.52,1038.97c.16-3.06-.94-5.01-1.61-7.7-.73-2.95-.99-6.06-1.9-8.93-1.32-4.17-3.06-8.28-4.82-12.02-3.67-7.85-11.07-13.75-13.76-22.18,1.33,1.68,2.19,3.84,3.39,5.67,1.22,1.85,2.51,2.5,3.89,3.96,2.88,3.05,4.35,9.18,6.14,13.65,1.6,3.98,2.6,8.45,3.51,12.81,.75,3.59,4.05,11.79,3.64,15.22-2.15-3.22-.53-7.67-1-11.45-.56-4.49-1.37-8.19-1.36-12.9,.01-3.64,.17-7.4,.03-11.03-.16-4.12-1.42-7.14-1.31-11.49-.01,3.42-.3,7.16,.11,10.5,.25,2.12,1.08,3.88,1.25,6.09,.14,1.87-.37,4.02-.13,5.87,.92,7.3,2.61,14.13,2.64,21.59,0-8.39,.02-16.77,0-25.16,0-4.69-.1-7.35,1.26-11.48,1.59-4.81,3.75-7.93,5.65-12.41,.57,2.45-2.65,10.09-3.4,12.91-1.2,4.51-.81,8.81-1.58,13.53-1.29,7.85-.38,16.27-.71,24.4,1.29-2.68,.79-5.4,1.58-8.17,.95-3.35,2.88-6.35,3.99-9.73,.74-2.25,1.46-5.29,2.46-7.3,1.7-3.41,4.03-3.05,6.22-5.47"/><path class="cls-18" d="M1843.79,994.95c.18-3.24-1.13-5.3-1.92-8.15-.87-3.12-1.18-6.41-2.27-9.45-1.58-4.41-3.65-8.76-5.74-12.72-4.38-8.3-13.21-14.55-16.42-23.47,1.59,1.78,2.62,4.07,4.05,6,1.45,1.96,2.99,2.64,4.64,4.19,3.43,3.23,5.19,9.71,7.32,14.43,1.9,4.21,3.1,8.94,4.19,13.55,.9,3.8,4.83,12.47,4.34,16.1-2.56-3.41-.63-8.11-1.19-12.11-.67-4.75-1.64-8.66-1.62-13.64,.02-3.85,.2-7.82,.04-11.67-.19-4.36-1.7-7.55-1.57-12.15-.01,3.62-.35,7.57,.13,11.11,.3,2.24,1.29,4.1,1.49,6.44,.16,1.98-.44,4.26-.16,6.21,1.1,7.72,3.12,14.95,3.15,22.83,0-8.87,.02-17.74,0-26.61-.01-4.97-.12-7.77,1.51-12.14,1.9-5.09,4.48-8.39,6.75-13.13,.68,2.59-3.17,10.68-4.06,13.65-1.43,4.77-.97,9.32-1.89,14.31-1.54,8.3-.46,17.21-.85,25.81,1.54-2.84,.94-5.71,1.88-8.65,1.13-3.55,3.43-6.72,4.77-10.3,.89-2.39,1.74-5.59,2.93-7.72,2.02-3.61,4.81-3.23,7.42-5.79"/><path class="cls-13" d="M1517.05,1055.06c.21-2.47-1.31-4.04-2.23-6.21-1.02-2.38-1.37-4.89-2.63-7.21-1.83-3.36-4.25-6.68-6.67-9.7-5.09-6.34-15.35-11.1-19.08-17.91,1.85,1.36,3.04,3.1,4.71,4.58,1.68,1.49,3.48,2.02,5.39,3.2,3.99,2.46,6.03,7.41,8.51,11.01,2.21,3.21,3.61,6.82,4.87,10.34,1.04,2.9,5.61,9.51,5.05,12.28-2.98-2.6-.73-6.19-1.38-9.24-.77-3.62-1.9-6.61-1.88-10.41,.02-2.94,.23-5.97,.04-8.9-.22-3.33-1.97-5.76-1.82-9.27-.02,2.76-.41,5.78,.15,8.48,.35,1.71,1.5,3.13,1.73,4.92,.19,1.51-.51,3.25-.18,4.74,1.27,5.89,3.62,11.41,3.66,17.42,0-6.77,.02-13.54,0-20.31-.01-3.79-.14-5.93,1.75-9.27,2.2-3.88,5.2-6.4,7.84-10.02,.79,1.97-3.68,8.15-4.71,10.42-1.66,3.64-1.12,7.11-2.2,10.92-1.78,6.34-.53,13.13-.99,19.69,1.78-2.17,1.09-4.36,2.18-6.6,1.32-2.7,3.99-5.13,5.54-7.86,1.03-1.82,2.02-4.27,3.4-5.89,2.35-2.75,5.59-2.46,8.62-4.42"/><path class="cls-18" d="M1448.92,1033.57c.28-3.93-1.73-6.43-2.95-9.89-1.34-3.79-1.81-7.78-3.48-11.47-2.42-5.35-5.61-10.63-8.82-15.44-6.73-10.08-20.29-17.66-25.22-28.49,2.44,2.16,4.02,4.94,6.22,7.28s4.6,3.21,7.13,5.09c5.27,3.92,7.97,11.79,11.25,17.52,2.92,5.11,4.77,10.85,6.44,16.45,1.38,4.61,7.42,15.13,6.67,19.54-3.94-4.14-.97-9.84-1.83-14.7-1.02-5.76-2.52-10.51-2.48-16.56,.03-4.68,.31-9.5,.05-14.16-.29-5.29-2.61-9.17-2.41-14.75-.02,4.39-.54,9.19,.19,13.48,.47,2.72,1.99,4.98,2.28,7.82,.25,2.4-.67,5.17-.24,7.54,1.68,9.37,4.79,18.15,4.85,27.72,0-10.77,.03-21.54,0-32.3-.02-6.03-.19-9.43,2.32-14.74,2.91-6.18,6.88-10.18,10.36-15.93,1.05,3.14-4.86,12.96-6.23,16.57-2.2,5.79-1.48,11.31-2.9,17.38-2.36,10.08-.7,20.89-1.3,31.33,2.36-3.44,1.44-6.93,2.89-10.5,1.74-4.3,5.28-8.16,7.32-12.5,1.36-2.9,2.67-6.79,4.5-9.37,3.11-4.38,7.39-3.92,11.39-7.02"/><path class="cls-2" d="M951.96,1060.06c.22-2.49-1.31-4.06-2.24-6.25-1.02-2.39-1.38-4.92-2.65-7.25-1.84-3.38-4.26-6.71-6.7-9.75-5.11-6.37-15.41-11.15-19.16-18,1.86,1.37,3.06,3.12,4.73,4.6,1.69,1.5,3.49,2.03,5.41,3.21,4.01,2.47,6.06,7.45,8.55,11.07,2.22,3.23,3.62,6.86,4.89,10.39,1.04,2.91,5.64,9.56,5.07,12.34-2.99-2.62-.73-6.22-1.39-9.29-.78-3.64-1.91-6.64-1.89-10.46,.02-2.96,.23-6,.04-8.95-.22-3.34-1.98-5.79-1.83-9.32-.02,2.77-.41,5.81,.15,8.52,.35,1.72,1.51,3.15,1.73,4.94,.19,1.51-.51,3.26-.19,4.76,1.28,5.92,3.64,11.47,3.68,17.51,0-6.8,.02-13.61,0-20.41-.01-3.81-.14-5.96,1.76-9.31,2.21-3.9,5.23-6.43,7.87-10.07,.8,1.98-3.69,8.19-4.73,10.47-1.67,3.66-1.13,7.14-2.21,10.98-1.79,6.37-.54,13.2-.99,19.79,1.79-2.18,1.1-4.38,2.19-6.63,1.32-2.72,4.01-5.16,5.56-7.9,1.04-1.83,2.03-4.29,3.42-5.92,2.36-2.77,5.62-2.47,8.65-4.44"/><path class="cls-10" d="M286.47,1017.14c.28-2-1.73-3.27-2.95-5.03-1.34-1.93-1.81-3.96-3.48-5.83-2.42-2.72-5.61-5.4-8.82-7.85-6.73-5.13-20.29-8.98-25.22-14.49,2.44,1.1,4.02,2.51,6.22,3.7s4.6,1.63,7.13,2.59c5.27,1.99,7.97,6,11.25,8.91,2.92,2.6,4.77,5.52,6.44,8.36,1.38,2.34,7.42,7.7,6.67,9.94-3.94-2.1-.97-5.01-1.83-7.47-1.02-2.93-2.52-5.35-2.48-8.42,.03-2.38,.31-4.83,.05-7.2-.29-2.69-2.61-4.66-2.41-7.5-.02,2.23-.54,4.68,.19,6.86,.47,1.38,1.99,2.53,2.28,3.98,.25,1.22-.67,2.63-.24,3.83,1.68,4.77,4.79,9.23,4.85,14.09,0-5.48,.03-10.95,0-16.43-.02-3.06-.19-4.8,2.32-7.5,2.91-3.14,6.88-5.18,10.36-8.1,1.05,1.6-4.86,6.59-6.23,8.43-2.2,2.94-1.48,5.75-2.9,8.84-2.36,5.13-.7,10.62-1.3,15.93,2.36-1.75,1.44-3.52,2.89-5.34,1.74-2.19,5.28-4.15,7.32-6.36,1.36-1.47,2.67-3.45,4.5-4.76,3.11-2.23,7.39-1.99,11.39-3.57"/><g class="cls-23"><ellipse class="cls-22" cx="1510.92" cy="163.44" rx="70.22" ry="62.18"/><ellipse class="cls-22" cx="1736.54" cy="205.38" rx="52.35" ry="62.18"/><ellipse class="cls-22" cx="1659.26" cy="225.25" rx="52.35" ry="62.18"/><ellipse class="cls-22" cx="1574.49" cy="197.29" rx="52.35" ry="62.18"/><ellipse class="cls-22" cx="1788.48" cy="170.06" rx="70.22" ry="62.18"/><ellipse class="cls-22" cx="1714.1" cy="148.72" rx="52.35" ry="62.18"/><ellipse class="cls-22" cx="1661.75" cy="140.62" rx="52.35" ry="62.18"/><ellipse class="cls-22" cx="1595.27" cy="148.72" rx="52.35" ry="62.18"/></g><g class="cls-21"><ellipse class="cls-22" cx="1190.59" cy="225.27" rx="70.22" ry="62.18"/><ellipse class="cls-22" cx="1416.21" cy="267.22" rx="52.35" ry="62.18"/><ellipse class="cls-22" cx="1338.92" cy="287.09" rx="52.35" ry="62.18"/><ellipse class="cls-22" cx="1254.16" cy="259.12" rx="52.35" ry="62.18"/><ellipse class="cls-22" cx="1468.15" cy="231.9" rx="70.22" ry="62.18"/><ellipse class="cls-22" cx="1393.77" cy="210.55" rx="52.35" ry="62.18"/><ellipse class="cls-22" cx="1341.42" cy="202.46" rx="52.35" ry="62.18"/><ellipse class="cls-22" cx="1274.94" cy="210.55" rx="52.35" ry="62.18"/></g><g class="cls-23"><ellipse class="cls-22" cx="625.59" cy="114.27" rx="70.22" ry="62.18"/><ellipse class="cls-22" cx="851.21" cy="156.22" rx="52.35" ry="62.18"/><ellipse class="cls-22" cx="773.92" cy="176.09" rx="52.35" ry="62.18"/><ellipse class="cls-22" cx="689.16" cy="148.12" rx="52.35" ry="62.18"/><ellipse class="cls-22" cx="903.15" cy="120.9" rx="70.22" ry="62.18"/><ellipse class="cls-22" cx="828.77" cy="99.55" rx="52.35" ry="62.18"/><ellipse class="cls-22" cx="776.42" cy="91.46" rx="52.35" ry="62.18"/><ellipse class="cls-22" cx="709.94" cy="99.55" rx="52.35" ry="62.18"/></g><g class="cls-23"><ellipse class="cls-22" cx="107.06" cy="226.41" rx="70.22" ry="62.18"/><ellipse class="cls-22" cx="332.68" cy="268.36" rx="52.35" ry="62.18"/><ellipse class="cls-22" cx="255.4" cy="288.23" rx="52.35" ry="62.18"/><ellipse class="cls-22" cx="170.63" cy="260.26" rx="52.35" ry="62.18"/><ellipse class="cls-22" cx="384.62" cy="233.03" rx="70.22" ry="62.18"/><ellipse class="cls-22" cx="310.24" cy="211.69" rx="52.35" ry="62.18"/><ellipse class="cls-22" cx="257.89" cy="203.6" rx="52.35" ry="62.18"/><ellipse class="cls-22" cx="191.41" cy="211.69" rx="52.35" ry="62.18"/></g></g><g><path class="cls-6" d="M1676.98,843.72c-.07,.02-.14,.03-.21,.03-1.98,.09-3.97-.05-5.95,0-8.46,3.45-21.81,6.02-36.16-3.2-7.15-4.6-12.69-10.93-16.69-16.51-2.49,3.13-4.99,6.26-7.48,9.4,4.74,7.29,12.74,17.65,24.06,24.11,19.47,11.1,36.34,3.57,42.86,0v-13.81s-.05,0-.07,0c-.12,0-.24,0-.36-.02Z"/><path class="cls-6" d="M1771.15,927.52c1.11-7.25,1.73-16.42,.21-26-4.03-25.52-20.38-36.38-26.88-40.01,3.68-3.57,7.37-7.14,11.05-10.72,6.4,3.87,21.86,14.96,26.89,40.17,2.93,14.66,1.24,28.66-.51,37.67-3.59-.37-7.18-.74-10.77-1.12Z"/><rect class="cls-4" x="1680.86" y="840" width="69.85" height="111.25" rx="34.92" ry="34.92"/><path class="cls-9" d="M1696.01,871.45c11.17-.11,22.33-.77,33.49-.43,5.21,.16,10.43,.38,15.65,.2,1.85-.07,3.71-.18,5.56-.39v-16.62c0-9.5-7.7-17.28-17.12-17.28h-35.6c-9.42,0-17.12,7.78-17.12,17.28v16.78c5.03,.45,10.1,.52,15.15,.47Z"/><rect class="cls-4" x="1696.5" y="831.38" width="8.53" height="45.45"/><rect class="cls-4" x="1726.34" y="831.38" width="8.53" height="45.45"/><ellipse class="cls-6" cx="1715.89" cy="793.75" rx="37.87" ry="52.05"/><path class="cls-8" d="M1678.92,757.23c1.29-10.28-2.01-29.68,33.28-23.27,37.99,6.89,50.77,28,49.48,38.29s-41.16,11.57-56.79,8.74c-15.63-2.84-27.26-13.47-25.97-23.75Z"/><path class="cls-8" d="M1751.79,784.91c.36,7.54-.04,12.66-.69,16.11,1.44-.08,2.89-.23,4.34-.15,1.78-4.26,2.73-10.06,2.43-16.37-.6-12.55-5.93-22.4-11.89-21.98,0,0,4.84,1.95,5.82,22.39Z"/><path class="cls-8" d="M1683.72,776.37c-.74,6.63-.25,11.26,.68,14.45-2.24-.35-4.47-.75-6.71-.96-2.65-4.12-3.98-9.46-3.36-15.01,1.24-11.04,9.73-18.78,18.96-17.28,0,0-7.54,.82-9.56,18.8Z"/><ellipse cx="1705.43" cy="793.63" rx="2.44" ry="5.99"/><ellipse cx="1725.13" cy="793.63" rx="2.44" ry="5.99"/><path class="cls-6" d="M1685.13,810.61v-11.08s0-11.09,0-11.09c-7.92,0-14.35,4.96-14.35,11.09,0,6.12,6.42,11.09,14.35,11.09Z"/><path class="cls-6" d="M1747.26,789.25v11.08s0,11.09,0,11.09c7.92,0,14.35-4.96,14.35-11.09s-6.42-11.09-14.35-11.09Z"/><path class="cls-5" d="M1725.13,816.97h-9.2s-9.21,0-9.21,0c0,8.21,4.12,14.86,9.21,14.86,5.09,0,9.21-6.65,9.21-14.86Z"/><path class="cls-1" d="M1734.87,895.64s-6.1,5.67-19.08,5.67c-12.97,0-19.1-5.67-19.1-5.67,0,14.31,8.54,25.91,19.09,25.91,10.54,0,19.09-11.6,19.09-25.91Z"/><rect class="cls-4" x="1686.75" y="925.95" width="19.9" height="79.66"/><rect class="cls-4" x="1724.92" y="925.95" width="19.9" height="79.66"/><g><g><path class="cls-12" d="M1722.28,989.24l3,28.16c.17,.57,.29,1.14,.38,1.72h19.25l3.19-29.88h-25.82Z"/><path class="cls-12" d="M1765.96,1031.76c-.06-2.3-.24-4.66-.59-6.92-.04-.22-.08-.43-.13-.65-.09-.43-.19-.87-.29-1.33-3.87-6.74-12.01-11.39-21.43-11.39-7.17,0-13.6,2.69-17.97,6.96,.34,1.7,.32,3.45,.46,5.19,.2,2.5,.56,5.01,.98,7.47,.04,.25,.02,.47-.05,.67h39.02Z"/></g><path class="cls-14" d="M1765.81,1028.83h-39.47v3.42h39.62c-.02-1.13-.07-2.28-.16-3.42Z"/></g><g><g><path class="cls-12" d="M1708.18,989.92l-2.86,28.16c-.17,.57-.28,1.14-.36,1.72h-18.34l-3.04-29.88h24.6Z"/><path class="cls-12" d="M1704.63,1024.3c.13-1.74,.11-3.49,.44-5.19-4.16-4.26-10.29-6.96-17.12-6.96-7.9,0-14.86,3.6-18.93,9.07-.09,.25-.17,.49-.24,.71-.39,1.22-.73,2.49-.89,3.78-.28,2.22-.62,4.48-.93,6.73h36.78c-.07-.2-.09-.42-.05-.67,.41-2.46,.75-4.97,.94-7.47Z"/></g><path class="cls-14" d="M1667.38,1029.51c-.16,1.14-.33,2.28-.48,3.42h37.42v-3.42h-36.94Z"/></g><path class="cls-9" d="M1760.82,879.3l-22.14-16.77c-1.32-1-1.72-3.13-.89-4.72l6.55-12.53c.83-1.59,2.6-2.08,3.92-1.07l22.14,16.77c1.32,1,1.72,3.13,.89,4.72l-6.55,12.53c-.83,1.59-2.6,2.08-3.92,1.07Z"/><rect class="cls-9" x="1660.27" y="843.8" width="31.85" height="21.65" rx="10.82" ry="10.82"/><ellipse class="cls-6" cx="1774.97" cy="934.02" rx="9.04" ry="8.06"/><ellipse class="cls-6" cx="1612.34" cy="824.3" rx="9.44" ry="7.72" transform="translate(-155.17 1218.03) rotate(-39.64)"/><rect class="cls-15" x="1608.99" y="801.08" width="6.7" height="232.64"/><rect class="cls-16" x="1581.17" y="795.65" width="62.54" height="10.79" rx="5.4" ry="5.4"/><rect class="cls-16" x="1567.39" y="777.7" width="40.36" height="6.29" rx="3.15" ry="3.15" transform="translate(806.72 2368.41) rotate(-90)"/><rect class="cls-16" x="1584.24" y="778.43" width="40.36" height="6.29" rx="3.15" ry="3.15" transform="translate(822.84 2386) rotate(-90)"/><rect class="cls-16" x="1617.34" y="778.43" width="40.36" height="6.29" rx="3.15" ry="3.15" transform="translate(855.94 2419.09) rotate(-90)"/><rect class="cls-16" x="1601.3" y="777.94" width="40.36" height="6.29" rx="3.15" ry="3.15" transform="translate(840.39 2402.56) rotate(-90)"/><rect class="cls-16" x="1602.31" y="805.22" width="20.24" height="10.58" rx="5.29" ry="5.29" transform="translate(801.91 2422.94) rotate(-90)"/></g><g><g><ellipse class="cls-2" cx="773.45" cy="506.41" rx="133.59" ry="131.86"/><ellipse class="cls-2" cx="713.52" cy="415.04" rx="133.59" ry="131.86"/><ellipse class="cls-2" cx="713.52" cy="284.21" rx="133.59" ry="131.86"/><ellipse class="cls-2" cx="908.29" cy="587.4" rx="133.59" ry="131.86"/><ellipse class="cls-2" cx="908.29" cy="122.24" rx="133.59" ry="131.86"/><ellipse class="cls-2" cx="773.45" cy="205.3" rx="133.59" ry="131.86"/><ellipse class="cls-2" cx="1200.44" cy="205.3" rx="133.59" ry="131.86"/><ellipse class="cls-2" cx="1065.6" cy="122.24" rx="133.59" ry="131.86"/><ellipse class="cls-2" cx="1227.91" cy="454.49" rx="133.59" ry="131.86"/><ellipse class="cls-2" cx="1260.37" cy="284.21" rx="133.59" ry="131.86"/><ellipse class="cls-2" cx="1170.47" cy="74.48" rx="133.59" ry="131.86"/><ellipse class="cls-2" cx="1302.82" cy="375.58" rx="133.59" ry="131.86"/><ellipse class="cls-2" cx="1068.1" cy="552.09" rx="133.59" ry="131.86"/><ellipse class="cls-2" cx="865.84" cy="338.2" rx="133.59" ry="131.86"/><ellipse class="cls-2" cx="696.04" cy="512.64" rx="133.59" ry="131.86"/><ellipse class="cls-2" cx="716.02" cy="143" rx="133.59" ry="131.86"/><ellipse class="cls-2" cx="637.19" cy="328.79" rx="133.59" ry="131.86"/><ellipse class="cls-2" cx="1095.56" cy="338.2" rx="133.59" ry="131.86"/><ellipse class="cls-2" cx="933.26" cy="388.04" rx="133.59" ry="131.86"/><ellipse class="cls-2" cx="963.22" cy="255.14" rx="133.59" ry="131.86"/><ellipse class="cls-2" cx="1310.31" cy="228.14" rx="133.59" ry="131.86"/><ellipse class="cls-2" cx="1202.94" cy="552.09" rx="133.59" ry="131.86"/></g><g><path class="cls-19" d="M1064.24,656.26c0-.05,0-.1,0-.15,0-7.39-.06-14.76-.72-22.07h-110.65c1.38,23.47,2.39,46.97,2.49,70.48,.16,37.67-1.6,76.03-8.38,113.39v137.3h128.83v-146.5c-1.38-7.42-2.58-14.82-3.66-22.15-6.32-43.18-7.83-86.74-7.91-130.29Z"/><path class="cls-19" d="M1153.68,966.05c-.36-.52-.71-1.04-1.06-1.57-13.11-8.2-21.84-20.42-27.7-34.15-3.67-4.12-6.43-8.78-8.66-14.11-23.75-34.46-35.3-76.27-42.11-116.94-19.06-13.06-40.5-20.41-63.19-20.41s-42.34,6.75-60.78,18.8c-3.06,22.72-7.73,45.19-14.71,67.03-12.51,39.12-33.78,76.38-67.24,101.43-.15,3.73-.23,7.49-.23,11.28h285.94c0-3.81-.09-7.59-.25-11.35Z"/></g><path class="cls-7" d="M1092.69,655.81c0-.05,0-.1,0-.15,0-7.39-.06-14.76-.72-22.07h-110.65c1.38,23.47,2.39,46.97,2.49,70.48,.16,37.67-1.6,76.03-8.38,113.39v137.3h128.83v-146.5c-1.38-7.42-2.58-14.82-3.66-22.15-6.32-43.18-7.83-86.74-7.91-130.29Z"/><path class="cls-7" d="M1182.13,965.59c-.36-.52-.71-1.04-1.06-1.57-13.11-8.2-21.84-20.42-27.7-34.15-3.67-4.12-6.43-8.78-8.66-14.11-23.75-34.46-35.3-76.27-42.11-116.94-19.06-13.06-40.5-20.41-63.19-20.41s-42.34,6.75-60.78,18.8c-3.06,22.72-7.73,45.19-14.71,67.03-12.51,39.12-33.78,76.38-67.24,101.43-.15,3.73-.23,7.49-.23,11.28h285.94c0-3.81-.09-7.59-.25-11.35Z"/><g><ellipse class="cls-3" cx="785.05" cy="476.8" rx="133.59" ry="131.86"/><ellipse class="cls-3" cx="725.12" cy="385.42" rx="133.59" ry="131.86"/><ellipse class="cls-3" cx="725.12" cy="254.6" rx="133.59" ry="131.86"/><ellipse class="cls-3" cx="919.89" cy="557.78" rx="133.59" ry="131.86"/><ellipse class="cls-3" cx="919.89" cy="92.63" rx="133.59" ry="131.86"/><ellipse class="cls-3" cx="785.05" cy="175.69" rx="133.59" ry="131.86"/><ellipse class="cls-3" cx="1212.04" cy="175.69" rx="133.59" ry="131.86"/><ellipse class="cls-3" cx="1077.2" cy="92.63" rx="133.59" ry="131.86"/><ellipse class="cls-3" cx="1239.51" cy="424.88" rx="133.59" ry="131.86"/><ellipse class="cls-3" cx="1271.97" cy="254.6" rx="133.59" ry="131.86"/><ellipse class="cls-3" cx="1182.08" cy="44.86" rx="133.59" ry="131.86"/><ellipse class="cls-3" cx="1314.42" cy="345.97" rx="133.59" ry="131.86"/><ellipse class="cls-3" cx="1079.7" cy="522.48" rx="133.59" ry="131.86"/><ellipse class="cls-3" cx="877.44" cy="308.59" rx="133.59" ry="131.86"/><ellipse class="cls-3" cx="707.64" cy="483.02" rx="133.59" ry="131.86"/><ellipse class="cls-3" cx="727.62" cy="113.39" rx="133.59" ry="131.86"/><ellipse class="cls-3" cx="648.79" cy="299.17" rx="133.59" ry="131.86"/><ellipse class="cls-3" cx="1107.17" cy="308.59" rx="133.59" ry="131.86"/><ellipse class="cls-3" cx="944.86" cy="358.43" rx="133.59" ry="131.86"/><ellipse class="cls-3" cx="974.82" cy="225.53" rx="133.59" ry="131.86"/><ellipse class="cls-3" cx="1321.91" cy="198.53" rx="133.59" ry="131.86"/><ellipse class="cls-3" cx="1214.54" cy="522.48" rx="133.59" ry="131.86"/></g><path class="cls-7" d="M1024.65,847.85c-.93-4.01-1.85-8.02-2.78-12.03,53.52-14.15,107.04-28.31,160.57-42.46,14.21,3.91,28.43,7.82,42.64,11.72l-200.43,42.76Z"/><path class="cls-7" d="M1131.6,815.72c-3.18-1.35-6.37-2.69-9.55-4.04,5.32-17.01,10.63-34.01,15.95-51.02,6.98-1.56,13.96-3.12,20.95-4.68l-27.35,59.74Z"/><ellipse class="cls-2" cx="1225.19" cy="793" rx="41.93" ry="40.29"/><ellipse class="cls-2" cx="1243.42" cy="776.65" rx="41.93" ry="40.29"/><ellipse class="cls-2" cx="1266.51" cy="814.03" rx="41.93" ry="40.29"/><ellipse class="cls-3" cx="1140.48" cy="753.19" rx="20.91" ry="40.4"/><ellipse class="cls-3" cx="1128.75" cy="753.24" rx="20.84" ry="20.39"/><ellipse class="cls-3" cx="1133.55" cy="774.11" rx="20.84" ry="20.39"/><ellipse class="cls-3" cx="1157.85" cy="758.93" rx="20.84" ry="20.39"/><ellipse class="cls-2" cx="1282.31" cy="792.9" rx="15.19" ry="29.89"/></g></svg>