<?xml version="1.0" encoding="UTF-8"?><svg id="Layer_1" xmlns="http://www.w3.org/2000/svg" viewBox="0 0 703.84 308.03"><defs><style>.cls-1{fill:red;}.cls-2{fill:none;stroke:red;stroke-miterlimit:10;stroke-width:4px;}</style></defs><path class="cls-2" d="M483.34,99.72c34.19,16.84,163.04-20.13,167.83-15.51,4.76,4.58-128.73,34.41-120.33,52.73,8.84,19.28,171.3,18.24,171,21.71-.28,3.23-140.33-5.57-158.33,15.51-18.74,21.93,102.5,67.09,95,71.34-6.77,3.84-95.7-38.62-133-27.92-39.93,11.46,4.85,76.52-19,80.65-22.55,3.9-75.36-52.08-98.17-48.08-20.81,3.65,1.23,54.09-12.67,55.83-15.71,1.97-46.37-62.2-88.67-62.03-37.18,.15-63.5,49.92-76,48.08-12.61-1.86,24.19-51.05-9.5-63.59-38.21-14.22-144.16,27.24-155.17,20.16-10.91-7.02,96.8-45.5,79.17-66.69-15.76-18.93-122.58-13.19-123.5-20.16-1.01-7.7,129.73-12.24,133-27.92,3.12-14.93-111.21-31.65-107.67-37.22,3.81-6,133.67,17.61,161.5-1.55,25.49-17.55-47.78-61.94-34.83-66.69,13.09-4.8,78.94,43.9,129.83,37.22,50.73-6.66,57.45-64.54,76-63.59,17.49,.9,7.72,52.16,41.17,57.38,33.6,5.25,86.49-39.76,101.33-35.67,16.57,4.56-51.18,60.14-19,75.99Z"/><g><path class="cls-1" d="M202.35,157.59c0,1.4-.98,2.68-3.68,2.68-3.27,0-4.66-1.02-4.66-2.23-.9-1.02-3.35-1.79-6.79-1.79-8.75,0-16.6,5.36-16.6,9.89,0,2.3,1.47,3.13,3.6,3.13,2.29,0,5.4-.51,9.73-1.47,4.17-.89,7.77-1.53,11.94-1.53,6.87,0,12.27,2.75,12.27,8.49,0,3.83-1.64,7.02-4.58,9.7-6.05,5.81-17.26,9.06-26.66,9.06-10.55,0-14.31-5.94-14.31-8.04s1.72-3.77,4.5-3.77,3.27,2.62,4.25,4.08c1.14,1.72,3.03,2.62,6.13,2.62,6.46,0,14.72-2.68,19.14-6.51,2.62-1.92,3.35-4.15,3.35-6.77s-1.8-3.64-5.15-3.64c-3.6,0-6.71,.57-10.96,1.47-4.25,1.02-7.85,1.53-11.37,1.53-5.81,0-10.06-2.04-10.06-7.72,0-7.08,11.7-15.64,25.93-15.64,7.44,0,13.99,3.77,13.99,6.45Z"/><path class="cls-1" d="M217.49,188.09v-23.49c-1.31-.13-2.37-1.02-2.37-2.75s1.06-2.74,2.37-3.38v-2.3c-.33-.38-.49-1.08-.49-1.72,0-1.6,2.62-2.75,4.25-2.75,3.03,0,4.58,1.28,4.01,3.26v.7c4.58-1.79,10.14-4.21,19.3-4.21,7.61,0,11.45,2.62,11.45,6.77,0,7.02-12.43,14.94-30.67,17.17v13.02c.33,.38,.9,1.02,.9,1.66,0,2.3-.98,2.81-5.56,2.81-2.78,0-4.17-1.28-4.17-2.74,0-.83,.25-1.34,.98-2.04Zm7.85-18c14.31-1.66,22.57-6.77,22.49-10.47,0-1.4-1.88-2.68-5.81-2.68-5.15,0-10.39,1.34-16.68,4.34v8.81Z"/><path class="cls-1" d="M271.23,187.52c.57,.64,1.14,1.34,1.14,2.23,0,1.53-2.13,3.13-5.15,3.13s-4.99-1.28-4.99-3.32c0-.83,.49-1.66,1.15-2.3v-30.25c-.82-.45-.98-1.21-.98-1.85,0-2.3,2.62-3.77,5.72-3.77s4.42,1.79,4.42,3.45c0,.83-.49,1.85-1.31,2.55v30.13Z"/><path class="cls-1" d="M290.77,187.71l15.54-1.53c.65-.38,2.13-.89,2.86-.89,1.47,0,3.68,.77,3.68,2.87,0,2.43-1.72,3.58-3.35,3.58-.65,0-1.64-.13-2.37-.32l-17.18,1.72c-.82,.13-2.37,.38-3.52,.38-2.78,0-4.66-.96-4.66-2.94,0-1.08,.49-1.85,1.15-2.23v-31.72c-.25-.38-.65-1.08-.65-1.72,0-2.62,2.54-3.51,4.91-3.51,2.13,0,4.42,.77,4.42,3.38,0,.64-.49,1.34-.82,1.85v31.08Z"/><path class="cls-1" d="M343.69,187.52c.57,.64,1.14,1.34,1.14,2.23,0,1.53-2.13,3.13-5.15,3.13s-4.99-1.28-4.99-3.32c0-.83,.49-1.66,1.15-2.3v-30.25c-.82-.45-.98-1.21-.98-1.85,0-2.3,2.62-3.77,5.72-3.77s4.42,1.79,4.42,3.45c0,.83-.49,1.85-1.31,2.55v30.13Z"/><path class="cls-1" d="M395.38,152.48c2.21,1.28,4.17,3.51,4.17,4.59,0,1.66-1.47,2.87-4.01,2.87-2.13,0-3.27-.96-3.93-2.68-.49-.96-2.78-2.04-6.95-2.04-3.27,0-7.28,1.08-12.19,3.89-6.05,3.51-12.02,8.87-12.02,17.74,0,7.91,5.07,11.74,11.12,11.74,4.5,0,10.96-1.66,14.64-4.47,5.4-3.89,8.1-8.11,8.1-10.53-2.13,.51-10.88,1.98-13.5,1.98-1.47,0-3.03-.83-3.03-2.55,0-1.53,1.23-2.87,3.68-2.87,6.62,0,15.38-2.23,17.67-2.23s3.52,1.21,3.52,2.94c0,5.62-7.93,22.79-31.9,22.85-11.94,.06-18.32-6.83-18.32-16.85s7.36-17.17,15.7-21.7c6.13-3.32,12.27-5.04,17.09-5.04,4.42,0,7.69,.89,10.14,2.36Z"/><path class="cls-1" d="M419.35,187.26l22.57-1.21c.65-.58,1.55-.96,2.62-.96,2.78,0,4.58,1.66,4.58,3,0,2.75-2.29,3.25-6.62,3.25l-23.06,1.28c-.65,.57-2.29,1.08-4.66,1.08s-4.33-1.08-4.33-3.26c0-1.02,.49-2.11,1.06-2.81v-12c-.98-.7-1.47-1.72-1.47-2.94s.82-2.42,1.47-2.94v-10.21c-1.23-.51-1.72-1.47-1.72-2.49,0-1.21,.49-2.04,1.23-2.49-.33-.25-.41-.64-.41-1.02,0-1.34,2.04-2.3,4.58-2.3,2.7,0,4.17,1.02,4.17,2.36l19.47-1.34c.82-.45,2.04-.96,3.03-.96,3.11,0,4.66,1.4,4.66,2.94,0,2.23-1.88,3.77-4.74,3.77-1.06,0-1.88-.19-2.78-.51l-19.63,1.4v10.66l15.62-1.53c.82-.45,1.88-.89,2.94-.89,2.7,0,4.5,1.66,4.5,3.32,0,2.23-1.8,3.25-4.83,3.25-.65,0-1.31-.19-1.88-.45l-16.36,1.6v12.38Z"/><path class="cls-1" d="M457.39,156.5c-.41-.51-.65-1.28-.65-1.92,0-1.6,1.39-3.19,4.5-3.19,3.43,0,4.42,.83,4.42,2.43,0,1.34,1.39,3.89,3.03,6.25,2.29,3.19,6.87,7.85,11.29,11.49,3.93,3.25,7.61,6.83,8.83,8.81h.16c-.25-8.23-.25-16.53-.25-25.08-.16-.38-.82-1.02-.82-1.72,0-2.11,1.96-2.87,3.93-2.87,2.29,0,4.83,.83,4.83,2.43,0,1.02-.41,1.6-.65,2.04v33.83c.41,.38,.98,.89,.98,1.72,0,1.6-1.14,2.17-4.5,2.17-2.54,0-3.6-1.6-4.58-3.45-1.96-3.32-7.93-9.51-11.86-12.77-4.99-4.15-9.65-8.94-11.45-12.06h-.16c.16,7.66,.25,15.57,.25,23.49,.33,.38,.82,1.08,.82,1.92,0,1.92-1.23,2.87-4.01,2.87s-5.07-.77-5.07-3.06c0-.57,.57-1.4,.98-1.72v-31.59Z"/></g></svg>