<?xml version="1.0" encoding="UTF-8"?><svg id="Layer_1" xmlns="http://www.w3.org/2000/svg" viewBox="0 0 1920 1080"><defs><style>.cls-1{fill:#faaf3b;}.cls-2{fill:#0041ba;}.cls-3{fill:#006837;}.cls-4{fill:#009145;}.cls-5{fill:#0071ba;}.cls-6{fill:#ec1c24;}.cls-7{fill:#ef5a24;}.cls-8{fill:#eddcb4;}.cls-9{fill:red;}.cls-10{fill:#8b6239;}.cls-11{fill:#666;}.cls-12{fill:#736357;}.cls-13{fill:#8cc63f;}.cls-14{fill:#d8df21;}.cls-15{fill:#d7fdff;}.cls-16{fill:#c0272d;}.cls-17{fill:#bf272d;}.cls-18{fill:#22b573;}.cls-19{fill:#a4272d;}.cls-20{fill:#8a6239;}.cls-21{fill:gray;}.cls-22{fill:#398f4a;}.cls-23{fill:#39b54a;}.cls-24{fill:#534741;}.cls-25{fill:#754c24;}.cls-26{fill:#4eaa4a;}.cls-27{fill:#7ac843;}.cls-28,.cls-29{opacity:.8;}.cls-30{opacity:.7;}.cls-31{fill:#e5e5e5;opacity:.85;}.cls-29{fill:#fff;}</style></defs><g><rect class="cls-15" x=".74" y="-.44" width="1920" height="1080"/><g><path class="cls-26" d="M511.03,1147.37c-130.49-23.8-33.1-120.23,232.32-171.04,419.21-80.24,640.32,.45,650.38,68.37,12.15,82.05-280.63,194.4-459.53,81.63-79.09-49.85-315.68,40.64-423.17,21.03Z"/><path class="cls-22" d="M-.38,1075.9c.4,.15,.79,.31,1.19,.47"/><path class="cls-22" d="M.8,1076.37c103.13,39.62,349.65-4.95,420.36,59.14,159.96,144.97,465.07,89.45,465.07,6.24,0-68.88-206.27-190.19-631.37-190.19-117.52,0-204.72,14.63-255.25,35.11v89.24"/><path class="cls-22" d="M1922.53,1096.78c0-6.03-.07-12.05-.17-18.08-1.08-1.72-.88-4.14-.12-6.61-.59-30.16-1.99-60.3-2.71-90.45-94.01-44.36-311.83-66.27-646.84,7.25-284.51,62.44-387.93,164.45-247.44,183.36,115.72,15.57,368.76-86.05,454.36-38.56,132.83,73.69,321.92,37.45,423-19.35,7.87-4.42,15.19-8.97,21.93-13.6-1.18-.79-2.02-2.1-2.02-3.96Z"/></g><path class="cls-13" d="M174.19,984.56c.28-3.93-1.73-6.43-2.95-9.89-1.34-3.79-1.81-7.78-3.48-11.47-2.42-5.35-5.61-10.63-8.82-15.44-6.73-10.08-20.29-17.66-25.22-28.49,2.44,2.16,4.02,4.94,6.22,7.28,2.23,2.38,4.6,3.21,7.13,5.09,5.27,3.92,7.97,11.79,11.25,17.52,2.92,5.11,4.77,10.85,6.44,16.45,1.38,4.61,7.42,15.13,6.67,19.54-3.94-4.14-.97-9.84-1.83-14.7-1.02-5.76-2.52-10.51-2.48-16.56,.03-4.68,.31-9.5,.05-14.16-.29-5.29-2.61-9.17-2.41-14.75-.02,4.39-.54,9.19,.19,13.48,.47,2.72,1.99,4.98,2.28,7.82,.25,2.4-.67,5.17-.24,7.54,1.68,9.37,4.79,18.15,4.85,27.72,0-10.77,.03-21.54,0-32.3-.02-6.03-.19-9.43,2.32-14.74,2.91-6.18,6.88-10.18,10.36-15.93,1.05,3.14-4.86,12.96-6.23,16.57-2.2,5.79-1.48,11.31-2.9,17.38-2.36,10.08-.7,20.89-1.3,31.33,2.36-3.44,1.44-6.93,2.89-10.5,1.74-4.3,5.28-8.16,7.32-12.5,1.36-2.9,2.67-6.79,4.5-9.37,3.11-4.38,7.39-3.92,11.39-7.02"/><path class="cls-3" d="M889.99,1038.31c.16-3.06-.94-5.01-1.61-7.7-.73-2.95-.99-6.06-1.9-8.93-1.32-4.17-3.06-8.28-4.82-12.02-3.67-7.85-11.07-13.75-13.76-22.18,1.33,1.68,2.19,3.84,3.39,5.67,1.22,1.85,2.51,2.5,3.89,3.96,2.88,3.05,4.35,9.18,6.14,13.65,1.6,3.98,2.6,8.45,3.51,12.81,.75,3.59,4.05,11.79,3.64,15.22-2.15-3.22-.53-7.67-1-11.45-.56-4.49-1.37-8.19-1.36-12.9,.01-3.64,.17-7.4,.03-11.03-.16-4.12-1.42-7.14-1.31-11.49-.01,3.42-.3,7.16,.11,10.5,.25,2.12,1.08,3.88,1.25,6.09,.14,1.87-.37,4.02-.13,5.87,.92,7.3,2.61,14.13,2.64,21.59,0-8.39,.02-16.77,0-25.16,0-4.69-.1-7.35,1.26-11.48,1.59-4.81,3.75-7.93,5.65-12.41,.57,2.45-2.65,10.09-3.4,12.91-1.2,4.51-.81,8.81-1.58,13.53-1.29,7.85-.38,16.27-.71,24.4,1.29-2.68,.79-5.4,1.58-8.17,.95-3.35,2.88-6.35,3.99-9.73,.74-2.25,1.46-5.29,2.46-7.3,1.7-3.41,4.03-3.05,6.22-5.47"/><path class="cls-23" d="M1846.26,994.29c.18-3.24-1.13-5.3-1.92-8.15-.87-3.12-1.18-6.41-2.27-9.45-1.58-4.41-3.65-8.76-5.74-12.72-4.38-8.3-13.21-14.55-16.42-23.47,1.59,1.78,2.62,4.07,4.05,6,1.45,1.96,2.99,2.64,4.64,4.19,3.43,3.23,5.19,9.71,7.32,14.43,1.9,4.21,3.1,8.94,4.19,13.55,.9,3.8,4.83,12.47,4.34,16.1-2.56-3.41-.63-8.11-1.19-12.11-.67-4.75-1.64-8.66-1.62-13.64,.02-3.85,.2-7.82,.04-11.67-.19-4.36-1.7-7.55-1.57-12.15-.01,3.62-.35,7.57,.13,11.11,.3,2.24,1.29,4.1,1.49,6.44,.16,1.98-.44,4.26-.16,6.21,1.1,7.72,3.12,14.95,3.15,22.83,0-8.87,.02-17.74,0-26.61-.01-4.97-.12-7.77,1.51-12.14,1.9-5.09,4.48-8.39,6.75-13.13,.68,2.59-3.17,10.68-4.06,13.65-1.43,4.77-.97,9.32-1.89,14.31-1.54,8.3-.46,17.21-.85,25.81,1.54-2.84,.94-5.71,1.88-8.65,1.13-3.55,3.43-6.72,4.77-10.3,.89-2.39,1.74-5.59,2.93-7.72,2.02-3.61,4.81-3.23,7.42-5.79"/><path class="cls-18" d="M1519.52,1054.4c.21-2.47-1.31-4.04-2.23-6.21-1.02-2.38-1.37-4.89-2.63-7.21-1.83-3.36-4.25-6.68-6.67-9.7-5.09-6.34-15.35-11.1-19.08-17.91,1.85,1.36,3.04,3.1,4.71,4.58,1.68,1.49,3.48,2.02,5.39,3.2,3.99,2.46,6.03,7.41,8.51,11.01,2.21,3.21,3.61,6.82,4.87,10.34,1.04,2.9,5.61,9.51,5.05,12.28-2.98-2.6-.73-6.19-1.38-9.24-.77-3.62-1.9-6.61-1.88-10.41,.02-2.94,.23-5.97,.04-8.9-.22-3.33-1.97-5.76-1.82-9.27-.02,2.76-.41,5.78,.15,8.48,.35,1.71,1.5,3.13,1.73,4.92,.19,1.51-.51,3.25-.18,4.74,1.27,5.89,3.62,11.41,3.66,17.42,0-6.77,.02-13.54,0-20.31-.01-3.79-.14-5.93,1.75-9.27,2.2-3.88,5.2-6.4,7.84-10.02,.79,1.97-3.68,8.15-4.71,10.42-1.66,3.64-1.12,7.11-2.2,10.92-1.78,6.34-.53,13.13-.99,19.69,1.78-2.17,1.09-4.36,2.18-6.6,1.32-2.7,3.99-5.13,5.54-7.86,1.03-1.82,2.02-4.27,3.4-5.89,2.35-2.75,5.59-2.46,8.62-4.42"/><path class="cls-23" d="M1451.39,1032.91c.28-3.93-1.73-6.43-2.95-9.89-1.34-3.79-1.81-7.78-3.48-11.47-2.42-5.35-5.61-10.63-8.82-15.44-6.73-10.08-20.29-17.66-25.22-28.49,2.44,2.16,4.02,4.94,6.22,7.28,2.23,2.38,4.6,3.21,7.13,5.09,5.27,3.92,7.97,11.79,11.25,17.52,2.92,5.11,4.77,10.85,6.44,16.45,1.38,4.61,7.42,15.13,6.67,19.54-3.94-4.14-.97-9.84-1.83-14.7-1.02-5.76-2.52-10.51-2.48-16.56,.03-4.68,.31-9.5,.05-14.16-.29-5.29-2.61-9.17-2.41-14.75-.02,4.39-.54,9.19,.19,13.48,.47,2.72,1.99,4.98,2.28,7.82,.25,2.4-.67,5.17-.24,7.54,1.68,9.37,4.79,18.15,4.85,27.72,0-10.77,.03-21.54,0-32.3-.02-6.03-.19-9.43,2.32-14.74,2.91-6.18,6.88-10.18,10.36-15.93,1.05,3.14-4.86,12.96-6.23,16.57-2.2,5.79-1.48,11.31-2.9,17.38-2.36,10.08-.7,20.89-1.3,31.33,2.36-3.44,1.44-6.93,2.89-10.5,1.74-4.3,5.28-8.16,7.32-12.5,1.36-2.9,2.67-6.79,4.5-9.37,3.11-4.38,7.39-3.92,11.39-7.02"/><path class="cls-3" d="M954.43,1059.4c.22-2.49-1.31-4.06-2.24-6.25-1.02-2.39-1.38-4.92-2.65-7.25-1.84-3.38-4.26-6.71-6.7-9.75-5.11-6.37-15.41-11.15-19.16-18,1.86,1.37,3.06,3.12,4.73,4.6s3.49,2.03,5.41,3.21c4.01,2.47,6.06,7.45,8.55,11.07,2.22,3.23,3.62,6.86,4.89,10.39,1.04,2.91,5.64,9.56,5.07,12.34-2.99-2.62-.73-6.22-1.39-9.29-.78-3.64-1.91-6.64-1.89-10.46,.02-2.96,.23-6,.04-8.95-.22-3.34-1.98-5.79-1.83-9.32-.02,2.77-.41,5.81,.15,8.52,.35,1.72,1.51,3.15,1.73,4.94,.19,1.51-.51,3.26-.19,4.76,1.28,5.92,3.64,11.47,3.68,17.51,0-6.8,.02-13.61,0-20.41-.01-3.81-.14-5.96,1.76-9.31,2.21-3.9,5.23-6.43,7.87-10.07,.8,1.98-3.69,8.19-4.73,10.47-1.67,3.66-1.13,7.14-2.21,10.98-1.79,6.37-.54,13.2-.99,19.79,1.79-2.18,1.1-4.38,2.19-6.63,1.32-2.72,4.01-5.16,5.56-7.9,1.04-1.83,2.03-4.29,3.42-5.92,2.36-2.77,5.62-2.47,8.65-4.44"/><path class="cls-13" d="M288.94,1016.47c.28-2-1.73-3.27-2.95-5.03-1.34-1.93-1.81-3.96-3.48-5.83-2.42-2.72-5.61-5.4-8.82-7.85-6.73-5.13-20.29-8.98-25.22-14.49,2.44,1.1,4.02,2.51,6.22,3.7s4.6,1.63,7.13,2.59c5.27,1.99,7.97,6,11.25,8.91,2.92,2.6,4.77,5.52,6.44,8.36,1.38,2.34,7.42,7.7,6.67,9.94-3.94-2.1-.97-5.01-1.83-7.47-1.02-2.93-2.52-5.35-2.48-8.42,.03-2.38,.31-4.83,.05-7.2-.29-2.69-2.61-4.66-2.41-7.5-.02,2.23-.54,4.68,.19,6.86,.47,1.38,1.99,2.53,2.28,3.98,.25,1.22-.67,2.63-.24,3.83,1.68,4.77,4.79,9.23,4.85,14.09,0-5.48,.03-10.95,0-16.43-.02-3.06-.19-4.8,2.32-7.5,2.91-3.14,6.88-5.18,10.36-8.1,1.05,1.6-4.86,6.59-6.23,8.43-2.2,2.94-1.48,5.75-2.9,8.84-2.36,5.13-.7,10.62-1.3,15.93,2.36-1.75,1.44-3.52,2.89-5.34,1.74-2.19,5.28-4.15,7.32-6.36,1.36-1.47,2.67-3.45,4.5-4.76,3.11-2.23,7.39-1.99,11.39-3.57"/><g class="cls-30"><ellipse class="cls-29" cx="1513.39" cy="162.78" rx="70.22" ry="62.18"/><ellipse class="cls-29" cx="1739.01" cy="204.72" rx="52.35" ry="62.18"/><ellipse class="cls-29" cx="1661.72" cy="224.59" rx="52.35" ry="62.18"/><ellipse class="cls-29" cx="1576.96" cy="196.63" rx="52.35" ry="62.18"/><ellipse class="cls-29" cx="1790.95" cy="169.4" rx="70.22" ry="62.18"/><ellipse class="cls-29" cx="1716.57" cy="148.06" rx="52.35" ry="62.18"/><ellipse class="cls-29" cx="1664.22" cy="139.96" rx="52.35" ry="62.18"/><ellipse class="cls-29" cx="1597.74" cy="148.06" rx="52.35" ry="62.18"/></g><g class="cls-28"><ellipse class="cls-29" cx="1193.06" cy="224.61" rx="70.22" ry="62.18"/><ellipse class="cls-29" cx="1418.68" cy="266.56" rx="52.35" ry="62.18"/><ellipse class="cls-29" cx="1341.39" cy="286.43" rx="52.35" ry="62.18"/><ellipse class="cls-29" cx="1256.63" cy="258.46" rx="52.35" ry="62.18"/><ellipse class="cls-29" cx="1470.62" cy="231.24" rx="70.22" ry="62.18"/><ellipse class="cls-29" cx="1396.24" cy="209.89" rx="52.35" ry="62.18"/><ellipse class="cls-29" cx="1343.89" cy="201.8" rx="52.35" ry="62.18"/><ellipse class="cls-29" cx="1277.41" cy="209.89" rx="52.35" ry="62.18"/></g><g class="cls-30"><ellipse class="cls-29" cx="628.06" cy="113.61" rx="70.22" ry="62.18"/><ellipse class="cls-29" cx="853.68" cy="155.56" rx="52.35" ry="62.18"/><ellipse class="cls-29" cx="776.39" cy="175.43" rx="52.35" ry="62.18"/><ellipse class="cls-29" cx="691.63" cy="147.46" rx="52.35" ry="62.18"/><ellipse class="cls-29" cx="905.62" cy="120.24" rx="70.22" ry="62.18"/><ellipse class="cls-29" cx="831.24" cy="98.89" rx="52.35" ry="62.18"/><ellipse class="cls-29" cx="778.89" cy="90.8" rx="52.35" ry="62.18"/><ellipse class="cls-29" cx="712.41" cy="98.89" rx="52.35" ry="62.18"/></g><g class="cls-30"><ellipse class="cls-29" cx="109.53" cy="225.75" rx="70.22" ry="62.18"/><ellipse class="cls-29" cx="335.15" cy="267.69" rx="52.35" ry="62.18"/><ellipse class="cls-29" cx="257.87" cy="287.56" rx="52.35" ry="62.18"/><ellipse class="cls-29" cx="173.1" cy="259.6" rx="52.35" ry="62.18"/><ellipse class="cls-29" cx="387.09" cy="232.37" rx="70.22" ry="62.18"/><ellipse class="cls-29" cx="312.71" cy="211.03" rx="52.35" ry="62.18"/><ellipse class="cls-29" cx="260.36" cy="202.93" rx="52.35" ry="62.18"/><ellipse class="cls-29" cx="193.88" cy="211.03" rx="52.35" ry="62.18"/></g></g><g><g><ellipse class="cls-3" cx="1484.17" cy="681.01" rx="78.29" ry="86.17"/><ellipse class="cls-3" cx="1449.06" cy="621.31" rx="78.29" ry="86.17"/><ellipse class="cls-3" cx="1449.06" cy="535.82" rx="78.29" ry="86.17"/><ellipse class="cls-3" cx="1563.19" cy="733.93" rx="78.29" ry="86.17"/><ellipse class="cls-3" cx="1563.19" cy="429.98" rx="78.29" ry="86.17"/><ellipse class="cls-3" cx="1484.17" cy="484.26" rx="78.29" ry="86.17"/><ellipse class="cls-3" cx="1734.4" cy="484.26" rx="78.29" ry="86.17"/><ellipse class="cls-3" cx="1655.38" cy="429.98" rx="78.29" ry="86.17"/><ellipse class="cls-3" cx="1750.49" cy="647.09" rx="78.29" ry="86.17"/><ellipse class="cls-3" cx="1769.51" cy="535.82" rx="78.29" ry="86.17"/><ellipse class="cls-3" cx="1716.84" cy="398.77" rx="78.29" ry="86.17"/><ellipse class="cls-3" cx="1794.39" cy="595.53" rx="78.29" ry="86.17"/><ellipse class="cls-3" cx="1656.84" cy="710.87" rx="78.29" ry="86.17"/><ellipse class="cls-3" cx="1538.32" cy="571.1" rx="78.29" ry="86.17"/><ellipse class="cls-3" cx="1438.81" cy="685.09" rx="78.29" ry="86.17"/><ellipse class="cls-3" cx="1450.52" cy="443.55" rx="78.29" ry="86.17"/><ellipse class="cls-3" cx="1404.32" cy="564.95" rx="78.29" ry="86.17"/><ellipse class="cls-3" cx="1672.94" cy="571.1" rx="78.29" ry="86.17"/><ellipse class="cls-3" cx="1577.82" cy="603.67" rx="78.29" ry="86.17"/><ellipse class="cls-3" cx="1595.38" cy="516.83" rx="78.29" ry="86.17"/><ellipse class="cls-3" cx="1798.78" cy="499.19" rx="78.29" ry="86.17"/><ellipse class="cls-3" cx="1735.86" cy="710.87" rx="78.29" ry="86.17"/></g><g><path class="cls-25" d="M1654.58,778.93s0-.06,0-.1c0-4.83-.04-9.64-.42-14.42h-64.84c.81,15.34,1.4,30.69,1.46,46.06,.09,24.62-.94,49.68-4.91,74.09v89.72h75.49v-95.73c-.81-4.85-1.51-9.68-2.14-14.48-3.7-28.21-4.59-56.68-4.64-85.14Z"/><path class="cls-25" d="M1706.99,981.36c-.21-.34-.42-.68-.62-1.02-7.68-5.36-12.8-13.35-16.23-22.32-2.15-2.69-3.77-5.73-5.07-9.22-13.92-22.52-20.69-49.84-24.68-76.41-11.17-8.54-23.74-13.34-37.03-13.34s-24.81,4.41-35.62,12.28c-1.79,14.85-4.53,29.53-8.62,43.8-7.33,25.56-19.8,49.91-39.4,66.28-.09,2.44-.14,4.9-.14,7.37h167.56c0-2.49-.05-4.96-.14-7.42Z"/></g><path class="cls-10" d="M1671.26,778.64s0-.06,0-.1c0-4.83-.04-9.64-.42-14.42h-64.84c.81,15.34,1.4,30.69,1.46,46.06,.09,24.62-.94,49.68-4.91,74.09v89.72h75.49v-95.73c-.81-4.85-1.51-9.68-2.14-14.48-3.7-28.21-4.59-56.68-4.64-85.14Z"/><path class="cls-10" d="M1723.66,981.07c-.21-.34-.42-.68-.62-1.02-7.68-5.36-12.8-13.35-16.23-22.32-2.15-2.69-3.77-5.73-5.07-9.22-13.92-22.52-20.69-49.84-24.68-76.41-11.17-8.54-23.74-13.34-37.03-13.34s-24.81,4.41-35.62,12.28c-1.79,14.85-4.53,29.53-8.62,43.8-7.33,25.56-19.8,49.91-39.4,66.28-.09,2.44-.14,4.9-.14,7.37h167.56c0-2.49-.05-4.96-.14-7.42Z"/><g><ellipse class="cls-4" cx="1490.97" cy="661.66" rx="78.29" ry="86.17"/><ellipse class="cls-4" cx="1455.85" cy="601.96" rx="78.29" ry="86.17"/><ellipse class="cls-4" cx="1455.85" cy="516.47" rx="78.29" ry="86.17"/><ellipse class="cls-4" cx="1569.99" cy="714.58" rx="78.29" ry="86.17"/><ellipse class="cls-4" cx="1569.99" cy="410.63" rx="78.29" ry="86.17"/><ellipse class="cls-4" cx="1490.97" cy="464.91" rx="78.29" ry="86.17"/><ellipse class="cls-4" cx="1741.19" cy="464.91" rx="78.29" ry="86.17"/><ellipse class="cls-4" cx="1662.18" cy="410.63" rx="78.29" ry="86.17"/><ellipse class="cls-4" cx="1757.29" cy="627.74" rx="78.29" ry="86.17"/><ellipse class="cls-4" cx="1776.31" cy="516.47" rx="78.29" ry="86.17"/><ellipse class="cls-4" cx="1723.63" cy="379.42" rx="78.29" ry="86.17"/><ellipse class="cls-4" cx="1801.19" cy="576.18" rx="78.29" ry="86.17"/><ellipse class="cls-4" cx="1663.64" cy="691.52" rx="78.29" ry="86.17"/><ellipse class="cls-4" cx="1545.11" cy="551.75" rx="78.29" ry="86.17"/><ellipse class="cls-4" cx="1445.61" cy="665.73" rx="78.29" ry="86.17"/><ellipse class="cls-4" cx="1457.32" cy="424.2" rx="78.29" ry="86.17"/><ellipse class="cls-4" cx="1411.12" cy="545.6" rx="78.29" ry="86.17"/><ellipse class="cls-4" cx="1679.74" cy="551.75" rx="78.29" ry="86.17"/><ellipse class="cls-4" cx="1584.62" cy="584.32" rx="78.29" ry="86.17"/><ellipse class="cls-4" cx="1602.18" cy="497.48" rx="78.29" ry="86.17"/><ellipse class="cls-4" cx="1805.58" cy="479.84" rx="78.29" ry="86.17"/><ellipse class="cls-4" cx="1742.66" cy="691.52" rx="78.29" ry="86.17"/></g><path class="cls-10" d="M1631.38,904.12l-1.63-7.86c31.36-9.25,62.73-18.5,94.09-27.75,8.33,2.55,16.66,5.11,24.99,7.66l-117.45,27.94Z"/><path class="cls-10" d="M1694.05,883.13l-5.6-2.64c3.12-11.11,6.23-22.23,9.35-33.34,4.09-1.02,8.18-2.04,12.28-3.06l-16.03,39.04Z"/><ellipse class="cls-3" cx="1748.9" cy="868.29" rx="24.57" ry="26.33"/><ellipse class="cls-3" cx="1759.58" cy="857.6" rx="24.57" ry="26.33"/><ellipse class="cls-3" cx="1773.11" cy="882.02" rx="24.57" ry="26.33"/><ellipse class="cls-4" cx="1699.26" cy="842.27" rx="12.25" ry="26.4"/><ellipse class="cls-4" cx="1692.38" cy="842.31" rx="12.21" ry="13.32"/><ellipse class="cls-4" cx="1695.2" cy="855.94" rx="12.21" ry="13.32"/><ellipse class="cls-4" cx="1709.44" cy="846.02" rx="12.21" ry="13.32"/><ellipse class="cls-3" cx="1782.37" cy="868.22" rx="8.9" ry="19.53"/></g><g><g><path class="cls-9" d="M1195.34,292.3c-.2,.88-.54,1.67-.98,2.39-.3,.49-1.51,2.43-4.66,4.55-1.64,1.1-3.8,2.55-7.63,3.64-4.34,1.23-8.36,1.28-11.35,1.32-3.22,.04-9.31,.13-15.1-1.82-3.44-1.15-5.44-2.57-6.7-3.47-2.74-1.95-3.84-3.68-4.1-4.11-.46-.75-.83-1.58-1.03-2.5-.06-.3-1.02-5.28,4.27-9.18,.84-.62,2.64-1.92,5.74-2.72,.3-.08,.53-.13,.6-.15,3.32-.75,6.34-.42,7.36-.31,4.75,.55,4.58,1.99,7.74,2.02,3.04,.03,3.34-1.29,7.73-1.95,1.24-.18,4.73-.68,8.38,.21,4.09,1,6.13,3.17,7.18,4.3,1.14,1.22,3.38,4.11,2.57,7.77Z"/><path class="cls-24" d="M1172.39,284.8h-3.42c-.74-3.44-1.48-6.89-2.22-10.33,1.88-.81,3.76-1.61,5.65-2.42v12.75Z"/><path class="cls-31" d="M1151.01,287.2c-2.22,.18-1.91-1.35,1.43-2.93,5.29-2.49,9.53-2.3,10.48-1.51,1.15,.96-1.88,3.39-5.87,2.65-1.76-.32-4.21,1.63-6.04,1.78Z"/><g><path class="cls-3" d="M1189.36,272.75c-1.32-.03-2.47,.05-3.34,.13-1.36,.13-2.45,.33-3.36,.5-.81,.15-1.49,.3-2,.42,.96-.21,1.99-.44,2-.42,0,.03-2.76,.53-4.98,1.39-1.98,.77-4.48,2.2-6.77,5.1,2.94-.97,6.09-2.09,9.39-3.36,3.28-1.27,6.3-2.53,9.06-3.76Z"/><path class="cls-3" d="M1170.95,279.78c1.32,.03,2.47-.05,3.34-.13,1.36-.13,2.45-.33,3.36-.5,.81-.15,1.49-.3,2-.42-.96,.21-1.99,.44-2,.42,0-.03,2.76-.53,4.98-1.39,1.98-.77,4.48-2.2,6.77-5.1-2.94,.97-6.09,2.09-9.39,3.36-3.28,1.27-6.3,2.53-9.06,3.76Z"/></g></g><g><path class="cls-16" d="M1032.56,157.76c-.19,.99-.52,1.88-.95,2.68-.29,.55-1.46,2.73-4.49,5.11-1.58,1.23-3.66,2.87-7.35,4.08-4.18,1.38-8.05,1.44-10.93,1.48-3.1,.05-8.97,.14-14.55-2.04-3.31-1.3-5.24-2.89-6.45-3.89-2.64-2.19-3.7-4.13-3.95-4.61-.44-.84-.8-1.77-.99-2.81-.06-.33-.98-5.92,4.11-10.3,.81-.7,2.55-2.16,5.53-3.06,.29-.09,.51-.15,.58-.16,3.2-.84,6.11-.48,7.09-.34,4.58,.62,4.41,2.23,7.46,2.27,2.92,.04,3.22-1.45,7.45-2.18,1.2-.21,4.55-.77,8.07,.24,3.94,1.13,5.9,3.56,6.92,4.82,1.1,1.37,3.26,4.61,2.47,8.72Z"/><path class="cls-24" d="M1010.45,149.35h-3.3c-.71-3.86-1.43-7.72-2.14-11.58,1.81-.9,3.62-1.81,5.44-2.71v14.3Z"/><path class="cls-31" d="M989.86,152.05c-2.14,.2-1.84-1.51,1.38-3.28,5.09-2.8,9.18-2.58,10.09-1.69,1.11,1.08-1.81,3.8-5.65,2.98-1.7-.36-4.06,1.83-5.82,2Z"/><g><path class="cls-3" d="M1026.8,135.84c-1.28-.03-2.38,.05-3.22,.15-1.31,.15-2.36,.37-3.23,.56-.78,.17-1.44,.34-1.93,.47,.92-.24,1.92-.49,1.93-.47,0,.04-2.66,.6-4.79,1.56-1.91,.86-4.31,2.47-6.52,5.72,2.83-1.09,5.86-2.34,9.04-3.77,3.15-1.42,6.07-2.84,8.72-4.22Z"/><path class="cls-3" d="M1009.07,143.72c1.28,.03,2.38-.05,3.22-.15,1.31-.15,2.36-.37,3.23-.56,.78-.17,1.44-.34,1.93-.47-.92,.24-1.92,.49-1.93,.47,0-.04,2.66-.6,4.79-1.56,1.91-.86,4.31-2.47,6.52-5.72-2.83,1.09-5.86,2.34-9.04,3.77-3.15,1.42-6.07,2.84-8.72,4.22Z"/></g></g><g><path class="cls-14" d="M1323.85,163.93c-.17,.83-.46,1.58-.84,2.26-.26,.47-1.29,2.3-3.98,4.31-1.39,1.04-3.24,2.42-6.51,3.44-3.7,1.16-7.13,1.21-9.68,1.25-2.75,.04-7.94,.12-12.88-1.72-2.93-1.09-4.64-2.44-5.72-3.29-2.34-1.84-3.27-3.48-3.5-3.89-.39-.71-.7-1.49-.88-2.37-.05-.28-.87-5,3.64-8.69,.72-.59,2.25-1.82,4.89-2.58,.25-.07,.45-.12,.51-.14,2.83-.71,5.41-.4,6.28-.29,4.05,.52,3.91,1.88,6.6,1.91,2.59,.03,2.85-1.22,6.59-1.84,1.06-.17,4.03-.65,7.15,.2,3.49,.95,5.23,3,6.13,4.07,.97,1.15,2.89,3.89,2.19,7.35Z"/><path class="cls-24" d="M1304.27,156.83h-2.92c-.63-3.26-1.26-6.51-1.9-9.77l4.81-2.29v12.06Z"/><path class="cls-31" d="M1286.04,159.11c-1.89,.17-1.63-1.28,1.22-2.77,4.51-2.36,8.13-2.18,8.94-1.43,.98,.91-1.6,3.21-5.01,2.51-1.51-.31-3.59,1.55-5.16,1.69Z"/><g><path class="cls-3" d="M1318.75,145.43c-1.13-.03-2.11,.04-2.85,.12-1.16,.13-2.09,.32-2.86,.48-.69,.14-1.27,.28-1.7,.39,.82-.2,1.7-.41,1.7-.39,0,.03-2.35,.5-4.24,1.32-1.69,.73-3.82,2.08-5.78,4.83,2.51-.92,5.19-1.98,8.01-3.18,2.79-1.2,5.37-2.4,7.73-3.56Z"/><path class="cls-3" d="M1303.05,152.09c1.13,.03,2.11-.04,2.85-.12,1.16-.13,2.09-.32,2.86-.48,.69-.14,1.27-.28,1.7-.39-.82,.2-1.7,.41-1.7,.39,0-.03,2.35-.5,4.24-1.32,1.69-.73,3.82-2.08,5.78-4.83-2.51,.92-5.19,1.98-8.01,3.18-2.79,1.2-5.37,2.4-7.73,3.56Z"/></g></g><g><path class="cls-1" d="M177.87,161.73c-.21,.95-.59,1.8-1.07,2.57-.33,.53-1.64,2.61-5.07,4.89-1.78,1.18-4.13,2.74-8.3,3.91-4.72,1.32-9.09,1.38-12.35,1.42-3.51,.05-10.12,.14-16.43-1.95-3.74-1.24-5.91-2.76-7.29-3.73-2.98-2.09-4.18-3.95-4.46-4.41-.5-.8-.9-1.69-1.12-2.69-.07-.32-1.1-5.67,4.64-9.86,.92-.67,2.87-2.06,6.24-2.93,.32-.08,.57-.14,.65-.16,3.61-.81,6.9-.46,8-.33,5.17,.59,4.98,2.14,8.42,2.17,3.3,.03,3.64-1.39,8.41-2.09,1.35-.2,5.14-.73,9.11,.23,4.45,1.08,6.66,3.41,7.81,4.62,1.24,1.31,3.68,4.41,2.79,8.34Z"/><path class="cls-24" d="M152.9,153.68h-3.72c-.81-3.7-1.61-7.39-2.42-11.09l6.14-2.6v13.68Z"/><path class="cls-31" d="M129.64,156.26c-2.42,.19-2.08-1.45,1.56-3.14,5.75-2.68,10.36-2.47,11.4-1.62,1.25,1.03-2.04,3.64-6.38,2.85-1.92-.35-4.58,1.75-6.57,1.91Z"/><g><path class="cls-3" d="M171.36,140.75c-1.44-.03-2.69,.05-3.63,.14-1.48,.14-2.66,.36-3.65,.54-.88,.16-1.62,.32-2.17,.45,1.04-.23,2.17-.47,2.17-.45,0,.04-3,.57-5.41,1.5-2.15,.83-4.87,2.36-7.37,5.47,3.2-1.04,6.62-2.24,10.21-3.61,3.56-1.36,6.85-2.72,9.85-4.04Z"/><path class="cls-3" d="M151.34,148.3c1.44,.03,2.69-.05,3.63-.14,1.48-.14,2.66-.36,3.65-.54,.88-.16,1.62-.32,2.17-.45-1.04,.23-2.17,.47-2.17,.45,0-.04,3-.57,5.41-1.5,2.15-.83,4.87-2.36,7.37-5.47-3.2,1.04-6.62,2.24-10.21,3.61-3.56,1.36-6.85,2.72-9.85,4.04Z"/></g></g><path class="cls-9" d="M180.39,256.82c-4.51-1.3-8.1-3.14-10.77-5.52-2.67-2.38-4-5.1-4-8.15,0-2.15,.63-3.99,1.88-5.52,1.25-1.53,2.86-2.29,4.81-2.29,1.3,0,2.66,.4,4.08,1.21,2.83,2.15,6.42,3.93,10.77,5.32,4.35,1.39,8.86,2.09,13.54,2.09,6.52,0,11.8-1.08,15.82-3.23,4.02-2.16,6.03-4.98,6.03-8.49,0-3.14-1.66-5.5-4.97-7.07-3.32-1.57-8.84-3.12-16.56-4.65-9.46-1.89-16.88-4.33-22.27-7.34-5.38-3.01-8.07-7.61-8.07-13.81,0-4.76,1.68-9.4,5.06-13.94,3.37-4.53,8.21-8.26,14.52-11.18,6.31-2.92,13.54-4.38,21.69-4.38,7.39,0,13.59,1.01,18.6,3.03,5,2.02,7.5,4.69,7.5,8.01,0,1.71-.57,3.23-1.71,4.58s-2.53,2.42-4.16,3.23c-1.63,.81-3.1,1.21-4.4,1.21-1.09,0-2.56-.4-4.4-1.21-3.05-1.35-6.42-2.4-10.11-3.17-3.7-.76-7.01-1.14-9.95-1.14-5.22,0-9.52,.94-12.89,2.83-3.37,1.89-5.06,4.17-5.06,6.87,0,2.88,2.09,5.28,6.28,7.21,4.18,1.93,11.72,3.97,22.59,6.13,7.94,1.8,13.84,4.15,17.7,7.07,3.86,2.92,5.79,7.25,5.79,13s-1.79,10.62-5.38,15.42c-3.59,4.8-8.59,8.64-15.01,11.52-6.42,2.87-13.76,4.31-22.02,4.31-5.44,0-10.41-.65-14.92-1.95Z"/><path class="cls-27" d="M330.01,272.42c-3.63-1.51-8.21-4.52-13.76-9.02-5.55-4.5-10.11-8.79-13.7-12.88-.14,2.01-.54,3.43-1.21,4.26-.67,.83-1.99,1.54-3.97,2.11-8.72,2.52-18.85,5.26-30.38,8.2,1.8,3.42,3.65,6.48,5.55,9.18,1.32,1.88,3.33,4.41,6.03,7.56,1.91,2.21,2.13,4.36,.68,6.45-1.45,2.09-4.06,3.69-7.83,4.78-1.69,.49-3.09,.57-4.2,.26s-2.11-1.09-2.97-2.32c-.98-1.39-2-3.61-3.06-6.65-1.61-4.16-2.96-7.02-4.06-8.58-1.61-2.29-3.54-3.6-5.8-3.93-1.85-.25-3.14-.91-3.89-1.98-1.03-1.47-1.73-3.49-2.1-6.04s-.16-4.39,.61-5.5c1.03-1.08,2.79-2.14,5.3-3.16-3.98-15.69-4.8-28.62-2.47-38.8,2.33-10.18,7.71-16.49,16.14-18.93,3.47-1,6.69-.75,9.65,.75,2.96,1.51,6,4.47,9.11,8.89l3.88,5.52c5.58,7.94,11.54,15.2,17.89,21.78,6.35,6.58,12.28,11.84,17.78,15.76,5.4,3.95,11.07,6.84,17,8.67,1.77,.48,3.05,.94,3.85,1.4,.8,.46,1.46,1.06,1.98,1.79,1.32,1.88,1.35,4.04,.08,6.48-1.27,2.44-3.3,4.06-6.07,4.86-3.07,.89-6.42,.58-10.05-.93Zm-45.95-28.36l10.41-3.01c-4.06-4.93-7.87-9.93-11.44-15.01l-5-7.12c-1.61-2.29-3.02-3.75-4.24-4.39-1.22-.63-2.72-.69-4.51-.17-4.86,1.41-7.88,5.43-9.05,12.08-1.18,6.64-.43,14.85,2.25,24.61,10.42-3.51,17.61-5.83,21.58-6.98Z"/><path class="cls-3" d="M332.15,251.35c-1.96-2.07-3.1-5.57-3.43-10.51-.55-11.31-2.18-21.5-4.89-30.57-2.07-7.27-4.68-13.6-7.83-18.99-3.16-5.39-7.29-9.79-12.4-13.2-.98-.72-1.71-1.37-2.2-1.95-.49-.58-.73-1.28-.73-2.09,0-1.97,1.25-3.86,3.75-5.66,2.5-1.8,5.33-2.69,8.48-2.69,3.59,0,6.77,1.26,9.54,3.77,2.77,2.51,5.3,6.2,7.58,11.04,3.48,7,6.12,14.97,7.91,23.91,1.79,8.94,2.8,17.98,3.02,27.14,.11,2.42,.54,4.09,1.3,4.98,.76,.9,2.06,1.35,3.91,1.35,5.11,0,10.14-2.18,15.09-6.53,4.95-4.35,9-10.08,12.15-17.17,3.15-7.09,4.73-14.5,4.73-22.22,0-6.02-.98-10.82-2.94-14.41-.98-1.71-1.47-3.14-1.47-4.31,0-1.89,1.52-3.66,4.57-5.32,3.04-1.66,5.87-2.49,8.48-2.49,2.83,0,4.73,1.19,5.71,3.57,.98,2.38,1.47,5.5,1.47,9.36,0,10.51-2.39,21.75-7.18,33.74-4.79,11.99-11.28,22.04-19.49,30.17-8.21,8.13-17.05,12.19-26.51,12.19-3.81,0-6.69-1.03-8.64-3.1Z"/><path class="cls-9" d="M406.29,283.77c-4.73-2.83-7.1-7.92-7.1-15.29,0-3.14,.54-7.59,1.63-13.33,.98-4.58,1.66-8.57,2.04-11.99,.38-3.41,.57-7.14,.57-11.18,0-5.66-.38-10.64-1.14-14.95l-3.26,.4c-.87,0-1.47-.16-1.79-.47-.33-.31-.49-.92-.49-1.82,0-1.89,.27-3.75,.82-5.59,.54-1.84,1.3-3.34,2.28-4.51,1.85-2.15,4.67-3.41,8.48-3.77,4.46-.45,10.3-.83,17.54-1.15,7.23-.31,13.46-.47,18.68-.47,10,0,15.93,.18,17.78,.54,1.52,.18,2.61,.56,3.26,1.14,.65,.59,.98,1.46,.98,2.63,0,2.69-1.14,5.16-3.42,7.41-1.3,1.44-2.56,2.42-3.75,2.96-1.2,.54-2.83,.76-4.89,.67-8.05-.45-14.74-.67-20.06-.67-5.77,0-11.04,.18-15.82,.54,0,6.11-.6,13.24-1.79,21.42,9.89-.54,21.15-.81,33.76-.81,2.28,0,3.81,.2,4.57,.61,.76,.4,1.14,1.33,1.14,2.76,0,1.53-.46,3.17-1.39,4.92-.93,1.75-2.15,3.21-3.67,4.38-.76,.63-1.52,1.08-2.28,1.35-.76,.27-1.74,.36-2.93,.27-7.07-.27-15.12-.4-24.14-.4h-7.34c-.87,4.49-1.3,7.9-1.3,10.24,0,4.85,1.52,8.28,4.57,10.3,3.04,2.02,8.05,3.03,15.01,3.03,4.46,0,8.65-.34,12.56-1.01,3.91-.67,7.88-1.82,11.91-3.43,1.52-.72,2.66-1.08,3.43-1.08,1.19,0,2.37,.7,3.51,2.09,1.14,1.39,1.71,2.9,1.71,4.51,0,1.98-.87,3.82-2.61,5.52-1.74,1.71-4.13,3.23-7.18,4.58-3.26,1.26-7.23,2.22-11.91,2.9-4.68,.67-9.57,1.01-14.68,1.01-10.77,0-18.51-1.41-23.24-4.24Z"/><path class="cls-27" d="M559.34,251.73c-1.45-1.28-1.99-3.79-1.6-7.56,.38-3.76,1.64-9.24,3.79-16.44,3.19-11.11,5.22-20.88,6.07-29.31,.81-7.97,.55-14.06-.77-18.25-8.48-.17-16.21,.32-23.2,1.46-2.64,.25-4.18,.37-4.61,.35-1.09-.05-1.8-.26-2.14-.63-.35-.37-.46-1.14-.34-2.31,.15-1.52,.61-3.1,1.38-4.73,.76-1.63,1.69-3.01,2.79-4.14,1.95-2.08,4.96-3.26,9.02-3.54,4.81-.16,10.92-.26,18.34-.32,7.41-.05,14.43,.06,21.05,.34,13.78,.57,21.74,1.09,23.87,1.54,1.5,.24,2.52,.67,3.06,1.27,.54,.61,.74,1.54,.62,2.79-.24,2.42-1.79,4.78-4.64,7.1-1.43,1.2-2.74,2.02-3.93,2.47-1.19,.45-2.7,.58-4.54,.42-4.74-.56-11.01-1-18.83-1.33-.64,5.28-2.31,13.09-4.98,23.41-2.5,9.61-4.06,17.47-4.67,23.56-.35,3.49-.26,6.38,.27,8.65,.53,2.27,1.75,4.26,3.65,5.95,1.39,1.32,2.02,2.69,1.87,4.13-.21,2.06-1.78,3.82-4.7,5.27-2.93,1.45-6.5,2.09-10.74,1.92-2.6-.11-4.63-.8-6.08-2.08Z"/><path class="cls-3" d="M605.23,272.01c0-.72,.16-1.66,.49-2.83,2.28-9.43,3.91-18.99,4.89-28.69-1.63,.36-2.94,.54-3.91,.54-1.09,0-1.63-.81-1.63-2.42,0-2.24,.65-4.69,1.96-7.34,1.3-2.65,2.83-4.6,4.57-5.86,0-7.45-.35-13.07-1.06-16.84-.71-3.77-2.2-7.27-4.49-10.51-.98-1.26-1.47-2.2-1.47-2.83,0-1.7,1.52-3.39,4.57-5.05,3.04-1.66,6.03-2.49,8.97-2.49,3.26,0,5.52,1.19,6.77,3.57,1.25,2.38,1.88,5.81,1.88,10.3-.22,4.58-.93,11.94-2.12,22.09,14.57-.72,27.51-1.08,38.82-1.08h12.07v-3.77c0-7.81-1.25-14.68-3.75-20.61-.76-1.53-1.14-2.6-1.14-3.23,0-1.8,1.36-3.46,4.08-4.98,2.72-1.53,5.65-2.29,8.81-2.29s5.35,.97,6.61,2.9c1.25,1.93,1.88,4.83,1.88,8.69,0,4.13-1.04,12.44-3.1,24.92-.87,5.75-1.61,10.87-2.2,15.35-.6,4.49-.9,8.17-.9,11.04,0,5.93,1.85,10.33,5.55,13.2,1.41,1.35,2.12,2.69,2.12,4.04,0,2.07-1.47,3.88-4.4,5.45-2.94,1.57-6.47,2.36-10.6,2.36-2.83,0-4.95-.65-6.36-1.95-1.41-1.3-2.12-3.75-2.12-7.34,0-2.96,.71-8.39,2.12-16.3l.49-3.23c.87-5.66,1.41-9.38,1.63-11.18-.98,.99-1.79,1.66-2.45,2.02-.65,.36-1.52,.49-2.61,.4-8.7-.45-16.42-.67-23.16-.67-7.94,0-15.5,.4-22.67,1.21-.22,1.8-.33,4.09-.33,6.87,0,6.73,.65,14.41,1.96,23.03,.33,2.07-.93,3.79-3.75,5.19-2.83,1.39-6.04,2.09-9.62,2.09-4.24,0-6.36-1.26-6.36-3.77Z"/><path class="cls-6" d="M730.9,231.42c-5.82-1.66-10.54-5.91-14.17-12.75-1.55-2.92-3.23-7.16-5.05-12.72-1.34-4.45-2.68-8.3-4.01-11.55-1.33-3.25-2.99-6.75-4.98-10.5-2.79-5.25-5.6-9.8-8.44-13.65l-2.85,1.04c-.81,.18-1.45,.16-1.91-.07-.46-.22-.91-.75-1.35-1.59-.93-1.75-1.6-3.54-1.99-5.36-.4-1.82-.43-3.37-.09-4.66,.66-2.38,2.69-4.12,6.07-5.24,3.95-1.33,9.22-2.88,15.82-4.65,6.6-1.77,12.35-3.19,17.22-4.26,9.35-2.05,14.98-3.09,16.88-3.14,1.51-.14,2.72-.01,3.61,.4,.9,.41,1.63,1.16,2.21,2.24,1.33,2.5,1.48,5.03,.45,7.58-.51,1.6-1.19,2.77-2.04,3.52-.85,.75-2.27,1.29-4.24,1.63-7.74,1.23-14.1,2.39-19.08,3.48-5.39,1.18-10.23,2.43-14.52,3.74,3.01,5.67,5.97,12.42,8.88,20.26,8.98-2.52,19.37-5.08,31.16-7.66,2.14-.47,3.66-.59,4.57-.37,.91,.22,1.72,1,2.43,2.33,.75,1.42,1.13,3.03,1.13,4.85,0,1.82-.42,3.42-1.27,4.82-.4,.74-.89,1.31-1.47,1.72-.58,.41-1.45,.69-2.61,.85-6.74,1.2-14.33,2.72-22.76,4.56l-6.86,1.5c1.4,4.35,2.68,7.61,3.83,9.77,2.39,4.5,5.51,7.38,9.35,8.63,3.84,1.25,9.02,1.17,15.52-.25,4.17-.91,7.91-2.08,11.24-3.51,3.33-1.43,6.47-3.3,9.44-5.62,1.07-.98,1.96-1.55,2.67-1.7,1.12-.24,2.55,.16,4.31,1.22,1.75,1.06,3.03,2.34,3.83,3.84,.97,1.84,1.07,3.72,.28,5.66-.78,1.94-2.27,3.85-4.45,5.72-2.43,1.84-5.66,3.54-9.7,5.12-4.04,1.58-8.45,2.89-13.22,3.94-10.06,2.2-18,2.47-23.82,.81Z"/><path class="cls-27" d="M927.69,252.12c-1.97-2.47-3.61-6.54-4.92-12.22-1.32-5.68-1.94-10.86-1.87-15.55-1.68,1.7-3.14,2.8-4.36,3.31-1.23,.51-2.92,.7-5.09,.56-9.52-.6-20.43-1.47-32.71-2.61-1.09,3.54-1.86,6.78-2.31,9.73-.32,2.06-.53,4.89-.65,8.48-.06,2.52-1.53,4.46-4.42,5.81-2.89,1.35-6.38,1.9-10.5,1.64-1.84-.12-3.12-.49-3.84-1.12s-.98-1.62-.78-2.96c.23-1.52,1.07-3.77,2.51-6.74,1.84-4.12,2.88-7.03,3.15-8.73,.38-2.5-.28-4.26-1.98-5.27-1.41-.81-2.02-1.8-1.84-2.96,.25-1.61,1.2-3.58,2.87-5.91,1.67-2.33,3.27-3.85,4.8-4.57,1.73-.61,4.08-.96,7.04-1.04,8.73-14.88,18.06-26.35,27.99-34.43,9.93-8.08,19.49-11.83,28.69-11.24,3.79,.24,6.38,1.49,7.78,3.74,1.4,2.25,1.73,5.79,.99,10.62l-.93,6.03c-1.33,8.67-1.8,16.87-1.4,24.61,.39,7.74,1.45,14.19,3.17,19.35,1.61,5.16,4.28,9.47,8.01,12.96,1.16,.98,1.91,1.79,2.25,2.44,.34,.65,.44,1.38,.32,2.19-.32,2.06-1.97,3.94-4.96,5.64-3,1.71-6.01,2.46-9.04,2.27-3.36-.21-6.02-1.56-7.99-4.02Zm-17.81-39.29l11.36,.72c.31-5.57,.89-11.13,1.74-16.67l1.19-7.78c.38-2.5,.29-4.22-.27-5.16-.57-.94-1.82-1.47-3.77-1.59-5.3-.34-11.05,2.19-17.23,7.57-6.18,5.38-11.9,12.74-17.16,22.06,11.76,.29,19.8,.58,24.13,.85Z"/><path class="cls-3" d="M952.31,274.26c-1.58-1.21-2.37-3.7-2.37-7.48s.87-10.24,2.61-19.66c1.74-9.61,2.61-18.41,2.61-26.4,0-4.67-.27-8.62-.82-11.85-1.74,.81-3.16,1.21-4.24,1.21-.98,0-1.69-.36-2.12-1.08-.44-.72-.65-1.84-.65-3.37,0-2.78,.76-5.1,2.28-6.94,1.52-1.84,4.19-3.57,7.99-5.19,4.02-1.79,8.62-3.23,13.78-4.31,5.16-1.08,10.3-1.62,15.41-1.62,10.55,0,19,2.29,25.36,6.87,6.36,4.58,9.54,10.69,9.54,18.32,0,6.02-1.93,11.49-5.79,16.43-3.86,4.94-8.73,8.82-14.6,11.65-5.87,2.83-11.64,4.24-17.29,4.24-3.81,0-6.47-.69-7.99-2.09-1.52-1.39-2.28-3.57-2.28-6.53,0-3.59,1.03-5.39,3.1-5.39,.54,0,1.68,.18,3.43,.54,2.17,.45,4.46,.67,6.85,.67,5.98,0,10.85-1.39,14.6-4.17,3.75-2.78,5.63-6.37,5.63-10.78s-2.04-8.06-6.12-10.71c-4.08-2.65-9.44-3.97-16.07-3.97-4.46,0-9.41,.59-14.84,1.75-.33,5.93-1.09,12.66-2.28,20.2-1.63,11.31-2.45,19.71-2.45,25.19,0,3.5,.38,6.38,1.14,8.62,.76,2.24,2.17,4.17,4.24,5.79,1.52,1.26,2.28,2.61,2.28,4.04,0,2.07-1.39,3.88-4.16,5.45-2.77,1.57-6.28,2.36-10.52,2.36-2.61,0-4.71-.61-6.28-1.82Z"/><path class="cls-6" d="M1030.87,268.75c-1.58-1.21-2.37-3.7-2.37-7.48s.87-10.24,2.61-19.66c1.74-9.61,2.61-18.41,2.61-26.4,0-4.67-.27-8.62-.82-11.85-1.74,.81-3.16,1.21-4.24,1.21-.98,0-1.69-.36-2.12-1.08-.44-.72-.65-1.84-.65-3.37,0-2.78,.76-5.1,2.28-6.94,1.52-1.84,4.19-3.57,7.99-5.19,4.02-1.79,8.62-3.23,13.78-4.31,5.16-1.08,10.3-1.62,15.41-1.62,10.55,0,19,2.29,25.36,6.87,6.36,4.58,9.54,10.69,9.54,18.32,0,6.02-1.93,11.49-5.79,16.43-3.86,4.94-8.73,8.82-14.6,11.65-5.87,2.83-11.64,4.24-17.29,4.24-3.81,0-6.47-.69-7.99-2.09-1.52-1.39-2.28-3.57-2.28-6.53,0-3.59,1.03-5.39,3.1-5.39,.54,0,1.68,.18,3.43,.54,2.17,.45,4.46,.67,6.85,.67,5.98,0,10.85-1.39,14.6-4.17,3.75-2.78,5.63-6.37,5.63-10.78s-2.04-8.06-6.12-10.71c-4.08-2.65-9.44-3.97-16.07-3.97-4.46,0-9.41,.59-14.84,1.75-.33,5.93-1.09,12.66-2.28,20.2-1.63,11.31-2.45,19.71-2.45,25.19,0,3.5,.38,6.38,1.14,8.62,.76,2.24,2.17,4.17,4.24,5.79,1.52,1.26,2.28,2.61,2.28,4.04,0,2.07-1.39,3.88-4.16,5.45-2.77,1.57-6.28,2.36-10.52,2.36-2.61,0-4.71-.61-6.28-1.82Z"/><path class="cls-27" d="M1111.06,250.33c-3.97-2.74-5.95-6.8-5.95-12.19,0-2.42,.54-6.55,1.63-12.39,1.96-9.88,2.94-18.63,2.94-26.26,0-5.84-.3-10.39-.9-13.67-.6-3.28-1.98-6.4-4.16-9.36-1.09-1.44-1.63-2.47-1.63-3.1,0-1.08,.73-2.2,2.2-3.37,1.47-1.17,3.32-2.15,5.55-2.96,2.23-.81,4.32-1.21,6.28-1.21,3.48,0,5.73,1.08,6.77,3.23,1.03,2.15,1.55,5.75,1.55,10.77,0,2.69-.87,10.15-2.61,22.36-1.74,10.87-2.61,18.9-2.61,24.11,0,3.68,.51,6.44,1.55,8.28,1.03,1.84,2.75,3.08,5.14,3.7,2.39,.72,5.76,1.08,10.11,1.08,9.68,0,18.27-1.39,25.77-4.17,1.3-.36,2.17-.54,2.61-.54,1.09,0,2.04,.52,2.86,1.55,.82,1.03,1.22,2.4,1.22,4.11,0,3.95-2.61,7.05-7.83,9.29-6.96,3.23-16.53,4.85-28.71,4.85-10.55,0-17.81-1.37-21.78-4.11Z"/><path class="cls-3" d="M1167.07,227.46c-4.73-2.83-7.1-7.92-7.1-15.29,0-3.14,.54-7.59,1.63-13.33,.98-4.58,1.66-8.57,2.04-11.99,.38-3.41,.57-7.14,.57-11.18,0-5.66-.38-10.64-1.14-14.95l-3.26,.4c-.87,0-1.47-.16-1.79-.47-.33-.31-.49-.92-.49-1.82,0-1.89,.27-3.75,.82-5.59,.54-1.84,1.3-3.34,2.28-4.51,1.85-2.15,4.67-3.41,8.48-3.77,4.46-.45,10.3-.83,17.54-1.15,7.23-.31,13.46-.47,18.68-.47,10,0,15.93,.18,17.78,.54,1.52,.18,2.61,.56,3.26,1.14,.65,.59,.98,1.46,.98,2.63,0,2.69-1.14,5.16-3.42,7.41-1.3,1.44-2.56,2.42-3.75,2.96-1.2,.54-2.83,.76-4.89,.67-8.05-.45-14.74-.67-20.06-.67-5.77,0-11.04,.18-15.82,.54,0,6.11-.6,13.24-1.79,21.42,9.89-.54,21.15-.81,33.76-.81,2.28,0,3.81,.2,4.57,.61,.76,.4,1.14,1.33,1.14,2.76,0,1.53-.46,3.17-1.39,4.92-.93,1.75-2.15,3.21-3.67,4.38-.76,.63-1.52,1.08-2.28,1.35-.76,.27-1.74,.36-2.93,.27-7.07-.27-15.12-.4-24.14-.4h-7.34c-.87,4.49-1.3,7.9-1.3,10.24,0,4.85,1.52,8.28,4.57,10.3,3.04,2.02,8.05,3.03,15.01,3.03,4.46,0,8.65-.34,12.56-1.01,3.91-.67,7.88-1.82,11.91-3.43,1.52-.72,2.66-1.08,3.43-1.08,1.19,0,2.37,.7,3.51,2.09,1.14,1.39,1.71,2.9,1.71,4.51,0,1.98-.87,3.82-2.61,5.52-1.74,1.71-4.13,3.23-7.18,4.58-3.26,1.26-7.23,2.22-11.91,2.9-4.68,.67-9.57,1.01-14.68,1.01-10.77,0-18.51-1.41-23.24-4.24Z"/><path class="cls-6" d="M1228.78,273.9c-4.2-1.68-7.38-3.81-9.52-6.39-2.15-2.59-2.9-5.39-2.27-8.42,.45-2.14,1.45-3.91,3.01-5.31,1.55-1.41,3.31-2.03,5.24-1.86,1.29,.11,2.56,.63,3.79,1.55,2.35,2.38,5.54,4.44,9.57,6.19,4.02,1.75,8.35,2.83,12.99,3.23,6.47,.56,11.92-.06,16.35-1.85,4.43-1.79,7.02-4.42,7.74-7.89,.65-3.11-.5-5.59-3.46-7.43-2.96-1.84-8.11-3.85-15.45-6.02-8.98-2.68-15.83-5.74-20.54-9.18-4.71-3.44-6.42-8.23-5.14-14.37,.99-4.72,3.62-9.18,7.9-13.38,4.28-4.2,9.85-7.48,16.71-9.84,6.85-2.35,14.33-3.18,22.41-2.48,7.33,.63,13.26,2.16,17.8,4.59,4.54,2.43,6.46,5.29,5.77,8.58-.35,1.69-1.24,3.15-2.65,4.39s-3.01,2.19-4.79,2.85c-1.78,.66-3.32,.94-4.62,.82-1.08-.09-2.45-.62-4.11-1.58-2.74-1.6-5.86-2.93-9.37-4-3.51-1.07-6.71-1.73-9.62-1.98-5.17-.45-9.63,.12-13.36,1.7-3.73,1.58-5.88,3.71-6.44,6.38-.6,2.85,.98,5.41,4.73,7.68,3.75,2.27,10.79,4.94,21.12,8.01,7.49,2.46,12.85,5.3,16.07,8.52,3.22,3.22,4.23,7.68,3.04,13.38s-3.98,10.37-8.54,14.82c-4.55,4.45-10.31,7.83-17.26,10.13-6.96,2.3-14.53,3.09-22.72,2.39-5.39-.47-10.19-1.54-14.39-3.21Z"/><g><path class="cls-1" d="M795.78,286.44c-.6,.88-1.31,1.63-2.09,2.29-.54,.46-2.66,2.24-6.91,3.85-2.2,.84-5.12,1.94-9.62,2.35-5.1,.47-9.34-.22-12.49-.74-3.4-.55-9.82-1.59-15.03-4.68-3.09-1.83-4.56-3.67-5.48-4.84-2.01-2.53-2.39-4.52-2.48-5.01-.15-.86-.17-1.78,.04-2.78,.06-.32,1.28-5.65,8.55-8.71,1.16-.49,3.62-1.5,7.23-1.76,.35-.02,.61-.04,.69-.04,3.81-.16,6.84,.74,7.85,1.05,4.74,1.45,3.92,2.91,7.22,3.53,3.17,.6,4.08-.72,8.97-.58,1.38,.04,5.26,.17,8.69,1.77,3.85,1.8,5.02,4.42,5.62,5.78,.66,1.47,1.72,4.88-.76,8.52Z"/><path class="cls-24" d="M775.05,274.42l-3.59-.63c.75-3.7,1.5-7.4,2.25-11.1l6.99-1.46-5.66,13.19Z"/><path class="cls-31" d="M751.55,272.95c-2.41-.23-1.41-1.75,2.8-2.76,6.65-1.6,11.01-.62,11.66,.38,.78,1.21-3.47,3.16-7.33,1.66-1.71-.66-5.15,.91-7.13,.72Z"/><g><path class="cls-3" d="M798.19,265.09c-1.38-.27-2.61-.41-3.56-.48-1.49-.12-2.72-.11-3.74-.1-.92,0-1.7,.03-2.28,.06,1.1-.04,2.29-.08,2.28-.06,0,.04-3.13,.04-5.84,.52-2.42,.43-5.67,1.45-9.37,4.02,3.52-.46,7.31-1.03,11.34-1.74,4-.7,7.73-1.46,11.17-2.22Z"/><path class="cls-3" d="M775.77,268.96c1.38,.27,2.61,.41,3.56,.48,1.49,.12,2.72,.11,3.74,.1,.92,0,1.7-.03,2.28-.06-1.1,.04-2.29,.08-2.28,.06,0-.04,3.13-.04,5.84-.52,2.42-.43,5.67-1.45,9.37-4.02-3.52,.46-7.31,1.03-11.34,1.74-4,.7-7.73,1.46-11.17,2.22Z"/></g></g><g><path class="cls-14" d="M474.89,171.8c-.17,.83-.46,1.58-.84,2.26-.26,.47-1.29,2.3-3.98,4.31-1.39,1.04-3.24,2.42-6.51,3.44-3.7,1.16-7.13,1.21-9.68,1.25-2.75,.04-7.94,.12-12.88-1.72-2.93-1.09-4.64-2.44-5.72-3.29-2.34-1.84-3.27-3.48-3.5-3.89-.39-.71-.7-1.49-.88-2.37-.05-.28-.87-5,3.64-8.69,.72-.59,2.25-1.82,4.89-2.58,.25-.07,.45-.12,.51-.14,2.83-.71,5.41-.4,6.28-.29,4.05,.52,3.91,1.88,6.6,1.91,2.59,.03,2.85-1.22,6.59-1.84,1.06-.17,4.03-.65,7.15,.2,3.49,.95,5.23,3,6.13,4.07,.97,1.15,2.89,3.89,2.19,7.35Z"/><path class="cls-24" d="M455.31,164.7h-2.92c-.63-3.26-1.26-6.51-1.9-9.77l4.81-2.29v12.06Z"/><path class="cls-31" d="M437.08,166.98c-1.89,.17-1.63-1.28,1.22-2.77,4.51-2.36,8.13-2.18,8.94-1.43,.98,.91-1.6,3.21-5.01,2.51-1.51-.31-3.59,1.55-5.16,1.69Z"/><g><path class="cls-3" d="M469.79,153.3c-1.13-.03-2.11,.04-2.85,.12-1.16,.13-2.09,.32-2.86,.48-.69,.14-1.27,.28-1.7,.39,.82-.2,1.7-.41,1.7-.39,0,.03-2.35,.5-4.24,1.32-1.69,.73-3.82,2.08-5.78,4.83,2.51-.92,5.19-1.98,8.01-3.18,2.79-1.2,5.37-2.4,7.73-3.56Z"/><path class="cls-3" d="M454.09,159.96c1.13,.03,2.11-.04,2.85-.12,1.16-.13,2.09-.32,2.86-.48,.69-.14,1.27-.28,1.7-.39-.82,.2-1.7,.41-1.7,.39,0-.03,2.35-.5,4.24-1.32,1.69-.73,3.82-2.08,5.78-4.83-2.51,.92-5.19,1.98-8.01,3.18-2.79,1.2-5.37,2.4-7.73,3.56Z"/></g></g><g><path class="cls-16" d="M393.38,304.63c-.19,.99-.52,1.88-.95,2.68-.29,.55-1.46,2.73-4.49,5.11-1.58,1.23-3.66,2.87-7.35,4.08-4.18,1.38-8.05,1.44-10.93,1.48-3.1,.05-8.97,.14-14.55-2.04-3.31-1.3-5.24-2.89-6.45-3.89-2.64-2.19-3.7-4.13-3.95-4.61-.44-.84-.8-1.77-.99-2.81-.06-.33-.98-5.92,4.11-10.3,.81-.7,2.55-2.16,5.53-3.06,.29-.09,.51-.15,.58-.16,3.2-.84,6.11-.48,7.09-.34,4.58,.62,4.41,2.23,7.46,2.27,2.92,.04,3.22-1.45,7.45-2.18,1.2-.21,4.55-.77,8.07,.24,3.94,1.13,5.9,3.56,6.92,4.82,1.1,1.37,3.26,4.61,2.47,8.72Z"/><path class="cls-24" d="M371.28,296.21h-3.3c-.71-3.86-1.43-7.72-2.14-11.58,1.81-.9,3.62-1.81,5.44-2.71v14.3Z"/><path class="cls-31" d="M350.68,298.92c-2.14,.2-1.84-1.51,1.38-3.28,5.09-2.8,9.18-2.58,10.09-1.69,1.11,1.08-1.81,3.8-5.65,2.98-1.7-.36-4.06,1.83-5.82,2Z"/><g><path class="cls-3" d="M387.62,282.7c-1.28-.03-2.38,.05-3.22,.15-1.31,.15-2.36,.37-3.23,.56-.78,.17-1.44,.34-1.93,.47,.92-.24,1.92-.49,1.93-.47,0,.04-2.66,.6-4.79,1.56-1.91,.86-4.31,2.47-6.52,5.72,2.83-1.09,5.86-2.34,9.04-3.77,3.15-1.42,6.07-2.84,8.72-4.22Z"/><path class="cls-3" d="M369.89,290.59c1.28,.03,2.38-.05,3.22-.15,1.31-.15,2.36-.37,3.23-.56,.78-.17,1.44-.34,1.93-.47-.92,.24-1.92,.49-1.93,.47,0-.04,2.66-.6,4.79-1.56,1.91-.86,4.31-2.47,6.52-5.72-2.83,1.09-5.86,2.34-9.04,3.77-3.15,1.42-6.07,2.84-8.72,4.22Z"/></g></g></g><g><path class="cls-9" d="M1476.29,435.6c-.14,1.06-.38,2.02-.69,2.89-.21,.6-1.06,2.94-3.28,5.5-1.15,1.33-2.68,3.09-5.37,4.39-3.06,1.48-5.89,1.55-8,1.6-2.27,.05-6.56,.15-10.64-2.2-2.42-1.39-3.83-3.11-4.72-4.19-1.93-2.35-2.7-4.45-2.89-4.96-.32-.9-.58-1.9-.72-3.02-.05-.36-.72-6.38,3.01-11.09,.59-.75,1.86-2.32,4.04-3.29,.21-.09,.37-.16,.42-.18,2.34-.91,4.47-.51,5.18-.37,3.35,.67,3.23,2.4,5.45,2.44,2.14,.04,2.35-1.56,5.45-2.35,.87-.22,3.33-.83,5.9,.25,2.88,1.21,4.32,3.83,5.06,5.19,.8,1.47,2.38,4.96,1.81,9.39Z"/><path class="cls-24" d="M1460,426.54h-2.41c-.52-4.16-1.04-8.32-1.57-12.47,1.33-.97,2.65-1.95,3.98-2.92v15.4Z"/><path class="cls-31" d="M1444.94,429.45c-1.56,.22-1.35-1.63,1.01-3.54,3.72-3.01,6.71-2.78,7.38-1.82,.81,1.16-1.32,4.09-4.13,3.21-1.24-.39-2.97,1.97-4.26,2.15Z"/><g><path class="cls-3" d="M1471.95,411.99c-.93-.03-1.74,.05-2.35,.16-.96,.16-1.73,.4-2.36,.61-.57,.18-1.05,.36-1.41,.5,.67-.26,1.41-.53,1.41-.5,0,.04-1.94,.64-3.5,1.68-1.39,.93-3.16,2.66-4.77,6.16,2.07-1.18,4.29-2.52,6.61-4.06,2.31-1.53,4.44-3.06,6.38-4.55Z"/><path class="cls-3" d="M1458.99,420.49c.93,.03,1.74-.05,2.35-.16,.96-.16,1.73-.4,2.36-.61,.57-.18,1.05-.36,1.41-.5-.67,.26-1.41,.53-1.41,.5,0-.04,1.94-.64,3.5-1.68,1.39-.93,3.16-2.66,4.77-6.16-2.07,1.18-4.29,2.52-6.61,4.06-2.31,1.53-4.44,3.06-6.38,4.55Z"/></g></g><g><path class="cls-9" d="M1479.15,591.58c-.23,1.95-.63,3.7-1.15,5.29-.36,1.09-1.77,5.38-5.47,10.06-1.92,2.43-4.46,5.64-8.96,8.04-5.1,2.71-9.82,2.83-13.33,2.92-3.78,.1-10.93,.28-17.73-4.02-4.04-2.55-6.38-5.69-7.87-7.67-3.22-4.31-4.51-8.14-4.82-9.08-.54-1.65-.97-3.48-1.21-5.53-.08-.66-1.19-11.67,5.01-20.28,.99-1.38,3.1-4.24,6.74-6.02,.35-.17,.62-.29,.7-.32,3.9-1.66,7.44-.94,8.64-.68,5.58,1.22,5.38,4.4,9.09,4.47,3.57,.07,3.93-2.86,9.08-4.3,1.46-.41,5.55-1.51,9.84,.47,4.81,2.22,7.19,7.01,8.43,9.5,1.34,2.69,3.97,9.07,3.01,17.17Z"/><path class="cls-24" d="M1452,575h-4.02c-.87-7.6-1.74-15.21-2.61-22.81,2.21-1.78,4.42-3.56,6.63-5.35v28.16Z"/><path class="cls-31" d="M1426.89,580.32c-2.61,.4-2.25-2.98,1.68-6.47,6.21-5.51,11.19-5.09,12.3-3.33,1.35,2.12-2.2,7.48-6.89,5.86-2.07-.72-4.95,3.61-7.1,3.94Z"/><g><path class="cls-3" d="M1471.93,548.39c-1.55-.06-2.9,.1-3.92,.29-1.6,.29-2.88,.74-3.94,1.11-.95,.33-1.75,.66-2.35,.92,1.12-.47,2.34-.97,2.35-.92,0,.07-3.24,1.18-5.84,3.08-2.32,1.7-5.26,4.86-7.95,11.27,3.45-2.15,7.15-4.61,11.02-7.43,3.85-2.8,7.39-5.6,10.64-8.31Z"/><path class="cls-3" d="M1450.31,563.93c1.55,.06,2.9-.1,3.92-.29,1.6-.29,2.88-.74,3.94-1.11,.95-.33,1.75-.66,2.35-.92-1.12,.47-2.34,.97-2.35,.92,0-.07,3.24-1.18,5.84-3.08,2.32-1.7,5.26-4.86,7.95-11.27-3.45,2.15-7.15,4.61-11.02,7.43-3.85,2.8-7.39,5.6-10.63,8.32Z"/></g></g><g><path class="cls-9" d="M1598.62,502.83c-.15,1.15-.41,2.19-.75,3.14-.23,.65-1.15,3.19-3.55,5.97-1.25,1.44-2.9,3.35-5.82,4.77-3.31,1.61-6.37,1.68-8.65,1.73-2.46,.06-7.1,.17-11.51-2.38-2.62-1.51-4.14-3.37-5.11-4.55-2.09-2.56-2.93-4.83-3.13-5.39-.35-.98-.63-2.07-.78-3.28-.05-.39-.77-6.92,3.25-12.03,.64-.82,2.01-2.52,4.37-3.57,.23-.1,.4-.17,.46-.19,2.53-.99,4.83-.56,5.61-.4,3.62,.72,3.49,2.61,5.9,2.65,2.31,.04,2.55-1.7,5.89-2.55,.95-.24,3.6-.9,6.39,.28,3.12,1.32,4.67,4.16,5.47,5.63,.87,1.6,2.58,5.38,1.96,10.18Z"/><path class="cls-24" d="M1581,493h-2.61c-.57-4.51-1.13-9.02-1.7-13.53l4.3-3.17v16.71Z"/><path class="cls-31" d="M1564.7,496.16c-1.69,.24-1.46-1.77,1.09-3.84,4.03-3.27,7.26-3.02,7.99-1.98,.88,1.26-1.43,4.44-4.47,3.48-1.35-.42-3.21,2.14-4.61,2.34Z"/><g><path class="cls-3" d="M1593.94,477.21c-1.01-.04-1.88,.06-2.55,.17-1.04,.17-1.87,.44-2.56,.66-.62,.2-1.14,.39-1.52,.55,.73-.28,1.52-.57,1.52-.55,0,.04-2.1,.7-3.79,1.83-1.51,1.01-3.41,2.88-5.16,6.68,2.24-1.27,4.64-2.74,7.16-4.41,2.5-1.66,4.8-3.32,6.9-4.93Z"/><path class="cls-3" d="M1579.9,486.43c1.01,.04,1.88-.06,2.55-.17,1.04-.17,1.87-.44,2.56-.66,.62-.2,1.14-.39,1.52-.55-.73,.28-1.52,.57-1.52,.55,0-.04,2.1-.7,3.79-1.83,1.51-1.01,3.41-2.88,5.16-6.68-2.24,1.27-4.64,2.74-7.16,4.41-2.5,1.66-4.8,3.32-6.9,4.93Z"/></g></g><g><path class="cls-9" d="M1824.3,490.47c-.17,1.35-.47,2.56-.86,3.66-.27,.76-1.33,3.72-4.09,6.96-1.44,1.68-3.34,3.9-6.7,5.56-3.81,1.88-7.34,1.96-9.97,2.02-2.83,.07-8.17,.19-13.26-2.78-3.02-1.76-4.77-3.93-5.88-5.31-2.41-2.98-3.37-5.63-3.6-6.28-.4-1.14-.73-2.41-.9-3.83-.06-.46-.89-8.07,3.75-14.03,.74-.95,2.32-2.94,5.04-4.16,.26-.12,.46-.2,.53-.22,2.91-1.15,5.57-.65,6.46-.47,4.17,.84,4.02,3.04,6.8,3.09,2.67,.05,2.94-1.98,6.79-2.97,1.09-.28,4.15-1.05,7.36,.32,3.6,1.53,5.38,4.85,6.31,6.57,1,1.86,2.97,6.28,2.25,11.88Z"/><path class="cls-24" d="M1804,479h-3c-.65-5.26-1.3-10.52-1.95-15.78,1.65-1.23,3.3-2.47,4.96-3.7v19.48Z"/><path class="cls-31" d="M1785.23,482.68c-1.95,.27-1.68-2.06,1.26-4.47,4.64-3.81,8.36-3.52,9.2-2.31,1.01,1.47-1.65,5.18-5.15,4.06-1.55-.5-3.7,2.5-5.31,2.72Z"/><g><path class="cls-3" d="M1818.9,460.59c-1.16-.04-2.17,.07-2.93,.2-1.19,.2-2.15,.51-2.95,.77-.71,.23-1.31,.46-1.75,.64,.84-.32,1.75-.67,1.75-.64,0,.05-2.42,.82-4.37,2.13-1.74,1.18-3.93,3.36-5.95,7.79,2.58-1.49,5.34-3.19,8.24-5.14,2.88-1.94,5.53-3.87,7.95-5.75Z"/><path class="cls-3" d="M1802.74,471.34c1.16,.04,2.17-.07,2.93-.2,1.19-.2,2.15-.51,2.95-.77,.71-.23,1.31-.46,1.75-.64-.84,.32-1.75,.67-1.75,.64,0-.05,2.42-.82,4.37-2.13,1.74-1.18,3.93-3.36,5.95-7.79-2.58,1.49-5.34,3.19-8.24,5.14-2.88,1.94-5.53,3.87-7.95,5.75Z"/></g></g><g><path class="cls-9" d="M1562.52,698.47c-.16,1.35-.43,2.56-.79,3.66-.24,.76-1.21,3.72-3.73,6.96-1.31,1.68-3.04,3.9-6.11,5.56-3.48,1.88-6.7,1.96-9.09,2.02-2.58,.07-7.45,.19-12.1-2.78-2.75-1.76-4.35-3.93-5.37-5.31-2.2-2.98-3.07-5.63-3.29-6.28-.37-1.14-.66-2.41-.82-3.83-.05-.46-.81-8.07,3.42-14.03,.68-.95,2.12-2.94,4.59-4.16,.24-.12,.42-.2,.48-.22,2.66-1.15,5.08-.65,5.89-.47,3.8,.84,3.67,3.04,6.2,3.09,2.43,.05,2.68-1.98,6.19-2.97,.99-.28,3.79-1.05,6.71,.32,3.28,1.53,4.91,4.85,5.75,6.57,.91,1.86,2.71,6.28,2.05,11.88Z"/><path class="cls-24" d="M1544,687h-2.74c-.59-5.26-1.19-10.52-1.78-15.78,1.51-1.23,3.01-2.47,4.52-3.7v19.48Z"/><path class="cls-31" d="M1526.88,690.68c-1.78,.27-1.53-2.06,1.15-4.47,4.23-3.81,7.63-3.52,8.39-2.31,.92,1.47-1.5,5.18-4.7,4.06-1.41-.5-3.38,2.5-4.84,2.72Z"/><g><path class="cls-3" d="M1557.59,668.59c-1.06-.04-1.98,.07-2.68,.2-1.09,.2-1.96,.51-2.69,.77-.65,.23-1.2,.46-1.6,.64,.77-.32,1.6-.67,1.6-.64,0,.05-2.21,.82-3.98,2.13-1.59,1.18-3.59,3.36-5.42,7.79,2.36-1.49,4.87-3.19,7.52-5.14,2.62-1.94,5.04-3.87,7.25-5.75Z"/><path class="cls-3" d="M1542.85,679.34c1.06,.04,1.98-.07,2.68-.2,1.09-.2,1.96-.51,2.69-.77,.65-.23,1.2-.46,1.6-.64-.77,.32-1.6,.67-1.6,.64,0-.05,2.21-.82,3.98-2.13,1.59-1.18,3.59-3.36,5.42-7.79-2.36,1.49-4.87,3.19-7.52,5.14-2.62,1.94-5.04,3.87-7.25,5.75Z"/></g></g><g><path class="cls-9" d="M1730.31,396.03c-.21,1.65-.57,3.13-1.03,4.47-.32,.92-1.59,4.55-4.9,8.51-1.72,2.06-3.99,4.78-8.02,6.8-4.56,2.3-8.79,2.4-11.94,2.47-3.39,.08-9.79,.24-15.88-3.4-3.62-2.16-5.72-4.81-7.05-6.49-2.89-3.65-4.04-6.89-4.32-7.69-.48-1.39-.87-2.95-1.08-4.68-.07-.56-1.07-9.88,4.49-17.17,.89-1.17,2.78-3.59,6.03-5.1,.31-.14,.55-.24,.63-.27,3.49-1.41,6.67-.79,7.74-.57,5,1.03,4.82,3.72,8.14,3.78,3.19,.06,3.52-2.42,8.13-3.64,1.31-.35,4.97-1.28,8.81,.39,4.31,1.88,6.44,5.93,7.55,8.04,1.2,2.28,3.56,7.68,2.7,14.53Z"/><path class="cls-24" d="M1706,382h-3.6c-.78-6.44-1.56-12.87-2.34-19.31,1.98-1.51,3.96-3.02,5.94-4.53v23.84Z"/><path class="cls-31" d="M1683.51,386.51c-2.34,.34-2.01-2.52,1.51-5.48,5.56-4.66,10.02-4.31,11.02-2.82,1.21,1.79-1.97,6.34-6.17,4.96-1.86-.61-4.43,3.06-6.36,3.33Z"/><g><path class="cls-3" d="M1723.85,359.47c-1.39-.05-2.6,.08-3.51,.24-1.43,.25-2.58,.62-3.53,.94-.85,.28-1.57,.56-2.1,.78,1.01-.4,2.1-.82,2.1-.78,0,.06-2.9,1-5.23,2.61-2.08,1.44-4.71,4.11-7.12,9.54,3.09-1.82,6.4-3.9,9.87-6.29,3.44-2.37,6.62-4.74,9.52-7.04Z"/><path class="cls-3" d="M1704.49,372.63c1.39,.05,2.6-.08,3.51-.24,1.43-.25,2.58-.62,3.53-.94,.85-.28,1.57-.56,2.1-.78-1.01,.4-2.1,.82-2.1,.78,0-.06,2.9-1,5.23-2.61,2.08-1.44,4.71-4.11,7.12-9.54-3.09,1.82-6.4,3.9-9.87,6.29-3.44,2.37-6.62,4.74-9.52,7.04Z"/></g></g><g><path class="cls-9" d="M1705.29,576.06c-.14,1.06-.38,2.02-.69,2.89-.21,.6-1.06,2.94-3.28,5.5-1.15,1.33-2.68,3.09-5.37,4.39-3.06,1.48-5.89,1.55-8,1.6-2.27,.05-6.56,.15-10.64-2.2-2.42-1.39-3.83-3.11-4.72-4.19-1.93-2.35-2.7-4.45-2.89-4.96-.32-.9-.58-1.9-.72-3.02-.05-.36-.72-6.38,3.01-11.09,.59-.75,1.86-2.32,4.04-3.29,.21-.09,.37-.16,.42-.18,2.34-.91,4.47-.51,5.18-.37,3.35,.67,3.23,2.4,5.45,2.44,2.14,.04,2.35-1.56,5.45-2.35,.87-.22,3.33-.83,5.9,.25,2.88,1.21,4.32,3.83,5.06,5.19,.8,1.47,2.38,4.96,1.81,9.39Z"/><path class="cls-24" d="M1689,567h-2.41c-.52-4.16-1.04-8.32-1.57-12.47,1.33-.97,2.65-1.95,3.98-2.92v15.4Z"/><path class="cls-31" d="M1673.94,569.91c-1.56,.22-1.35-1.63,1.01-3.54,3.72-3.01,6.71-2.78,7.38-1.82,.81,1.16-1.32,4.09-4.13,3.21-1.24-.39-2.97,1.97-4.26,2.15Z"/><g><path class="cls-3" d="M1700.95,552.45c-.93-.03-1.74,.05-2.35,.16-.96,.16-1.73,.4-2.36,.61-.57,.18-1.05,.36-1.41,.5,.67-.26,1.41-.53,1.41-.5,0,.04-1.94,.64-3.5,1.68-1.39,.93-3.16,2.66-4.77,6.16,2.07-1.18,4.29-2.52,6.61-4.06,2.31-1.53,4.44-3.06,6.38-4.55Z"/><path class="cls-3" d="M1687.99,560.95c.93,.03,1.74-.05,2.35-.16,.96-.16,1.73-.4,2.36-.61,.57-.18,1.05-.36,1.41-.5-.67,.26-1.41,.53-1.41,.5,0-.04,1.94-.64,3.5-1.68,1.39-.93,3.16-2.66,4.77-6.16-2.07,1.18-4.29,2.52-6.61,4.06-2.31,1.53-4.44,3.06-6.38,4.55Z"/></g></g><g><path class="cls-9" d="M1751.31,699.03c-.21,1.65-.57,3.13-1.03,4.47-.32,.92-1.59,4.55-4.9,8.51-1.72,2.06-3.99,4.78-8.02,6.8-4.56,2.3-8.79,2.4-11.94,2.47-3.39,.08-9.79,.24-15.88-3.4-3.62-2.16-5.72-4.81-7.05-6.49-2.89-3.65-4.04-6.89-4.32-7.69-.48-1.39-.87-2.95-1.08-4.68-.07-.56-1.07-9.88,4.49-17.17,.89-1.17,2.78-3.59,6.03-5.1,.31-.14,.55-.24,.63-.27,3.49-1.41,6.67-.79,7.74-.57,5,1.03,4.82,3.72,8.14,3.78,3.19,.06,3.52-2.42,8.13-3.64,1.31-.35,4.97-1.28,8.81,.39,4.31,1.88,6.44,5.93,7.55,8.04,1.2,2.28,3.56,7.68,2.7,14.53Z"/><path class="cls-24" d="M1727,685h-3.6c-.78-6.44-1.56-12.87-2.34-19.31l5.94-4.53v23.84Z"/><path class="cls-31" d="M1704.51,689.51c-2.34,.34-2.01-2.52,1.51-5.48,5.56-4.66,10.02-4.31,11.02-2.82,1.21,1.79-1.97,6.34-6.17,4.96-1.86-.61-4.43,3.06-6.36,3.33Z"/><g><path class="cls-3" d="M1744.85,662.47c-1.39-.05-2.6,.08-3.51,.24-1.43,.25-2.58,.62-3.53,.94-.85,.28-1.57,.56-2.1,.78,1.01-.4,2.1-.82,2.1-.78,0,.06-2.9,1-5.23,2.61-2.08,1.44-4.71,4.11-7.12,9.54,3.09-1.82,6.4-3.9,9.87-6.29,3.44-2.37,6.62-4.74,9.52-7.04Z"/><path class="cls-3" d="M1725.49,675.63c1.39,.05,2.6-.08,3.51-.24,1.43-.25,2.58-.62,3.53-.94,.85-.28,1.57-.56,2.1-.78-1.01,.4-2.1,.82-2.1,.78,0-.06,2.9-1,5.23-2.61,2.08-1.44,4.71-4.11,7.12-9.54-3.09,1.82-6.4,3.9-9.87,6.29-3.44,2.37-6.62,4.74-9.52,7.04Z"/></g></g><g><path class="cls-8" d="M1214.96,848c-.07,.02-.14,.03-.21,.03-1.98,.09-3.97-.05-5.95,0-8.46,3.45-21.81,6.02-36.16-3.2-7.15-4.6-12.69-10.93-16.69-16.51-2.49,3.13-4.99,6.26-7.48,9.4,4.74,7.29,12.74,17.65,24.06,24.11,19.47,11.1,36.34,3.57,42.86,0v-13.81s-.05,0-.07,0c-.12,0-.24,0-.36-.02Z"/><path class="cls-8" d="M1309.13,931.8c1.11-7.25,1.73-16.42,.21-26-4.03-25.52-20.38-36.38-26.88-40.01,3.68-3.57,7.37-7.14,11.05-10.72,6.4,3.87,21.86,14.96,26.89,40.17,2.93,14.66,1.24,28.66-.51,37.67-3.59-.37-7.18-.74-10.77-1.12Z"/><rect class="cls-5" x="1218.85" y="844.28" width="69.85" height="111.25" rx="34.92" ry="34.92"/><path class="cls-12" d="M1233.99,875.73c11.17-.11,22.33-.77,33.49-.43,5.21,.16,10.43,.38,15.65,.2,1.85-.07,3.71-.18,5.56-.39v-16.62c0-9.5-7.7-17.28-17.12-17.28h-35.6c-9.42,0-17.12,7.78-17.12,17.28v16.78c5.03,.45,10.1,.52,15.15,.47Z"/><rect class="cls-5" x="1234.48" y="835.66" width="8.53" height="45.45"/><rect class="cls-5" x="1264.33" y="835.66" width="8.53" height="45.45"/><ellipse class="cls-8" cx="1253.87" cy="798.03" rx="37.87" ry="52.05"/><path class="cls-11" d="M1216.91,761.51c1.29-10.28-2.01-29.68,33.28-23.27,37.99,6.89,50.77,28,49.48,38.29-1.29,10.28-41.16,11.57-56.79,8.74-15.63-2.84-27.26-13.47-25.97-23.75Z"/><path class="cls-11" d="M1289.77,789.2c.36,7.54-.04,12.66-.69,16.11,1.44-.08,2.89-.23,4.34-.15,1.78-4.26,2.73-10.06,2.43-16.37-.6-12.55-5.93-22.4-11.89-21.98,0,0,4.84,1.95,5.82,22.39Z"/><path class="cls-11" d="M1221.7,780.65c-.74,6.63-.25,11.26,.68,14.45-2.24-.35-4.47-.75-6.71-.96-2.65-4.12-3.98-9.46-3.36-15.01,1.24-11.04,9.73-18.78,18.96-17.28,0,0-7.54,.82-9.56,18.8Z"/><ellipse cx="1243.41" cy="797.91" rx="2.44" ry="5.99"/><ellipse cx="1263.11" cy="797.91" rx="2.44" ry="5.99"/><path class="cls-8" d="M1223.11,814.89v-11.08s0-11.09,0-11.09c-7.92,0-14.35,4.96-14.35,11.09s6.42,11.09,14.35,11.09Z"/><path class="cls-8" d="M1285.24,793.53v11.08s0,11.09,0,11.09c7.92,0,14.35-4.96,14.35-11.09,0-6.12-6.42-11.09-14.35-11.09Z"/><path class="cls-7" d="M1263.11,821.25h-9.2s-9.21,0-9.21,0c0,8.21,4.12,14.86,9.21,14.86s9.21-6.65,9.21-14.86Z"/><path class="cls-2" d="M1272.86,899.92s-6.1,5.67-19.08,5.67c-12.97,0-19.1-5.67-19.1-5.67,0,14.31,8.54,25.91,19.09,25.91s19.09-11.6,19.09-25.91Z"/><rect class="cls-5" x="1224.73" y="930.23" width="19.9" height="79.66"/><rect class="cls-5" x="1262.91" y="930.23" width="19.9" height="79.66"/><g><g><path class="cls-17" d="M1260.27,993.53l3,28.16c.17,.57,.29,1.14,.38,1.72h19.25l3.19-29.88h-25.82Z"/><path class="cls-17" d="M1303.94,1036.05c-.06-2.3-.24-4.66-.59-6.92-.04-.22-.08-.43-.13-.65-.09-.43-.19-.87-.29-1.33-3.87-6.74-12.01-11.39-21.43-11.39-7.17,0-13.6,2.69-17.97,6.96,.34,1.7,.32,3.45,.46,5.19,.2,2.5,.56,5.01,.98,7.47,.04,.25,.02,.47-.05,.67h39.02Z"/></g><path class="cls-19" d="M1303.79,1033.11h-39.47v3.42h39.62c-.02-1.13-.07-2.28-.16-3.42Z"/></g><g><g><path class="cls-17" d="M1246.16,994.2l-2.86,28.16c-.17,.57-.28,1.14-.36,1.72h-18.34l-3.04-29.88h24.6Z"/><path class="cls-17" d="M1242.62,1028.59c.13-1.74,.11-3.49,.44-5.19-4.16-4.26-10.29-6.96-17.12-6.96-7.9,0-14.86,3.6-18.93,9.07-.09,.25-.17,.49-.24,.71-.39,1.22-.73,2.49-.89,3.78-.28,2.22-.62,4.48-.93,6.73h36.78c-.07-.2-.09-.42-.05-.67,.41-2.46,.75-4.97,.94-7.47Z"/></g><path class="cls-19" d="M1205.36,1033.79c-.16,1.14-.33,2.28-.48,3.42h37.42v-3.42h-36.94Z"/></g><path class="cls-12" d="M1298.81,883.58l-22.14-16.77c-1.32-1-1.72-3.13-.89-4.72l6.55-12.53c.83-1.59,2.6-2.08,3.92-1.07l22.14,16.77c1.32,1,1.72,3.13,.89,4.72l-6.55,12.53c-.83,1.59-2.6,2.08-3.92,1.07Z"/><rect class="cls-12" x="1198.25" y="848.08" width="31.85" height="21.65" rx="10.82" ry="10.82"/><ellipse class="cls-8" cx="1312.96" cy="938.3" rx="9.04" ry="8.06"/><ellipse class="cls-8" cx="1150.32" cy="828.58" rx="9.44" ry="7.72" transform="translate(-264.11 924.29) rotate(-39.64)"/><rect class="cls-20" x="1146.97" y="805.36" width="6.7" height="232.64"/><rect class="cls-21" x="1119.15" y="799.93" width="62.54" height="10.79" rx="5.4" ry="5.4"/><rect class="cls-21" x="1105.37" y="781.98" width="40.36" height="6.29" rx="3.15" ry="3.15" transform="translate(340.42 1910.67) rotate(-90)"/><rect class="cls-21" x="1122.22" y="782.71" width="40.36" height="6.29" rx="3.15" ry="3.15" transform="translate(356.54 1928.26) rotate(-90)"/><rect class="cls-21" x="1155.32" y="782.71" width="40.36" height="6.29" rx="3.15" ry="3.15" transform="translate(389.64 1961.36) rotate(-90)"/><rect class="cls-21" x="1139.28" y="782.22" width="40.36" height="6.29" rx="3.15" ry="3.15" transform="translate(374.09 1944.83) rotate(-90)"/><rect class="cls-21" x="1140.29" y="809.5" width="20.24" height="10.58" rx="5.29" ry="5.29" transform="translate(335.62 1965.2) rotate(-90)"/></g></svg>