<?xml version="1.0" encoding="UTF-8"?><svg id="Layer_1" xmlns="http://www.w3.org/2000/svg" viewBox="0 0 500 310"><defs><style>.cls-1{fill:red;}.cls-2{fill:none;stroke:red;stroke-miterlimit:10;stroke-width:4px;}</style></defs><g><path class="cls-1" d="M163.08,142.09c0,1.4-.98,2.68-3.68,2.68-3.27,0-4.66-1.02-4.66-2.23-.9-1.02-3.35-1.79-6.79-1.79-8.75,0-16.6,5.36-16.6,9.89,0,2.3,1.47,3.13,3.6,3.13,2.29,0,5.4-.51,9.73-1.47,4.17-.89,7.77-1.53,11.94-1.53,6.87,0,12.27,2.74,12.27,8.49,0,3.83-1.64,7.02-4.58,9.7-6.05,5.81-17.26,9.06-26.66,9.06-10.55,0-14.31-5.94-14.31-8.04s1.72-3.77,4.5-3.77,3.27,2.62,4.25,4.08c1.14,1.72,3.03,2.62,6.13,2.62,6.46,0,14.72-2.68,19.14-6.51,2.62-1.92,3.35-4.15,3.35-6.77,0-2.74-1.8-3.64-5.15-3.64-3.6,0-6.71,.57-10.96,1.47-4.25,1.02-7.85,1.53-11.37,1.53-5.81,0-10.06-2.04-10.06-7.72,0-7.08,11.7-15.64,25.93-15.64,7.44,0,13.99,3.77,13.99,6.45Z"/><path class="cls-1" d="M196.13,172.73c.25,.32,.74,.89,.74,1.6,0,1.72-1.47,3.06-5.4,3.06-2.45,0-3.68-.83-3.68-2.68,0-.89,.16-1.72,.49-2.23v-29.49l-9.57,1.47c-.65,.32-1.55,.64-2.54,.64-2.29,0-3.76-1.08-3.76-2.81,0-1.85,1.55-3.25,3.35-3.25,1.39,0,1.8,.19,2.37,.45l10.88-1.66c1.15-1.08,4.5-1.47,5.89-.83l12.35-1.72c.9-.32,1.55-.45,2.54-.45,2.13,0,3.6,1.08,3.6,3,0,1.6-1.31,3.06-3.52,3.06-1.14,0-1.88-.25-2.54-.51l-11.21,1.66v30.7Z"/><path class="cls-1" d="M223.37,162.71c-4.42,6.83-5.32,8.17-5.56,9.19-.16,.89-.08,1.98-.08,2.81,0,1.4-1.06,2.68-4.83,2.68-3.03,0-4.25-1.4-4.25-2.94,0-1.4,1.55-3.7,4.5-8.43l14.23-21.83c1.72-2.49,2.54-4.02,2.86-5.3-.08-2.23,1.72-4.28,4.74-4.28,2.78,0,4.25,1.34,4.25,2.43s-.57,1.47-.57,2.36c0,1.98,7.2,12.32,9.16,15.83,6.05,9.64,9.81,16.15,9.81,18.38,0,2.36-1.88,3.77-4.83,3.77-2.54,0-4.33-1.02-4.33-2.43,0-1.02,.49-1.72,.49-2.3,0-.96-.82-3.06-5.4-10.98l-20.2,1.02Zm17.5-5.81l-6.62-11.74-7.69,12.51,14.31-.77Z"/><path class="cls-1" d="M265.74,171.96v-24.64c-.25,.13-.41,.13-.74,.13-.82,0-1.8-.77-1.8-2.43,0-2.17,1.14-3.19,2.54-3.57v-1.34c-.25-.45-.57-1.21-.57-1.85,0-1.85,2.29-3,4.66-3,2.54,0,4.5,1.53,3.6,3.7v.64c6.95-2.43,13.5-3.57,20.04-3.57s11.37,2.43,11.37,6.64c0,6.45-9.16,11.68-25.76,13.91l26.5,14.94c2.7-.83,5.32,1.02,5.32,2.55,0,2.49-2.54,3.77-4.91,3.77-1.55,0-3.11-.57-3.84-1.72l-28.71-16.34v12.45c.25,.38,.74,1.21,.74,1.98,0,2.49-2.86,3.19-5.64,3.19s-3.84-1.66-3.84-3.38c0-.64,.65-1.53,1.06-2.04Zm7.69-18.51c12.76-2.11,23.23-5.3,23.23-9.89,0-1.53-2.04-2.49-5.32-2.49-4.58,0-10.96,.89-17.91,3.45v8.94Z"/><path class="cls-1" d="M333.79,172.73c.25,.32,.74,.89,.74,1.6,0,1.72-1.47,3.06-5.4,3.06-2.45,0-3.68-.83-3.68-2.68,0-.89,.16-1.72,.49-2.23v-29.49l-9.57,1.47c-.65,.32-1.55,.64-2.54,.64-2.29,0-3.76-1.08-3.76-2.81,0-1.85,1.55-3.25,3.35-3.25,1.39,0,1.8,.19,2.37,.45l10.88-1.66c1.15-1.08,4.5-1.47,5.89-.83l12.35-1.72c.9-.32,1.55-.45,2.54-.45,2.13,0,3.6,1.08,3.6,3,0,1.6-1.31,3.06-3.52,3.06-1.14,0-1.88-.25-2.54-.51l-11.21,1.66v30.7Z"/></g><path class="cls-2" d="M341.25,99.72c23.74,16.84,113.2-20.13,116.53-15.51,3.3,4.58-89.38,34.41-83.55,52.73,6.14,19.28,118.94,18.24,118.73,21.71-.19,3.23-97.43-5.57-109.94,15.51-13.01,21.93,71.17,67.09,65.96,71.34-4.7,3.84-66.45-38.62-92.35-27.92-27.72,11.46,3.37,76.52-13.19,80.65-15.66,3.9-52.32-52.08-68.16-48.08-14.45,3.65,.85,54.09-8.79,55.83-10.91,1.97-32.19-62.2-61.56-62.03-25.82,.15-44.09,49.92-52.77,48.08-8.75-1.86,16.8-51.05-6.6-63.59-26.53-14.22-100.1,27.24-107.74,20.16-7.58-7.02,67.21-45.5,54.97-66.69-10.94-18.93-85.11-13.19-85.75-20.16-.7-7.7,90.07-12.24,92.35-27.92,2.17-14.93-77.21-31.65-74.76-37.22,2.65-6,92.81,17.61,112.14-1.55,17.7-17.55-33.17-61.94-24.19-66.69,9.09-4.8,54.81,43.9,90.15,37.22C237.96,58.94,242.62,1.06,255.5,2.01c12.15,.9,5.36,52.16,28.58,57.38,23.33,5.25,60.05-39.76,70.36-35.67,11.51,4.56-35.54,60.14-13.19,75.99Z"/></svg>