<?xml version="1.0" encoding="UTF-8"?><svg id="Layer_1" xmlns="http://www.w3.org/2000/svg" viewBox="0 0 1920 1080"><defs><style>.cls-1{fill:#0041ba;}.cls-2{fill:#006837;}.cls-3{fill:#0071ba;}.cls-4{fill:#ef5a24;}.cls-5{fill:#eddcb4;}.cls-6{fill:red;}.cls-7{fill:#666;}.cls-8{fill:#736357;}.cls-9{fill:#8cc63f;}.cls-10{fill:#d7fdff;}.cls-11{fill:#bf272d;}.cls-12{fill:#22b573;}.cls-13{fill:#a4272d;}.cls-14{fill:#8a6239;}.cls-15{fill:gray;}.cls-16{fill:#398f4a;}.cls-17{fill:#39b54a;}.cls-18{fill:#534741;}.cls-19{fill:#4eaa4a;}.cls-20,.cls-21{opacity:.8;}.cls-22{opacity:.7;}.cls-23{fill:#e5e5e5;opacity:.85;}.cls-21{fill:#fff;}</style></defs><g><rect class="cls-10" x=".24" y=".85" width="1920" height="1080"/><g><path class="cls-19" d="M510.53,1148.67c-130.49-23.8-33.1-120.23,232.32-171.04,419.21-80.24,640.32,.45,650.38,68.37,12.15,82.05-280.63,194.4-459.53,81.63-79.09-49.85-315.68,40.64-423.17,21.03Z"/><path class="cls-16" d="M-.88,1077.2c.4,.15,.79,.31,1.19,.47"/><path class="cls-16" d="M.3,1077.67c103.13,39.62,349.65-4.95,420.36,59.14,159.96,144.97,465.07,89.45,465.07,6.24,0-68.88-206.27-190.19-631.37-190.19-117.52,0-204.72,14.63-255.25,35.11v89.24"/><path class="cls-16" d="M1922.03,1098.08c0-6.03-.07-12.05-.17-18.08-1.08-1.72-.88-4.14-.12-6.61-.59-30.16-1.99-60.3-2.71-90.45-94.01-44.36-311.83-66.27-646.84,7.25-284.51,62.44-387.93,164.45-247.44,183.36,115.72,15.57,368.76-86.05,454.36-38.56,132.83,73.69,321.92,37.45,423-19.35,7.87-4.42,15.19-8.97,21.93-13.6-1.18-.79-2.02-2.1-2.02-3.96Z"/></g><path class="cls-9" d="M173.69,985.86c.28-3.93-1.73-6.43-2.95-9.89-1.34-3.79-1.81-7.78-3.48-11.47-2.42-5.35-5.61-10.63-8.82-15.44-6.73-10.08-20.29-17.66-25.22-28.49,2.44,2.16,4.02,4.94,6.22,7.28,2.23,2.38,4.6,3.21,7.13,5.09,5.27,3.92,7.97,11.79,11.25,17.52,2.92,5.11,4.77,10.85,6.44,16.45,1.38,4.61,7.42,15.13,6.67,19.54-3.94-4.14-.97-9.84-1.83-14.7-1.02-5.76-2.52-10.51-2.48-16.56,.03-4.68,.31-9.5,.05-14.16-.29-5.29-2.61-9.17-2.41-14.75-.02,4.39-.54,9.19,.19,13.48,.47,2.72,1.99,4.98,2.28,7.82,.25,2.4-.67,5.17-.24,7.54,1.68,9.37,4.79,18.15,4.85,27.72,0-10.77,.03-21.54,0-32.3-.02-6.03-.19-9.43,2.32-14.74,2.91-6.18,6.88-10.18,10.36-15.93,1.05,3.14-4.86,12.96-6.23,16.57-2.2,5.79-1.48,11.31-2.9,17.38-2.36,10.08-.7,20.89-1.3,31.33,2.36-3.44,1.44-6.93,2.89-10.5,1.74-4.3,5.28-8.16,7.32-12.5,1.36-2.9,2.67-6.79,4.5-9.37,3.11-4.38,7.39-3.92,11.39-7.02"/><path class="cls-2" d="M889.49,1039.61c.16-3.06-.94-5.01-1.61-7.7-.73-2.95-.99-6.06-1.9-8.93-1.32-4.17-3.06-8.28-4.82-12.02-3.67-7.85-11.07-13.75-13.76-22.18,1.33,1.68,2.19,3.84,3.39,5.67,1.22,1.85,2.51,2.5,3.89,3.96,2.88,3.05,4.35,9.18,6.14,13.65,1.6,3.98,2.6,8.45,3.51,12.81,.75,3.59,4.05,11.79,3.64,15.22-2.15-3.22-.53-7.67-1-11.45-.56-4.49-1.37-8.19-1.36-12.9,.01-3.64,.17-7.4,.03-11.03-.16-4.12-1.42-7.14-1.31-11.49-.01,3.42-.3,7.16,.11,10.5,.25,2.12,1.08,3.88,1.25,6.09,.14,1.87-.37,4.02-.13,5.87,.92,7.3,2.61,14.13,2.64,21.59,0-8.39,.02-16.77,0-25.16,0-4.69-.1-7.35,1.26-11.48,1.59-4.81,3.75-7.93,5.65-12.41,.57,2.45-2.65,10.09-3.4,12.91-1.2,4.51-.81,8.81-1.58,13.53-1.29,7.85-.38,16.27-.71,24.4,1.29-2.68,.79-5.4,1.58-8.17,.95-3.35,2.88-6.35,3.99-9.73,.74-2.25,1.46-5.29,2.46-7.3,1.7-3.41,4.03-3.05,6.22-5.47"/><path class="cls-17" d="M1845.76,995.59c.18-3.24-1.13-5.3-1.92-8.15-.87-3.12-1.18-6.41-2.27-9.45-1.58-4.41-3.65-8.76-5.74-12.72-4.38-8.3-13.21-14.55-16.42-23.47,1.59,1.78,2.62,4.07,4.05,6,1.45,1.96,2.99,2.64,4.64,4.19,3.43,3.23,5.19,9.71,7.32,14.43,1.9,4.21,3.1,8.94,4.19,13.55,.9,3.8,4.83,12.47,4.34,16.1-2.56-3.41-.63-8.11-1.19-12.11-.67-4.75-1.64-8.66-1.62-13.64,.02-3.85,.2-7.82,.04-11.67-.19-4.36-1.7-7.55-1.57-12.15-.01,3.62-.35,7.57,.13,11.11,.3,2.24,1.29,4.1,1.49,6.44,.16,1.98-.44,4.26-.16,6.21,1.1,7.72,3.12,14.95,3.15,22.83,0-8.87,.02-17.74,0-26.61-.01-4.97-.12-7.77,1.51-12.14,1.9-5.09,4.48-8.39,6.75-13.13,.68,2.59-3.17,10.68-4.06,13.65-1.43,4.77-.97,9.32-1.89,14.31-1.54,8.3-.46,17.21-.85,25.81,1.54-2.84,.94-5.71,1.88-8.65,1.13-3.55,3.43-6.72,4.77-10.3,.89-2.39,1.74-5.59,2.93-7.72,2.02-3.61,4.81-3.23,7.42-5.79"/><path class="cls-12" d="M1519.02,1055.7c.21-2.47-1.31-4.04-2.23-6.21-1.02-2.38-1.37-4.89-2.63-7.21-1.83-3.36-4.25-6.68-6.67-9.7-5.09-6.34-15.35-11.1-19.08-17.91,1.85,1.36,3.04,3.1,4.71,4.58,1.68,1.49,3.48,2.02,5.39,3.2,3.99,2.46,6.03,7.41,8.51,11.01,2.21,3.21,3.61,6.82,4.87,10.34,1.04,2.9,5.61,9.51,5.05,12.28-2.98-2.6-.73-6.19-1.38-9.24-.77-3.62-1.9-6.61-1.88-10.41,.02-2.94,.23-5.97,.04-8.9-.22-3.33-1.97-5.76-1.82-9.27-.02,2.76-.41,5.78,.15,8.48,.35,1.71,1.5,3.13,1.73,4.92,.19,1.51-.51,3.25-.18,4.74,1.27,5.89,3.62,11.41,3.66,17.42,0-6.77,.02-13.54,0-20.31-.01-3.79-.14-5.93,1.75-9.27,2.2-3.88,5.2-6.4,7.84-10.02,.79,1.97-3.68,8.15-4.71,10.42-1.66,3.64-1.12,7.11-2.2,10.92-1.78,6.34-.53,13.13-.99,19.69,1.78-2.17,1.09-4.36,2.18-6.6,1.32-2.7,3.99-5.13,5.54-7.86,1.03-1.82,2.02-4.27,3.4-5.89,2.35-2.75,5.59-2.46,8.62-4.42"/><path class="cls-17" d="M1450.89,1034.21c.28-3.93-1.73-6.43-2.95-9.89-1.34-3.79-1.81-7.78-3.48-11.47-2.42-5.35-5.61-10.63-8.82-15.44-6.73-10.08-20.29-17.66-25.22-28.49,2.44,2.16,4.02,4.94,6.22,7.28s4.6,3.21,7.13,5.09c5.27,3.92,7.97,11.79,11.25,17.52,2.92,5.11,4.77,10.85,6.44,16.45,1.38,4.61,7.42,15.13,6.67,19.54-3.94-4.14-.97-9.84-1.83-14.7-1.02-5.76-2.52-10.51-2.48-16.56,.03-4.68,.31-9.5,.05-14.16-.29-5.29-2.61-9.17-2.41-14.75-.02,4.39-.54,9.19,.19,13.48,.47,2.72,1.99,4.98,2.28,7.82,.25,2.4-.67,5.17-.24,7.54,1.68,9.37,4.79,18.15,4.85,27.72,0-10.77,.03-21.54,0-32.3-.02-6.03-.19-9.43,2.32-14.74,2.91-6.18,6.88-10.18,10.36-15.93,1.05,3.14-4.86,12.96-6.23,16.57-2.2,5.79-1.48,11.31-2.9,17.38-2.36,10.08-.7,20.89-1.3,31.33,2.36-3.44,1.44-6.93,2.89-10.5,1.74-4.3,5.28-8.16,7.32-12.5,1.36-2.9,2.67-6.79,4.5-9.37,3.11-4.38,7.39-3.92,11.39-7.02"/><path class="cls-2" d="M953.94,1060.7c.22-2.49-1.31-4.06-2.24-6.25-1.02-2.39-1.38-4.92-2.65-7.25-1.84-3.38-4.26-6.71-6.7-9.75-5.11-6.37-15.41-11.15-19.16-18,1.86,1.37,3.06,3.12,4.73,4.6s3.49,2.03,5.41,3.21c4.01,2.47,6.06,7.45,8.55,11.07,2.22,3.23,3.62,6.86,4.89,10.39,1.04,2.91,5.64,9.56,5.07,12.34-2.99-2.62-.73-6.22-1.39-9.29-.78-3.64-1.91-6.64-1.89-10.46,.02-2.96,.23-6,.04-8.95-.22-3.34-1.98-5.79-1.83-9.32-.02,2.77-.41,5.81,.15,8.52,.35,1.72,1.51,3.15,1.73,4.94,.19,1.51-.51,3.26-.19,4.76,1.28,5.92,3.64,11.47,3.68,17.51,0-6.8,.02-13.61,0-20.41-.01-3.81-.14-5.96,1.76-9.31,2.21-3.9,5.23-6.43,7.87-10.07,.8,1.98-3.69,8.19-4.73,10.47-1.67,3.66-1.13,7.14-2.21,10.98-1.79,6.37-.54,13.2-.99,19.79,1.79-2.18,1.1-4.38,2.19-6.63,1.32-2.72,4.01-5.16,5.56-7.9,1.04-1.83,2.03-4.29,3.42-5.92,2.36-2.77,5.62-2.47,8.65-4.44"/><path class="cls-9" d="M288.44,1017.77c.28-2-1.73-3.27-2.95-5.03-1.34-1.93-1.81-3.96-3.48-5.83-2.42-2.72-5.61-5.4-8.82-7.85-6.73-5.13-20.29-8.98-25.22-14.49,2.44,1.1,4.02,2.51,6.22,3.7,2.23,1.21,4.6,1.63,7.13,2.59,5.27,1.99,7.97,6,11.25,8.91,2.92,2.6,4.77,5.52,6.44,8.36,1.38,2.34,7.42,7.7,6.67,9.94-3.94-2.1-.97-5.01-1.83-7.47-1.02-2.93-2.52-5.35-2.48-8.42,.03-2.38,.31-4.83,.05-7.2-.29-2.69-2.61-4.66-2.41-7.5-.02,2.23-.54,4.68,.19,6.86,.47,1.38,1.99,2.53,2.28,3.98,.25,1.22-.67,2.63-.24,3.83,1.68,4.77,4.79,9.23,4.85,14.09,0-5.48,.03-10.95,0-16.43-.02-3.06-.19-4.8,2.32-7.5,2.91-3.14,6.88-5.18,10.36-8.1,1.05,1.6-4.86,6.59-6.23,8.43-2.2,2.94-1.48,5.75-2.9,8.84-2.36,5.13-.7,10.62-1.3,15.93,2.36-1.75,1.44-3.52,2.89-5.34,1.74-2.19,5.28-4.15,7.32-6.36,1.36-1.47,2.67-3.45,4.5-4.76,3.11-2.23,7.39-1.99,11.39-3.57"/><g class="cls-22"><ellipse class="cls-21" cx="1512.89" cy="164.08" rx="70.22" ry="62.18"/><ellipse class="cls-21" cx="1738.51" cy="206.02" rx="52.35" ry="62.18"/><ellipse class="cls-21" cx="1661.23" cy="225.89" rx="52.35" ry="62.18"/><ellipse class="cls-21" cx="1576.46" cy="197.93" rx="52.35" ry="62.18"/><ellipse class="cls-21" cx="1790.45" cy="170.7" rx="70.22" ry="62.18"/><ellipse class="cls-21" cx="1716.07" cy="149.36" rx="52.35" ry="62.18"/><ellipse class="cls-21" cx="1663.72" cy="141.26" rx="52.35" ry="62.18"/><ellipse class="cls-21" cx="1597.24" cy="149.36" rx="52.35" ry="62.18"/></g><g class="cls-20"><ellipse class="cls-21" cx="1192.56" cy="225.91" rx="70.22" ry="62.18"/><ellipse class="cls-21" cx="1418.18" cy="267.86" rx="52.35" ry="62.18"/><ellipse class="cls-21" cx="1340.89" cy="287.73" rx="52.35" ry="62.18"/><ellipse class="cls-21" cx="1256.13" cy="259.76" rx="52.35" ry="62.18"/><ellipse class="cls-21" cx="1470.12" cy="232.53" rx="70.22" ry="62.18"/><ellipse class="cls-21" cx="1395.74" cy="211.19" rx="52.35" ry="62.18"/><ellipse class="cls-21" cx="1343.39" cy="203.1" rx="52.35" ry="62.18"/><ellipse class="cls-21" cx="1276.91" cy="211.19" rx="52.35" ry="62.18"/></g><g class="cls-22"><ellipse class="cls-21" cx="627.56" cy="114.91" rx="70.22" ry="62.18"/><ellipse class="cls-21" cx="853.18" cy="156.86" rx="52.35" ry="62.18"/><ellipse class="cls-21" cx="775.89" cy="176.73" rx="52.35" ry="62.18"/><ellipse class="cls-21" cx="691.13" cy="148.76" rx="52.35" ry="62.18"/><ellipse class="cls-21" cx="905.12" cy="121.53" rx="70.22" ry="62.18"/><ellipse class="cls-21" cx="830.74" cy="100.19" rx="52.35" ry="62.18"/><ellipse class="cls-21" cx="778.39" cy="92.1" rx="52.35" ry="62.18"/><ellipse class="cls-21" cx="711.91" cy="100.19" rx="52.35" ry="62.18"/></g><g class="cls-22"><ellipse class="cls-21" cx="109.03" cy="227.05" rx="70.22" ry="62.18"/><ellipse class="cls-21" cx="334.65" cy="268.99" rx="52.35" ry="62.18"/><ellipse class="cls-21" cx="257.37" cy="288.86" rx="52.35" ry="62.18"/><ellipse class="cls-21" cx="172.6" cy="260.9" rx="52.35" ry="62.18"/><ellipse class="cls-21" cx="386.59" cy="233.67" rx="70.22" ry="62.18"/><ellipse class="cls-21" cx="312.21" cy="212.33" rx="52.35" ry="62.18"/><ellipse class="cls-21" cx="259.86" cy="204.23" rx="52.35" ry="62.18"/><ellipse class="cls-21" cx="193.38" cy="212.33" rx="52.35" ry="62.18"/></g></g><g><path class="cls-5" d="M1614.6,646.49c-.12,.03-.25,.06-.39,.06-3.64,.17-7.28-.09-10.91,0-15.52,6.24-40.02,10.87-66.35-5.78-13.13-8.3-23.29-19.73-30.63-29.82-4.57,5.66-9.15,11.31-13.72,16.97,8.69,13.17,23.38,31.88,44.15,43.53,35.73,20.04,66.69,6.45,78.65,0v-24.95s-.09,.01-.14,.01c-.22,0-.44-.02-.65-.04Z"/><path class="cls-5" d="M1787.39,797.82c2.03-13.1,3.17-29.65,.39-46.96-7.39-46.08-37.39-65.69-49.31-72.25,6.76-6.45,13.52-12.9,20.28-19.35,11.75,6.99,40.1,27.02,49.34,72.55,5.37,26.47,2.28,51.75-.93,68.03-6.59-.67-13.18-1.34-19.76-2.02Z"/><rect class="cls-3" x="1621.72" y="639.78" width="128.16" height="200.9" rx="34.92" ry="34.92"/><path class="cls-8" d="M1649.52,696.57c20.49-.2,40.97-1.38,61.46-.78,9.56,.28,19.14,.69,28.71,.35,3.39-.12,6.81-.32,10.2-.7v-30.02c0-17.16-14.14-31.2-31.41-31.2h-65.33c-17.28,0-31.41,14.04-31.41,31.2v30.3c9.23,.81,18.53,.94,27.79,.85Z"/><rect class="cls-3" x="1650.41" y="624.22" width="15.65" height="82.08"/><rect class="cls-3" x="1705.18" y="624.22" width="15.65" height="82.08"/><ellipse class="cls-5" cx="1685.99" cy="556.27" rx="69.48" ry="93.99"/><path class="cls-7" d="M1618.16,490.32c2.36-18.57-3.7-53.59,61.06-42.03,69.71,12.44,93.16,50.57,90.79,69.14-2.36,18.57-75.52,20.9-104.2,15.78-28.68-5.12-50.02-24.32-47.66-42.89Z"/><path class="cls-7" d="M1751.86,540.31c.66,13.62-.07,22.86-1.27,29.09,2.65-.15,5.3-.41,7.96-.27,3.27-7.69,5.01-18.16,4.46-29.56-1.1-22.67-10.87-40.44-21.82-39.69,0,0,8.88,3.53,10.68,40.43Z"/><path class="cls-7" d="M1626.96,524.88c-1.37,11.98-.45,20.33,1.24,26.1-4.1-.63-8.2-1.35-12.32-1.73-4.87-7.44-7.31-17.07-6.17-27.11,2.27-19.94,17.85-33.91,34.79-31.21,0,0-13.84,1.48-17.54,33.94Z"/><ellipse cx="1666.8" cy="556.04" rx="4.47" ry="10.81"/><ellipse cx="1702.94" cy="556.04" rx="4.47" ry="10.81"/><path class="cls-5" d="M1629.55,586.71v-20.01s0-20.03,0-20.03c-14.54,0-26.33,8.96-26.33,20.02,0,11.06,11.79,20.02,26.33,20.02Z"/><path class="cls-5" d="M1743.55,548.14v20.01s0,20.03,0,20.03c14.54,0,26.33-8.96,26.33-20.02,0-11.06-11.79-20.02-26.33-20.02Z"/><path class="cls-4" d="M1702.94,598.19h-16.89s-16.9,0-16.9,0c0,14.82,7.56,26.84,16.9,26.84s16.9-12.02,16.9-26.84Z"/><path class="cls-1" d="M1720.82,740.26s-11.2,10.24-35,10.24c-23.8,0-35.04-10.24-35.04-10.24,0,25.84,15.68,46.8,35.02,46.8,19.34,0,35.02-20.95,35.02-46.8Z"/><rect class="cls-3" x="1632.53" y="795" width="36.51" height="143.86"/><rect class="cls-3" x="1702.57" y="795" width="36.51" height="143.86"/><g><g><path class="cls-11" d="M1697.72,909.29l5.51,50.86c.32,1.02,.54,2.06,.7,3.1h35.32l5.85-53.96h-47.37Z"/><path class="cls-11" d="M1777.86,986.07c-.12-4.15-.43-8.41-1.08-12.49-.08-.39-.16-.78-.24-1.17-.17-.77-.34-1.58-.53-2.41-7.11-12.17-22.04-20.56-39.32-20.56-13.16,0-24.96,4.86-32.97,12.56,.63,3.07,.59,6.24,.84,9.37,.36,4.51,1.03,9.04,1.81,13.49,.08,.45,.03,.85-.09,1.21h71.59Z"/></g><path class="cls-13" d="M1777.59,980.78h-72.42v6.18h72.71c-.04-2.04-.14-4.11-.29-6.18Z"/></g><g><g><path class="cls-11" d="M1671.85,910.51l-5.25,50.86c-.3,1.02-.51,2.06-.66,3.1h-33.66l-5.57-53.96h45.14Z"/><path class="cls-11" d="M1665.34,972.6c.24-3.14,.2-6.3,.8-9.37-7.64-7.7-18.88-12.56-31.42-12.56-14.5,0-27.26,6.5-34.73,16.37-.16,.46-.3,.89-.43,1.28-.72,2.2-1.34,4.49-1.63,6.83-.51,4.01-1.14,8.09-1.71,12.15h67.49c-.12-.35-.16-.76-.09-1.21,.74-4.45,1.38-8.98,1.72-13.49Z"/></g><path class="cls-13" d="M1596.97,982c-.3,2.06-.6,4.12-.89,6.18h68.66v-6.18h-67.77Z"/></g><path class="cls-8" d="M1768.44,710.75l-40.63-30.29c-2.43-1.81-3.16-5.64-1.64-8.52l12.03-22.63c1.53-2.88,4.77-3.75,7.19-1.94l40.63,30.29c2.43,1.81,3.16,5.64,1.64,8.52l-12.03,22.63c-1.53,2.88-4.77,3.75-7.19,1.94Z"/><rect class="cls-8" x="1583.93" y="646.64" width="58.44" height="39.09" rx="10.82" ry="10.82"/><ellipse class="cls-5" cx="1794.4" cy="809.56" rx="16.58" ry="14.56"/><ellipse class="cls-5" cx="1495.98" cy="611.43" rx="17.22" ry="14.02" transform="translate(-63.72 1034.67) rotate(-37.41)"/><rect class="cls-14" x="1489.83" y="569.5" width="12.29" height="420.1"/><rect class="cls-15" x="1438.79" y="559.69" width="114.75" height="19.49" rx="5.4" ry="5.4"/><rect class="cls-15" x="1414.09" y="527.18" width="72.88" height="11.55" rx="3.15" ry="3.15" transform="translate(917.57 1983.49) rotate(-90)"/><rect class="cls-15" x="1445.01" y="528.51" width="72.88" height="11.55" rx="3.15" ry="3.15" transform="translate(947.17 2015.74) rotate(-90)"/><rect class="cls-15" x="1505.74" y="528.51" width="72.88" height="11.55" rx="3.15" ry="3.15" transform="translate(1007.9 2076.46) rotate(-90)"/><rect class="cls-15" x="1476.31" y="527.63" width="72.88" height="11.55" rx="3.15" ry="3.15" transform="translate(979.35 2046.15) rotate(-90)"/><rect class="cls-15" x="1477.87" y="576.82" width="36.55" height="19.42" rx="5.29" ry="5.29" transform="translate(909.61 2082.68) rotate(-90)"/></g><g><path class="cls-6" d="M112.88,397.79c.24,.32,.73,.89,.73,1.6,0,1.72-1.46,3.06-5.36,3.06-2.44,0-3.66-.83-3.66-2.68,0-.89,.16-1.72,.49-2.23v-29.49l-9.5,1.47c-.65,.32-1.54,.64-2.52,.64-2.27,0-3.74-1.08-3.74-2.81,0-1.85,1.54-3.25,3.33-3.25,1.38,0,1.79,.19,2.36,.45l10.8-1.66c1.14-1.08,4.47-1.47,5.85-.83l12.26-1.72c.89-.32,1.54-.45,2.52-.45,2.11,0,3.57,1.08,3.57,3,0,1.6-1.3,3.06-3.49,3.06-1.14,0-1.87-.25-2.52-.51l-11.13,1.66v30.7Z"/><path class="cls-6" d="M143.01,397.09c.57,.64,1.14,1.34,1.14,2.23,0,1.53-2.11,3.13-5.12,3.13s-4.96-1.28-4.96-3.32c0-.83,.49-1.66,1.14-2.3v-30.25c-.81-.45-.97-1.21-.97-1.85,0-2.3,2.6-3.77,5.69-3.77s4.39,1.79,4.39,3.45c0,.83-.49,1.85-1.3,2.55v30.13Z"/><path class="cls-6" d="M162.42,397.28l15.43-1.53c.65-.38,2.11-.89,2.84-.89,1.46,0,3.66,.77,3.66,2.87,0,2.43-1.71,3.57-3.33,3.57-.65,0-1.62-.13-2.36-.32l-17.06,1.72c-.81,.13-2.36,.38-3.49,.38-2.76,0-4.63-.96-4.63-2.94,0-1.08,.49-1.85,1.14-2.23v-31.72c-.24-.38-.65-1.08-.65-1.72,0-2.62,2.52-3.51,4.87-3.51,2.11,0,4.39,.77,4.39,3.38,0,.64-.49,1.34-.81,1.85v31.08Z"/><path class="cls-6" d="M199.7,397.28l15.43-1.53c.65-.38,2.11-.89,2.84-.89,1.46,0,3.66,.77,3.66,2.87,0,2.43-1.71,3.57-3.33,3.57-.65,0-1.62-.13-2.36-.32l-17.06,1.72c-.81,.13-2.36,.38-3.49,.38-2.76,0-4.63-.96-4.63-2.94,0-1.08,.49-1.85,1.14-2.23v-31.72c-.24-.38-.65-1.08-.65-1.72,0-2.62,2.52-3.51,4.87-3.51,2.11,0,4.39,.77,4.39,3.38,0,.64-.49,1.34-.81,1.85v31.08Z"/><path class="cls-6" d="M236.9,382.16c-4.3-6.13-12.43-9.64-17.71-15.7-1.46-.45-2.44-1.66-2.44-2.94,0-1.85,2.76-3.19,4.96-3.26,2.11,0,3.9,1.21,3.74,2.81,3.25,4.4,11.86,9.38,15.43,13.91h.16c3.74-4.15,9.83-7.4,14.29-11.94,.65-.64,1.38-1.34,1.87-2.11,.65-1.4,1.54-2.68,4.3-2.68,2.27,0,3.9,1.15,3.9,2.81,0,1.21-1.14,2.3-2.27,3.45-1.06,1.21-2.52,2.23-3.49,3.13-4.96,4.34-11.53,7.85-14.95,12.57v15.32c.33,.32,.89,.96,.89,1.72,0,1.72-1.54,3.19-5.36,3.19-2.84,0-4.22-.51-4.22-3.13,0-.83,.24-2.04,.89-2.49v-14.68Z"/><path class="cls-6" d="M278.73,397.47c.57,.38,.89,.96,.89,1.72,.08,2.55-2.44,3.26-4.79,3.26-2.52,0-4.95-1.08-4.87-3.26,0-.83,.32-1.47,.97-1.91v-31.47c-.49-.32-.65-1.02-.65-1.6,0-2.23,2.19-3.26,4.31-3.26,1.87,0,4.79,.7,4.79,2.87,0,.83-.41,1.47-.65,1.72v9.19h.16c.73-.77,2.03-1.85,4.3-3.25l13.48-8.04c.97-1.6,1.95-2.36,3.98-2.36,1.06,0,4.22,.77,4.22,2.87,0,1.28-1.54,3.13-3.66,3.25l-16.89,10.08,23.31,19.79c1.71,0,3.09,1.21,3.09,2.17,0,1.4-2.19,3.45-5.36,3.45-2.52,0-3.66-.96-3.66-2.04l-18.76-15.77c-2.11-1.85-3.33-3.19-4.06-4.4h-.16v16.98Z"/><path class="cls-6" d="M325.19,397.47c.57,.38,.89,.96,.89,1.72,.08,2.55-2.44,3.26-4.79,3.26-2.52,0-4.95-1.08-4.87-3.26,0-.83,.32-1.47,.97-1.91v-31.47c-.49-.32-.65-1.02-.65-1.6,0-2.23,2.19-3.26,4.31-3.26,1.87,0,4.79,.7,4.79,2.87,0,.83-.41,1.47-.65,1.72v9.19h.16c.73-.77,2.03-1.85,4.3-3.25l13.48-8.04c.97-1.6,1.95-2.36,3.98-2.36,1.06,0,4.22,.77,4.22,2.87,0,1.28-1.54,3.13-3.66,3.25l-16.89,10.08,23.31,19.79c1.71,0,3.09,1.21,3.09,2.17,0,1.4-2.19,3.45-5.36,3.45-2.52,0-3.66-.96-3.66-2.04l-18.76-15.77c-2.11-1.85-3.33-3.19-4.06-4.4h-.16v16.98Z"/><path class="cls-6" d="M371.73,396.83l22.42-1.21c.65-.57,1.54-.96,2.6-.96,2.76,0,4.55,1.66,4.55,3,0,2.74-2.27,3.25-6.58,3.25l-22.9,1.28c-.65,.58-2.27,1.08-4.63,1.08s-4.3-1.08-4.3-3.25c0-1.02,.49-2.11,1.06-2.81v-12c-.97-.7-1.46-1.72-1.46-2.94s.81-2.42,1.46-2.94v-10.21c-1.22-.51-1.71-1.47-1.71-2.49,0-1.21,.49-2.04,1.22-2.49-.33-.25-.41-.64-.41-1.02,0-1.34,2.03-2.3,4.55-2.3,2.68,0,4.14,1.02,4.14,2.36l19.33-1.34c.81-.45,2.03-.96,3.01-.96,3.09,0,4.63,1.4,4.63,2.94,0,2.23-1.87,3.77-4.71,3.77-1.06,0-1.87-.19-2.76-.51l-19.49,1.4v10.66l15.51-1.53c.81-.45,1.87-.89,2.92-.89,2.68,0,4.47,1.66,4.47,3.32,0,2.23-1.79,3.25-4.79,3.25-.65,0-1.3-.19-1.87-.45l-16.24,1.6v12.38Z"/><path class="cls-6" d="M424.28,397.67v-32.23c-.24-.45-.57-1.15-.57-2.11,0-1.15,1.46-2.75,4.87-2.75,2.92,0,3.82,1.6,3.41,2.94,5.04-1.92,9.91-3,16.65-3,10.07,0,17.79,7.28,17.79,14.42s-3.49,13.98-9.83,18.83c-8.2,6.19-20.87,9.25-28.43,9.25-3.33,0-4.87-.96-4.87-2.81,0-1.28,.33-1.98,.97-2.55Zm7.72-.51c6.42-.45,13.97-2.55,19.25-7.02,4.47-4.15,7.07-8.74,7.07-14.62,0-4.66-4.63-9.83-11.45-9.83-4.79,0-9.99,1.15-14.86,3.32v28.15Z"/><path class="cls-6" d="M475.04,393.96v-28.53c-1.46-2.17,.57-4.15,3.74-4.15,3.41,0,3.82,2.49,3.82,3.7v29.49c.73,1.6,3.09,3.25,6.5,3.25,10.72,0,16-5.49,16-7.21v-25.34c-.49-.32-.73-.83-.73-1.47,0-1.79,2.03-3,4.96-3,1.79,0,3.66,.89,3.66,2.62,0,.45,0,.89-.33,1.28v26.87c0,1.28-2.19,4.79-5.6,6.77-5.04,3.25-10.96,4.98-18.28,4.98-10.4,0-13.64-5.42-13.73-9.25Z"/><path class="cls-6" d="M553.34,390.77c3.98-8.55,11.86-19.21,16.89-25.34,1.3-3,2.92-3.64,4.87-3.64,2.11,0,3.82,.96,3.82,3.25,0,1.02-.65,2.23-1.62,3.26-6.58,6.51-10.56,11.62-12.43,14.36-5.2,7.53-7.72,13.98-7.72,15.77,0,2.87-1.62,4.28-5.6,4.15-2.27,.13-4.55-1.34-4.39-2.49,0-1.34,.41-2.11,.41-3.25,0-3.51-2.68-10.08-5.85-17.11-3.09-6.77-4.87-11.62-4.87-15.45,0-1.92,1.54-3,4.47-3s3.57,2.04,3.57,4.4c0,1.72,1.14,5.3,4.22,13.34,2.03,5.04,3.33,8.3,4.06,11.74h.16Z"/><path class="cls-6" d="M591.27,387.77c-4.39,6.83-5.28,8.17-5.52,9.19-.16,.89-.08,1.98-.08,2.81,0,1.4-1.06,2.68-4.79,2.68-3.01,0-4.22-1.4-4.22-2.94,0-1.4,1.54-3.7,4.47-8.42l14.13-21.83c1.71-2.49,2.52-4.02,2.84-5.3-.08-2.23,1.71-4.28,4.71-4.28,2.76,0,4.22,1.34,4.22,2.43s-.57,1.47-.57,2.36c0,1.98,7.15,12.32,9.1,15.83,6.01,9.64,9.75,16.15,9.75,18.38,0,2.36-1.87,3.77-4.79,3.77-2.52,0-4.3-1.02-4.3-2.43,0-1.02,.49-1.72,.49-2.3,0-.96-.81-3.06-5.36-10.98l-20.06,1.02Zm17.38-5.81l-6.58-11.74-7.64,12.51,14.21-.77Z"/><path class="cls-6" d="M633.18,366.07c-.41-.51-.65-1.28-.65-1.92,0-1.6,1.38-3.19,4.47-3.19,3.41,0,4.39,.83,4.39,2.43,0,1.34,1.38,3.89,3.01,6.25,2.27,3.19,6.82,7.85,11.21,11.49,3.9,3.25,7.55,6.83,8.77,8.81h.16c-.24-8.23-.24-16.53-.24-25.08-.16-.38-.81-1.02-.81-1.72,0-2.11,1.95-2.87,3.9-2.87,2.27,0,4.79,.83,4.79,2.43,0,1.02-.41,1.6-.65,2.04v33.83c.41,.38,.97,.89,.97,1.72,0,1.6-1.14,2.17-4.47,2.17-2.52,0-3.57-1.6-4.55-3.45-1.95-3.32-7.88-9.51-11.78-12.76-4.95-4.15-9.58-8.94-11.37-12.06h-.16c.16,7.66,.24,15.57,.24,23.49,.33,.38,.81,1.08,.81,1.92,0,1.91-1.22,2.87-3.98,2.87s-5.04-.77-5.04-3.06c0-.58,.57-1.4,.97-1.72v-31.59Z"/><path class="cls-6" d="M682.89,397.67v-32.23c-.24-.45-.57-1.15-.57-2.11,0-1.15,1.46-2.75,4.87-2.75,2.92,0,3.82,1.6,3.41,2.94,5.04-1.92,9.91-3,16.65-3,10.07,0,17.79,7.28,17.79,14.42s-3.49,13.98-9.83,18.83c-8.2,6.19-20.87,9.25-28.43,9.25-3.33,0-4.87-.96-4.87-2.81,0-1.28,.33-1.98,.97-2.55Zm7.72-.51c6.42-.45,13.97-2.55,19.25-7.02,4.47-4.15,7.07-8.74,7.07-14.62,0-4.66-4.63-9.83-11.45-9.83-4.79,0-9.99,1.15-14.86,3.32v28.15Z"/><path class="cls-6" d="M752.01,397.79c.24,.32,.73,.89,.73,1.6,0,1.72-1.46,3.06-5.36,3.06-2.44,0-3.66-.83-3.66-2.68,0-.89,.16-1.72,.49-2.23v-29.49l-9.5,1.47c-.65,.32-1.54,.64-2.52,.64-2.27,0-3.74-1.08-3.74-2.81,0-1.85,1.54-3.25,3.33-3.25,1.38,0,1.79,.19,2.36,.45l10.8-1.66c1.14-1.08,4.47-1.47,5.85-.83l12.26-1.72c.89-.32,1.54-.45,2.52-.45,2.11,0,3.57,1.08,3.57,3,0,1.6-1.3,3.06-3.49,3.06-1.14,0-1.87-.25-2.52-.51l-11.13,1.66v30.7Z"/><path class="cls-6" d="M782.06,385.98c.57,.45,.81,1.47,.81,2.68,0,1.47-3,2.87-5.93,2.87-2.6,0-3.57-1.98-3.57-3.19,0-.96,.49-1.85,.97-2.3v-21.51c-.57-.64-1.14-1.34-1.14-2.36,0-2.11,1.22-3.13,6.25-3.13,2.52,0,3.65,.7,3.65,2.81,0,1.28-.65,1.98-1.06,2.43v21.7Zm-8.53,13.6c0-2.43,2.6-4.98,5.44-4.98,2.36,0,3.41,1.08,3.41,3.83s-1.06,4.21-5.52,4.21c-1.79,0-3.33-1.53-3.33-3.06Z"/><path class="cls-6" d="M801.47,385.98c.57,.45,.81,1.47,.81,2.68,0,1.47-3,2.87-5.93,2.87-2.6,0-3.57-1.98-3.57-3.19,0-.96,.49-1.85,.97-2.3v-21.51c-.57-.64-1.14-1.34-1.14-2.36,0-2.11,1.22-3.13,6.25-3.13,2.52,0,3.65,.7,3.65,2.81,0,1.28-.65,1.98-1.06,2.43v21.7Zm-8.53,13.6c0-2.43,2.6-4.98,5.44-4.98,2.36,0,3.41,1.08,3.41,3.83s-1.06,4.21-5.52,4.21c-1.79,0-3.33-1.53-3.33-3.06Z"/><path class="cls-6" d="M93.48,464.28v-27.77c-.21-.38-.49-.99-.49-1.81,0-.99,1.26-2.36,4.2-2.36,2.52,0,3.29,1.37,2.94,2.53,4.34-1.65,8.54-2.58,14.35-2.58,8.68,0,15.33,6.27,15.33,12.43s-3.01,12.04-8.47,16.22c-7.07,5.33-17.99,7.97-24.5,7.97-2.87,0-4.2-.82-4.2-2.42,0-1.1,.28-1.71,.84-2.2Zm6.65-.44c5.53-.39,12.04-2.2,16.59-6.05,3.85-3.57,6.09-7.53,6.09-12.59,0-4.01-3.99-8.47-9.87-8.47-4.13,0-8.61,.99-12.81,2.86v24.25Z"/><path class="cls-6" d="M137.23,461.09v-24.58c-1.26-1.87,.49-3.57,3.22-3.57,2.94,0,3.29,2.14,3.29,3.19v25.41c.63,1.38,2.66,2.8,5.6,2.8,9.24,0,13.79-4.73,13.79-6.21v-21.83c-.42-.27-.63-.71-.63-1.26,0-1.54,1.75-2.58,4.27-2.58,1.54,0,3.15,.77,3.15,2.25,0,.38,0,.77-.28,1.1v23.15c0,1.1-1.89,4.12-4.83,5.83-4.34,2.8-9.45,4.29-15.75,4.29-8.96,0-11.76-4.67-11.83-7.97Z"/><path class="cls-6" d="M200.08,464.17c.28,.6,.49,1.26,.49,1.87,0,1.32-1.54,2.37-3.43,2.37-3.36,0-4.55-.99-4.55-2.25,0-.5,.35-1.59,.77-1.82v-11.99c-.63-.33-1.19-1.15-1.19-1.76,0-1.38,.21-2.47,1.19-2.75v-11.16c-.28-.55-.56-1.15-.56-1.59,0-1.43,2.1-2.42,4.69-2.42,1.12,0,3.15,.99,3.15,2.31,0,.71-.07,1.37-.56,1.81v10.45l20.72-1.04v-9.18c-.49-.6-.56-1.43-.56-2.03,0-1.43,2.03-2.31,3.85-2.31,1.68,0,3.99,1.21,3.99,2.15,0,.66-.14,1.21-.56,1.76v27.83c.35,.5,.56,1.26,.56,1.87,0,1.27-2.24,2.15-4.06,2.15-2.03,0-3.99-1.1-3.99-2.58,0-.66,.42-1.49,.77-1.92v-12.92l-20.72,1.04v12.15Z"/><path class="cls-6" d="M245.65,455.76c-3.78,5.88-4.55,7.04-4.76,7.92-.14,.77-.07,1.7-.07,2.42,0,1.21-.91,2.31-4.13,2.31-2.59,0-3.64-1.21-3.64-2.53,0-1.21,1.33-3.19,3.85-7.26l12.18-18.81c1.47-2.14,2.17-3.46,2.45-4.56-.07-1.92,1.47-3.68,4.06-3.68,2.38,0,3.64,1.16,3.64,2.09s-.49,1.26-.49,2.04c0,1.7,6.16,10.61,7.84,13.64,5.18,8.3,8.4,13.91,8.4,15.84,0,2.04-1.61,3.25-4.13,3.25-2.17,0-3.71-.88-3.71-2.09,0-.88,.42-1.49,.42-1.98,0-.82-.7-2.64-4.62-9.46l-17.29,.88Zm14.98-5l-5.67-10.12-6.58,10.78,12.25-.66Z"/><path class="cls-6" d="M281.91,463.73v-21.23c-.21,.11-.35,.11-.63,.11-.7,0-1.54-.66-1.54-2.09,0-1.87,.98-2.75,2.17-3.08v-1.16c-.21-.38-.49-1.04-.49-1.59,0-1.59,1.96-2.58,3.99-2.58,2.17,0,3.85,1.32,3.08,3.19v.55c5.95-2.09,11.55-3.08,17.15-3.08s9.73,2.09,9.73,5.72c0,5.55-7.84,10.06-22.05,11.99l22.68,12.87c2.31-.71,4.55,.88,4.55,2.2,0,2.15-2.17,3.25-4.2,3.25-1.33,0-2.66-.5-3.29-1.49l-24.57-14.08v10.72c.21,.33,.63,1.04,.63,1.71,0,2.14-2.45,2.75-4.83,2.75s-3.29-1.43-3.29-2.92c0-.55,.56-1.32,.91-1.76Zm6.58-15.95c10.92-1.81,19.88-4.56,19.88-8.52,0-1.32-1.75-2.14-4.55-2.14-3.92,0-9.38,.77-15.33,2.97v7.7Z"/><path class="cls-6" d="M338.11,463.73v-21.23c-.21,.11-.35,.11-.63,.11-.7,0-1.54-.66-1.54-2.09,0-1.87,.98-2.75,2.17-3.08v-1.16c-.21-.38-.49-1.04-.49-1.59,0-1.59,1.96-2.58,3.99-2.58,2.17,0,3.85,1.32,3.08,3.19v.55c5.95-2.09,11.55-3.08,17.15-3.08s9.73,2.09,9.73,5.72c0,5.55-7.84,10.06-22.05,11.99l22.68,12.87c2.31-.71,4.55,.88,4.55,2.2,0,2.15-2.17,3.25-4.2,3.25-1.33,0-2.66-.5-3.29-1.49l-24.57-14.08v10.72c.21,.33,.63,1.04,.63,1.71,0,2.14-2.45,2.75-4.83,2.75s-3.29-1.43-3.29-2.92c0-.55,.56-1.32,.91-1.76Zm6.58-15.95c10.92-1.81,19.88-4.56,19.88-8.52,0-1.32-1.75-2.14-4.55-2.14-3.92,0-9.38,.77-15.33,2.97v7.7Z"/><path class="cls-6" d="M387.74,463.57l19.32-1.04c.56-.5,1.33-.83,2.24-.83,2.38,0,3.92,1.43,3.92,2.58,0,2.37-1.96,2.8-5.67,2.8l-19.74,1.1c-.56,.5-1.96,.94-3.99,.94s-3.71-.94-3.71-2.8c0-.88,.42-1.82,.91-2.42v-10.34c-.84-.6-1.26-1.48-1.26-2.53s.7-2.09,1.26-2.53v-8.8c-1.05-.44-1.47-1.26-1.47-2.14,0-1.04,.42-1.76,1.05-2.14-.28-.22-.35-.55-.35-.88,0-1.16,1.75-1.98,3.92-1.98,2.31,0,3.57,.88,3.57,2.03l16.66-1.15c.7-.38,1.75-.83,2.59-.83,2.66,0,3.99,1.21,3.99,2.53,0,1.92-1.61,3.25-4.06,3.25-.91,0-1.61-.17-2.38-.44l-16.8,1.21v9.18l13.37-1.32c.7-.38,1.61-.77,2.52-.77,2.31,0,3.85,1.43,3.85,2.86,0,1.92-1.54,2.8-4.13,2.8-.56,0-1.12-.17-1.61-.38l-14,1.37v10.67Z"/><path class="cls-6" d="M419.87,464.28v-27.77c-.21-.38-.49-.99-.49-1.81,0-.99,1.26-2.36,4.2-2.36,2.52,0,3.29,1.37,2.94,2.53,4.34-1.65,8.54-2.58,14.35-2.58,8.68,0,15.33,6.27,15.33,12.43s-3.01,12.04-8.47,16.22c-7.07,5.33-17.99,7.97-24.5,7.97-2.87,0-4.2-.82-4.2-2.42,0-1.1,.28-1.71,.84-2.2Zm6.65-.44c5.53-.39,12.04-2.2,16.59-6.05,3.85-3.57,6.09-7.53,6.09-12.59,0-4.01-3.99-8.47-9.87-8.47-4.13,0-8.61,.99-12.81,2.86v24.25Z"/><path class="cls-6" d="M463.34,464.28v-27.77c-.21-.38-.49-.99-.49-1.81,0-.99,1.26-2.36,4.2-2.36,2.52,0,3.29,1.37,2.94,2.53,4.34-1.65,8.54-2.58,14.35-2.58,8.68,0,15.33,6.27,15.33,12.43s-3.01,12.04-8.47,16.22c-7.07,5.33-17.99,7.97-24.5,7.97-2.87,0-4.2-.82-4.2-2.42,0-1.1,.28-1.71,.84-2.2Zm6.65-.44c5.53-.39,12.04-2.2,16.59-6.05,3.85-3.57,6.09-7.53,6.09-12.59,0-4.01-3.99-8.47-9.87-8.47-4.13,0-8.61,.99-12.81,2.86v24.25Z"/><path class="cls-6" d="M513.94,463.57l19.32-1.04c.56-.5,1.33-.83,2.24-.83,2.38,0,3.92,1.43,3.92,2.58,0,2.37-1.96,2.8-5.67,2.8l-19.74,1.1c-.56,.5-1.96,.94-3.99,.94s-3.71-.94-3.71-2.8c0-.88,.42-1.82,.91-2.42v-10.34c-.84-.6-1.26-1.48-1.26-2.53s.7-2.09,1.26-2.53v-8.8c-1.05-.44-1.47-1.26-1.47-2.14,0-1.04,.42-1.76,1.05-2.14-.28-.22-.35-.55-.35-.88,0-1.16,1.75-1.98,3.92-1.98,2.31,0,3.57,.88,3.57,2.03l16.66-1.15c.7-.38,1.75-.83,2.59-.83,2.66,0,3.99,1.21,3.99,2.53,0,1.92-1.61,3.25-4.06,3.25-.91,0-1.61-.17-2.38-.44l-16.8,1.21v9.18l13.37-1.32c.7-.38,1.61-.77,2.52-.77,2.31,0,3.85,1.43,3.85,2.86,0,1.92-1.54,2.8-4.13,2.8-.56,0-1.12-.17-1.61-.38l-14,1.37v10.67Z"/><path class="cls-6" d="M562.17,464.39c.21,.27,.63,.77,.63,1.38,0,1.48-1.26,2.64-4.62,2.64-2.1,0-3.15-.71-3.15-2.31,0-.77,.14-1.48,.42-1.92v-25.41l-8.19,1.26c-.56,.28-1.33,.55-2.17,.55-1.96,0-3.22-.93-3.22-2.42,0-1.59,1.33-2.8,2.87-2.8,1.19,0,1.54,.17,2.03,.38l9.31-1.43c.98-.94,3.85-1.26,5.04-.71l10.57-1.49c.77-.27,1.33-.38,2.17-.38,1.82,0,3.08,.93,3.08,2.58,0,1.38-1.12,2.64-3.01,2.64-.98,0-1.61-.22-2.17-.44l-9.59,1.43v26.45Z"/><path class="cls-6" d="M594.58,437.5c-.42-.55-.63-1.16-.63-1.71,0-1.92,2.38-2.69,4.55-2.69,1.61,0,2.8,.71,2.73,1.71,3.99-1.32,10.92-2.47,15.47-2.47,5.32,0,9.24,1.92,9.24,4.67,0,3.25-2.59,5.99-7.77,7.81v.11c.84-.11,1.54-.17,2.31-.17,6.58,0,10.99,3.41,10.99,6.98,0,11.82-24.99,16.94-34.09,16.94-2.8,0-4.13-.88-4.13-2.47,0-.99,.56-1.81,1.33-2.03v-26.67Zm6.72,8.3c7.77-.33,17.85-3.85,17.85-7.15,0-1.1-.98-1.98-5.04-1.98-3.5,0-9.94,1.32-12.81,2.64v6.49Zm0,17.87c9.03-.61,23.17-4.78,23.17-11.27,0-1.71-2.38-4.01-8.4-4.01-3.85,0-9.52,.82-12.25,1.54-1.89,.55-2.52,.99-2.52,1.7v12.04Z"/><path class="cls-6" d="M674.79,448.12c0,12.04-10.71,21.01-23.8,21.01-11.34,0-14.98-8.3-14.98-14.41,0-11,10.85-23.65,23.17-23.65,8.05,0,15.61,4.62,15.61,17.05Zm-31.78,5.94c0,5.06,2.52,10.67,9.24,10.67,7.63,0,15.54-6.93,15.54-16.44,0-8.58-3.57-12.81-9.38-12.81-7.28,0-15.4,10.01-15.4,18.59Z"/><path class="cls-6" d="M682.63,437.06c-.35-.44-.56-1.1-.56-1.65,0-1.38,1.19-2.75,3.85-2.75,2.94,0,3.78,.71,3.78,2.09,0,1.16,1.19,3.35,2.59,5.39,1.96,2.75,5.88,6.76,9.66,9.9,3.36,2.8,6.51,5.88,7.56,7.59h.14c-.21-7.09-.21-14.24-.21-21.61-.14-.33-.7-.88-.7-1.49,0-1.81,1.68-2.47,3.36-2.47,1.96,0,4.13,.71,4.13,2.09,0,.88-.35,1.38-.56,1.76v29.15c.35,.33,.84,.77,.84,1.49,0,1.38-.98,1.87-3.85,1.87-2.17,0-3.08-1.38-3.92-2.97-1.68-2.86-6.79-8.19-10.15-11-4.27-3.57-8.26-7.7-9.8-10.39h-.14c.14,6.6,.21,13.42,.21,20.24,.28,.33,.7,.93,.7,1.65,0,1.65-1.05,2.47-3.43,2.47s-4.34-.66-4.34-2.64c0-.5,.49-1.21,.84-1.49v-27.22Z"/><path class="cls-6" d="M725.47,464.28v-27.77c-.21-.38-.49-.99-.49-1.81,0-.99,1.26-2.36,4.2-2.36,2.52,0,3.29,1.37,2.94,2.53,4.34-1.65,8.54-2.58,14.35-2.58,8.68,0,15.33,6.27,15.33,12.43s-3.01,12.04-8.47,16.22c-7.07,5.33-17.99,7.97-24.5,7.97-2.87,0-4.2-.82-4.2-2.42,0-1.1,.28-1.71,.84-2.2Zm6.65-.44c5.53-.39,12.04-2.2,16.59-6.05,3.85-3.57,6.09-7.53,6.09-12.59,0-4.01-3.99-8.47-9.87-8.47-4.13,0-8.61,.99-12.81,2.86v24.25Z"/><path class="cls-6" d="M776.07,463.57l19.32-1.04c.56-.5,1.33-.83,2.24-.83,2.38,0,3.92,1.43,3.92,2.58,0,2.37-1.96,2.8-5.67,2.8l-19.74,1.1c-.56,.5-1.96,.94-3.99,.94s-3.71-.94-3.71-2.8c0-.88,.42-1.82,.91-2.42v-10.34c-.84-.6-1.26-1.48-1.26-2.53s.7-2.09,1.26-2.53v-8.8c-1.05-.44-1.47-1.26-1.47-2.14,0-1.04,.42-1.76,1.05-2.14-.28-.22-.35-.55-.35-.88,0-1.16,1.75-1.98,3.92-1.98,2.31,0,3.57,.88,3.57,2.03l16.66-1.15c.7-.38,1.75-.83,2.59-.83,2.66,0,3.99,1.21,3.99,2.53,0,1.92-1.61,3.25-4.06,3.25-.91,0-1.61-.17-2.38-.44l-16.8,1.21v9.18l13.37-1.32c.7-.38,1.61-.77,2.52-.77,2.31,0,3.85,1.43,3.85,2.86,0,1.92-1.54,2.8-4.13,2.8-.56,0-1.12-.17-1.61-.38l-14,1.37v10.67Z"/><path class="cls-6" d="M808.41,464.12v-28.6c-.07-1.98,1.4-2.7,3.78-2.75,2.17,.05,3.29,.88,3.29,2.14,.28,4.95,12.18,16.22,14.63,24.42h.21c2.94-8.08,14.98-17.32,15.61-22.6,0-.66-.21-1.71-.21-2.37,0-1.1,1.4-1.81,3.5-1.81,3.15,0,4.69,1.04,4.69,2.69,0,.61-.28,1.26-.49,1.65v27.39c.49,.38,.63,.99,.63,1.54,0,1.71-2.03,2.58-4.13,2.58-2.66,0-3.71-.83-3.71-2.2,0-.71,.28-1.32,.77-1.71,0-6.21,0-12.65,.21-19.03h-.14c-4.2,5.66-13.37,16.77-13.58,20.73-.07,1.38-1.47,1.92-3.5,1.92-3.01,0-3.99-1.26-3.99-2.97,0-4.07-6.72-13.14-11.41-19.91h-.21c.21,6.1,.21,12.48,.21,18.7,.49,.38,.84,.99,.84,1.92,0,1.43-1.26,2.53-3.85,2.53s-3.71-1.16-3.71-2.58c0-.61,.14-1.38,.56-1.71Z"/><path class="cls-6" d="M871.97,455.76c-3.78,5.88-4.55,7.04-4.76,7.92-.14,.77-.07,1.7-.07,2.42,0,1.21-.91,2.31-4.13,2.31-2.59,0-3.64-1.21-3.64-2.53,0-1.21,1.33-3.19,3.85-7.26l12.18-18.81c1.47-2.14,2.17-3.46,2.45-4.56-.07-1.92,1.47-3.68,4.06-3.68,2.38,0,3.64,1.16,3.64,2.09s-.49,1.26-.49,2.04c0,1.7,6.16,10.61,7.84,13.64,5.18,8.3,8.4,13.91,8.4,15.84,0,2.04-1.61,3.25-4.13,3.25-2.17,0-3.71-.88-3.71-2.09,0-.88,.42-1.49,.42-1.98,0-.82-.7-2.64-4.62-9.46l-17.29,.88Zm14.98-5l-5.67-10.12-6.58,10.78,12.25-.66Z"/><path class="cls-6" d="M908.09,437.06c-.35-.44-.56-1.1-.56-1.65,0-1.38,1.19-2.75,3.85-2.75,2.94,0,3.78,.71,3.78,2.09,0,1.16,1.19,3.35,2.59,5.39,1.96,2.75,5.88,6.76,9.66,9.9,3.36,2.8,6.51,5.88,7.56,7.59h.14c-.21-7.09-.21-14.24-.21-21.61-.14-.33-.7-.88-.7-1.49,0-1.81,1.68-2.47,3.36-2.47,1.96,0,4.13,.71,4.13,2.09,0,.88-.35,1.38-.56,1.76v29.15c.35,.33,.84,.77,.84,1.49,0,1.38-.98,1.87-3.85,1.87-2.17,0-3.08-1.38-3.92-2.97-1.68-2.86-6.79-8.19-10.15-11-4.27-3.57-8.26-7.7-9.8-10.39h-.14c.14,6.6,.21,13.42,.21,20.24,.28,.33,.7,.93,.7,1.65,0,1.65-1.05,2.47-3.43,2.47s-4.34-.66-4.34-2.64c0-.5,.49-1.21,.84-1.49v-27.22Z"/><path class="cls-6" d="M950.92,464.28v-27.77c-.21-.38-.49-.99-.49-1.81,0-.99,1.26-2.36,4.2-2.36,2.52,0,3.29,1.37,2.94,2.53,4.34-1.65,8.54-2.58,14.35-2.58,8.68,0,15.33,6.27,15.33,12.43s-3.01,12.04-8.47,16.22c-7.07,5.33-17.99,7.97-24.5,7.97-2.87,0-4.2-.82-4.2-2.42,0-1.1,.28-1.71,.84-2.2Zm6.65-.44c5.53-.39,12.04-2.2,16.59-6.05,3.85-3.57,6.09-7.53,6.09-12.59,0-4.01-3.99-8.47-9.87-8.47-4.13,0-8.61,.99-12.81,2.86v24.25Z"/><path class="cls-6" d="M1001.53,463.57l19.32-1.04c.56-.5,1.33-.83,2.24-.83,2.38,0,3.92,1.43,3.92,2.58,0,2.37-1.96,2.8-5.67,2.8l-19.74,1.1c-.56,.5-1.96,.94-3.99,.94s-3.71-.94-3.71-2.8c0-.88,.42-1.82,.91-2.42v-10.34c-.84-.6-1.26-1.48-1.26-2.53s.7-2.09,1.26-2.53v-8.8c-1.05-.44-1.47-1.26-1.47-2.14,0-1.04,.42-1.76,1.05-2.14-.28-.22-.35-.55-.35-.88,0-1.16,1.75-1.98,3.92-1.98,2.31,0,3.57,.88,3.57,2.03l16.66-1.15c.7-.38,1.75-.83,2.59-.83,2.66,0,3.99,1.21,3.99,2.53,0,1.92-1.61,3.25-4.06,3.25-.91,0-1.61-.17-2.38-.44l-16.8,1.21v9.18l13.37-1.32c.7-.38,1.61-.77,2.52-.77,2.31,0,3.85,1.43,3.85,2.86,0,1.92-1.54,2.8-4.13,2.8-.56,0-1.12-.17-1.61-.38l-14,1.37v10.67Z"/><path class="cls-6" d="M1034.08,437.06c-.35-.44-.56-1.1-.56-1.65,0-1.38,1.19-2.75,3.85-2.75,2.94,0,3.78,.71,3.78,2.09,0,1.16,1.19,3.35,2.59,5.39,1.96,2.75,5.88,6.76,9.66,9.9,3.36,2.8,6.51,5.88,7.56,7.59h.14c-.21-7.09-.21-14.24-.21-21.61-.14-.33-.7-.88-.7-1.49,0-1.81,1.68-2.47,3.36-2.47,1.96,0,4.13,.71,4.13,2.09,0,.88-.35,1.38-.56,1.76v29.15c.35,.33,.84,.77,.84,1.49,0,1.38-.98,1.87-3.85,1.87-2.17,0-3.08-1.38-3.92-2.97-1.68-2.86-6.79-8.19-10.15-11-4.27-3.57-8.26-7.7-9.8-10.39h-.14c.14,6.6,.21,13.42,.21,20.24,.28,.33,.7,.93,.7,1.65,0,1.65-1.05,2.47-3.43,2.47s-4.34-.66-4.34-2.64c0-.5,.49-1.21,.84-1.49v-27.22Z"/><path class="cls-6" d="M1109.32,438c0,1.21-.84,2.31-3.15,2.31-2.8,0-3.99-.88-3.99-1.92-.77-.88-2.87-1.54-5.81-1.54-7.49,0-14.21,4.62-14.21,8.52,0,1.98,1.26,2.69,3.08,2.69,1.96,0,4.62-.44,8.33-1.26,3.57-.77,6.65-1.32,10.22-1.32,5.88,0,10.5,2.37,10.5,7.31,0,3.3-1.4,6.05-3.92,8.36-5.18,5-14.77,7.81-22.82,7.81-9.03,0-12.25-5.11-12.25-6.93s1.47-3.24,3.85-3.24,2.8,2.25,3.64,3.52c.98,1.48,2.59,2.25,5.25,2.25,5.53,0,12.6-2.31,16.38-5.61,2.24-1.65,2.87-3.57,2.87-5.83,0-2.37-1.54-3.13-4.41-3.13-3.08,0-5.74,.5-9.38,1.26-3.64,.88-6.72,1.32-9.73,1.32-4.97,0-8.61-1.76-8.61-6.65,0-6.1,10.01-13.47,22.19-13.47,6.37,0,11.97,3.25,11.97,5.55Z"/><path class="cls-6" d="M1164.41,464.17c3.5,0,14.56-.44,16.94-1.21,.49-.17,1.4-.33,2.24-.33,1.05,0,2.03,.77,2.03,2.31,0,2.14-1.89,2.91-3.78,2.91l-19.6,.71c-.84,.06-1.82,.28-3.08,.28-1.61,0-2.87-.71-2.87-2.47,0-1.21,.56-2.09,1.54-2.31v-10.34l-12.67,.71c-5.32,7.04-6.93,9.46-6.93,11.22s-2.03,2.75-4.41,2.75c-1.75,0-3.85-.94-3.85-2.64,0-1.38,1.12-2.58,2.52-2.92,1.12-1.71,3.29-5.11,9.73-12.87,4.34-5.22,10.43-10.94,14.77-15.23,.07-1.15,.98-2.86,3.57-2.86s4.27,.61,4.27,1.65c0,.44-.14,.83-.35,1.04l13.16-.66c1.19-.17,2.1-.88,3.36-.88,1.61,0,3.08,1.04,3.08,2.75,0,1.98-1.61,3.02-3.01,3.02-1.05,0-2.24-.33-2.94-.55l-13.72,.66v10.23l11.2-.66c1.26-.16,3.01-.77,3.99-.77,1.82,0,2.87,.77,2.87,1.98,0,2.31-1.82,2.8-4.06,2.86l-14,.82v10.78Zm-6.58-24.03c-2.8,2.8-6.3,6.71-8.89,10.01l8.89-.61v-9.4Z"/><path class="cls-6" d="M1192.69,437.5c-.42-.55-.63-1.16-.63-1.71,0-1.92,2.38-2.69,4.55-2.69,1.61,0,2.8,.71,2.73,1.71,3.99-1.32,10.92-2.47,15.47-2.47,5.32,0,9.24,1.92,9.24,4.67,0,3.25-2.59,5.99-7.77,7.81v.11c.84-.11,1.54-.17,2.31-.17,6.58,0,10.99,3.41,10.99,6.98,0,11.82-24.99,16.94-34.09,16.94-2.8,0-4.13-.88-4.13-2.47,0-.99,.56-1.81,1.33-2.03v-26.67Zm6.72,8.3c7.77-.33,17.85-3.85,17.85-7.15,0-1.1-.98-1.98-5.04-1.98-3.5,0-9.94,1.32-12.81,2.64v6.49Zm0,17.87c9.03-.61,23.17-4.78,23.17-11.27,0-1.71-2.38-4.01-8.4-4.01-3.85,0-9.52,.82-12.25,1.54-1.89,.55-2.52,.99-2.52,1.7v12.04Z"/><path class="cls-6" d="M1243.65,463.95l13.3-1.32c.56-.33,1.82-.77,2.45-.77,1.26,0,3.15,.66,3.15,2.47,0,2.09-1.47,3.08-2.87,3.08-.56,0-1.4-.11-2.03-.28l-14.7,1.49c-.7,.11-2.03,.33-3.01,.33-2.38,0-3.99-.83-3.99-2.53,0-.93,.42-1.59,.98-1.92v-27.33c-.21-.33-.56-.93-.56-1.48,0-2.25,2.17-3.03,4.2-3.03,1.82,0,3.78,.66,3.78,2.92,0,.55-.42,1.16-.7,1.59v26.78Z"/><path class="cls-6" d="M1275.84,463.57l19.32-1.04c.56-.5,1.33-.83,2.24-.83,2.38,0,3.92,1.43,3.92,2.58,0,2.37-1.96,2.8-5.67,2.8l-19.74,1.1c-.56,.5-1.96,.94-3.99,.94s-3.71-.94-3.71-2.8c0-.88,.42-1.82,.91-2.42v-10.34c-.84-.6-1.26-1.48-1.26-2.53s.7-2.09,1.26-2.53v-8.8c-1.05-.44-1.47-1.26-1.47-2.14,0-1.04,.42-1.76,1.05-2.14-.28-.22-.35-.55-.35-.88,0-1.16,1.75-1.98,3.92-1.98,2.31,0,3.57,.88,3.57,2.03l16.66-1.15c.7-.38,1.75-.83,2.59-.83,2.66,0,3.99,1.21,3.99,2.53,0,1.92-1.61,3.25-4.06,3.25-.91,0-1.61-.17-2.38-.44l-16.8,1.21v9.18l13.37-1.32c.7-.38,1.61-.77,2.52-.77,2.31,0,3.85,1.43,3.85,2.86,0,1.92-1.54,2.8-4.13,2.8-.56,0-1.12-.17-1.61-.38l-14,1.37v10.67Z"/><path class="cls-6" d="M1308.53,463.73v-21.23c-.21,.11-.35,.11-.63,.11-.7,0-1.54-.66-1.54-2.09,0-1.87,.98-2.75,2.17-3.08v-1.16c-.21-.38-.49-1.04-.49-1.59,0-1.59,1.96-2.58,3.99-2.58,2.17,0,3.85,1.32,3.08,3.19v.55c5.95-2.09,11.55-3.08,17.15-3.08s9.73,2.09,9.73,5.72c0,5.55-7.84,10.06-22.05,11.99l22.68,12.87c2.31-.71,4.55,.88,4.55,2.2,0,2.15-2.17,3.25-4.2,3.25-1.33,0-2.66-.5-3.29-1.49l-24.57-14.08v10.72c.21,.33,.63,1.04,.63,1.71,0,2.14-2.45,2.75-4.83,2.75s-3.29-1.43-3.29-2.92c0-.55,.56-1.32,.91-1.76Zm6.58-15.95c10.92-1.81,19.88-4.56,19.88-8.52,0-1.32-1.75-2.14-4.55-2.14-3.92,0-9.38,.77-15.33,2.97v7.7Z"/><path class="cls-6" d="M1358.02,454.22c.49,.38,.7,1.26,.7,2.31,0,1.26-2.59,2.47-5.11,2.47-2.24,0-3.08-1.71-3.08-2.75,0-.82,.42-1.59,.84-1.98v-18.53c-.49-.55-.98-1.16-.98-2.04,0-1.81,1.05-2.69,5.39-2.69,2.17,0,3.15,.6,3.15,2.42,0,1.1-.56,1.7-.91,2.09v18.7Zm-7.35,11.71c0-2.09,2.24-4.29,4.69-4.29,2.03,0,2.94,.93,2.94,3.3s-.91,3.63-4.76,3.63c-1.54,0-2.87-1.32-2.87-2.64Z"/></g><g><path class="cls-6" d="M1377.96,1022.73c.1,1.75,0,3.35-.26,4.83-.18,1.02-.89,5.02-3.89,9.78-1.56,2.47-3.62,5.74-7.85,8.63-4.79,3.28-9.65,4.23-13.27,4.93-3.9,.76-11.25,2.19-19.04-.36-4.62-1.52-7.6-3.84-9.48-5.32-4.09-3.2-6.09-6.32-6.57-7.09-.85-1.35-1.61-2.88-2.22-4.63-.19-.56-3.28-10,1.62-18.65,.78-1.38,2.46-4.27,5.91-6.47,.33-.21,.59-.36,.67-.41,3.74-2.15,7.53-2.15,8.81-2.13,5.98,.08,6.33,2.89,10.18,2.3,3.7-.57,3.56-3.2,8.63-5.38,1.44-.62,5.47-2.31,10.25-1.34,5.36,1.09,8.67,4.86,10.39,6.82,1.86,2.12,5.7,7.24,6.13,14.5Z"/><path class="cls-18" d="M1346.98,1013.05c-1.38,.24-2.77,.48-4.15,.71-2.23-6.5-4.47-13.01-6.7-19.51,1.97-1.95,3.94-3.91,5.92-5.86l4.94,24.66Z"/><path class="cls-23" d="M1321.96,1022.18c-2.63,.81-2.84-2.21,.61-5.96,5.45-5.93,10.67-6.45,12.14-5.11,1.77,1.62-.97,6.95-6.1,6.36-2.27-.26-4.48,4.04-6.65,4.71Z"/><g><path class="cls-2" d="M1362.92,986.2c-1.62,.22-2.98,.6-4.01,.95-1.6,.54-2.84,1.16-3.88,1.68-.92,.46-1.7,.89-2.26,1.22,1.08-.61,2.25-1.26,2.26-1.22,.02,.06-3.14,1.61-5.5,3.74-2.11,1.9-4.59,5.19-6.24,11.28,3.19-2.5,6.58-5.31,10.09-8.47,3.49-3.13,6.66-6.22,9.54-9.17Z"/><path class="cls-2" d="M1343.3,1003.65c1.62-.22,2.98-.6,4.01-.95,1.6-.54,2.84-1.16,3.88-1.68,.92-.46,1.7-.89,2.26-1.22-1.08,.61-2.25,1.26-2.26,1.22-.02-.06,3.14-1.61,5.5-3.74,2.11-1.9,4.59-5.19,6.24-11.28-3.19,2.5-6.58,5.31-10.09,8.47-3.49,3.13-6.66,6.22-9.54,9.17Z"/></g></g><g><path class="cls-6" d="M1105.18,963.39c-.52,2.27-1.24,4.29-2.09,6.11-.58,1.25-2.9,6.14-8.19,11.21-2.75,2.63-6.38,6.11-12.44,8.38-6.86,2.56-12.94,2.11-17.47,1.77-4.87-.36-14.08-1.05-22.33-7-4.9-3.53-7.55-7.54-9.23-10.08-3.64-5.51-4.86-10.2-5.15-11.36-.51-2.02-.85-4.24-.91-6.7-.02-.79-.19-13.96,8.77-23.37,1.43-1.51,4.48-4.63,9.35-6.27,.47-.16,.83-.26,.94-.29,5.2-1.47,9.67-.17,11.18,.29,7.03,2.15,6.41,5.89,11.17,6.44,4.57,.53,5.37-2.89,12.16-3.94,1.92-.3,7.31-1.09,12.59,1.8,5.92,3.23,8.44,9.21,9.75,12.31,1.41,3.36,4.06,11.24,1.9,20.7Z"/><path class="cls-18" d="M1072.2,940.33c-1.72-.17-3.44-.34-5.16-.51-.25-9.11-.49-18.22-.74-27.33,3.04-1.83,6.09-3.66,9.13-5.49l-3.23,33.33Z"/><path class="cls-23" d="M1039.32,943.45c-3.4,.14-2.54-3.82,2.91-7.44,8.61-5.73,14.96-4.6,16.19-2.39,1.49,2.68-3.69,8.58-9.53,6.07-2.58-1.11-6.77,3.65-9.57,3.76Z"/><g><path class="cls-2" d="M1100.86,911.36c-1.99-.27-3.74-.25-5.07-.16-2.09,.14-3.78,.51-5.19,.82-1.26,.28-2.33,.56-3.12,.79,1.5-.41,3.12-.85,3.12-.79,0,.09-4.3,.98-7.86,2.91-3.18,1.72-7.32,5.09-11.51,12.33,4.69-2.11,9.71-4.55,15.02-7.4,5.26-2.82,10.15-5.69,14.62-8.49Z"/><path class="cls-2" d="M1071.3,927.01c1.99,.27,3.74,.25,5.07,.16,2.09-.14,3.78-.51,5.19-.82,1.26-.28,2.33-.56,3.12-.79-1.5,.41-3.12,.85-3.12,.79,0-.09,4.3-.98,7.86-2.91,3.18-1.72,7.32-5.09,11.51-12.33-4.69,2.11-9.71,4.55-15.02,7.4-5.26,2.82-10.15,5.69-14.62,8.49Z"/></g></g><g><path class="cls-6" d="M590.98,1007.9c.08,1.96-.08,3.75-.41,5.4-.22,1.14-1.12,5.6-4.62,10.87-1.82,2.73-4.22,6.35-9.07,9.51-5.49,3.58-11.01,4.55-15.12,5.27-4.42,.78-12.78,2.24-21.53-.77-5.2-1.78-8.51-4.45-10.61-6.13-4.55-3.66-6.75-7.19-7.28-8.06-.93-1.52-1.76-3.25-2.41-5.22-.21-.63-3.49-11.26,2.25-20.84,.92-1.53,2.88-4.73,6.83-7.13,.38-.23,.67-.4,.77-.45,4.27-2.33,8.57-2.26,10.02-2.22,6.76,.2,7.1,3.36,11.47,2.76,4.2-.57,4.09-3.51,9.88-5.86,1.64-.66,6.24-2.48,11.63-1.31,6.04,1.32,9.7,5.6,11.6,7.82,2.05,2.41,6.29,8.21,6.61,16.34Z"/><path class="cls-18" d="M556.16,996.48l-4.71,.72c-2.38-7.32-4.77-14.64-7.15-21.96,2.27-2.15,4.55-4.3,6.82-6.45l5.04,27.69Z"/><path class="cls-23" d="M527.65,1006.22c-2.99,.86-3.17-2.53,.82-6.66,6.3-6.53,12.22-7.01,13.84-5.49,1.96,1.84-1.25,7.75-7.04,7-2.56-.33-5.16,4.44-7.62,5.15Z"/><g><path class="cls-2" d="M574.78,966.73c-1.84,.22-3.39,.62-4.55,.99-1.82,.57-3.24,1.24-4.43,1.8-1.06,.5-1.94,.97-2.59,1.33,1.24-.66,2.58-1.37,2.59-1.33,.02,.07-3.59,1.74-6.3,4.08-2.42,2.09-5.3,5.72-7.31,12.5,3.67-2.73,7.56-5.82,11.6-9.29,4.01-3.44,7.67-6.83,10.99-10.09Z"/><path class="cls-2" d="M552.2,985.89c1.84-.22,3.39-.62,4.55-.99,1.82-.57,3.24-1.24,4.43-1.8,1.06-.5,1.94-.97,2.59-1.33-1.24,.66-2.58,1.37-2.59,1.33-.02-.07,3.59-1.74,6.3-4.08,2.42-2.09,5.3-5.72,7.31-12.51-3.67,2.73-7.56,5.82-11.6,9.29-4.01,3.44-7.67,6.83-10.99,10.09Z"/></g></g><g><path class="cls-6" d="M140.49,1022.99c.19,1.95,.19,3.75,.04,5.44-.1,1.15-.51,5.69-2.94,11.2-1.26,2.86-2.92,6.65-6.56,10.16-4.12,3.97-8.42,5.33-11.63,6.34-3.45,1.09-9.98,3.15-17.12,.76-4.24-1.41-7.04-3.84-8.82-5.38-3.85-3.33-5.83-6.71-6.31-7.55-.84-1.46-1.61-3.13-2.26-5.05-.21-.62-3.52-11.01,.39-21.01,.62-1.6,1.97-4.94,4.93-7.62,.28-.26,.51-.44,.58-.5,3.23-2.64,6.64-2.87,7.79-2.93,5.38-.28,5.85,2.85,9.28,1.95,3.29-.87,3.01-3.81,7.44-6.56,1.25-.78,4.78-2.93,9.13-2.13,4.88,.89,8.06,4.91,9.72,7,1.79,2.26,5.53,7.76,6.33,15.88Z"/><path class="cls-18" d="M112.13,1014.04c-1.23,.35-2.46,.7-3.69,1.06-2.38-7.15-4.76-14.31-7.14-21.46,1.66-2.31,3.32-4.62,4.97-6.93l5.85,27.34Z"/><path class="cls-23" d="M90.18,1025.81c-2.31,1.07-2.68-2.31,.2-6.72,4.56-6.98,9.21-7.88,10.6-6.47,1.68,1.7-.47,7.85-5.11,7.51-2.05-.15-3.79,4.81-5.7,5.69Z"/><g><path class="cls-2" d="M124.89,982.96c-1.44,.35-2.64,.86-3.54,1.31-1.41,.7-2.49,1.47-3.39,2.12-.8,.58-1.47,1.11-1.96,1.51,.93-.75,1.95-1.55,1.96-1.51,.02,.07-2.73,2-4.72,4.53-1.78,2.26-3.82,6.1-4.96,13.03,2.72-3,5.6-6.36,8.58-10.11,2.95-3.73,5.63-7.38,8.04-10.87Z"/><path class="cls-2" d="M108.28,1003.73c1.44-.35,2.64-.86,3.54-1.31,1.41-.7,2.49-1.47,3.39-2.12,.8-.58,1.47-1.11,1.96-1.51-.93,.75-1.95,1.55-1.96,1.51-.02-.07,2.73-2,4.72-4.53,1.78-2.26,3.82-6.1,4.96-13.03-2.72,3-5.6,6.36-8.58,10.11-2.95,3.73-5.63,7.38-8.04,10.87Z"/></g></g><g><path class="cls-6" d="M1816.03,1036.31c-.08,1.59,0,3.05,.21,4.41,.14,.93,.7,4.58,3.05,8.92,1.22,2.25,2.84,5.23,6.16,7.87,3.76,2.99,7.57,3.85,10.4,4.5,3.05,.69,8.82,2,14.93-.33,3.62-1.38,5.96-3.51,7.43-4.85,3.2-2.92,4.77-5.77,5.16-6.47,.67-1.23,1.27-2.62,1.74-4.22,.15-.51,2.57-9.12-1.27-17.01-.61-1.26-1.93-3.89-4.63-5.9-.26-.19-.46-.33-.53-.37-2.93-1.96-5.91-1.96-6.91-1.94-4.69,.07-4.97,2.64-7.99,2.09-2.9-.52-2.79-2.92-6.77-4.91-1.13-.56-4.29-2.11-8.04-1.22-4.2,.99-6.8,4.43-8.14,6.22-1.46,1.93-4.47,6.6-4.8,13.22Z"/><path class="cls-18" d="M1840.32,1027.48l3.26,.65c1.75-5.93,3.5-11.86,5.26-17.79-1.55-1.78-3.09-3.56-4.64-5.35l-3.87,22.49Z"/><path class="cls-23" d="M1859.94,1035.81c2.06,.74,2.23-2.02-.48-5.44-4.27-5.4-8.37-5.88-9.52-4.66-1.39,1.47,.76,6.33,4.78,5.8,1.78-.24,3.51,3.69,5.21,4.3Z"/><g><path class="cls-2" d="M1827.83,1003c1.27,.2,2.34,.55,3.14,.87,1.25,.49,2.23,1.06,3.04,1.53,.73,.42,1.33,.81,1.78,1.12-.85-.56-1.77-1.15-1.78-1.12-.02,.06,2.46,1.47,4.31,3.41,1.65,1.73,3.6,4.73,4.9,10.29-2.5-2.28-5.16-4.84-7.91-7.72-2.73-2.86-5.22-5.67-7.48-8.37Z"/><path class="cls-2" d="M1843.21,1018.91c-1.27-.2-2.34-.55-3.14-.87-1.25-.49-2.23-1.06-3.04-1.53-.73-.42-1.33-.81-1.78-1.12,.85,.56,1.77,1.15,1.78,1.12,.02-.06-2.46-1.47-4.31-3.41-1.65-1.73-3.6-4.73-4.9-10.29,2.5,2.28,5.16,4.84,7.91,7.72,2.73,2.86,5.22,5.67,7.48,8.37Z"/></g></g></svg>